<svg xmlns="http://www.w3.org/2000/svg" width="39" height="39" viewBox="0 0 39 39">
  <g fill="none" fill-rule="evenodd">
    <g transform="translate(.12 .12)">
      <circle cx="19.176" cy="19.176" r="18.921" fill="#F3901A"/>
      <path fill="#7E4997" d="M8.517,34.425 C8.517,34.425 12.036,38.097 19.176,38.097 C26.316,38.097 29.835,34.578 29.835,34.578 C29.835,34.578 29.835,29.427 29.427,28.05 C29.019,26.673 27.336,23.103 24.99,21.726 C22.644,20.349 20.145,20.4 19.125,20.4 C18.105,20.4 15.045,20.961 13.872,21.624 C12.699,22.287 10.71,24.072 10.2,25.041 C9.69,26.061 8.925,27.591 8.772,29.07 C8.568,30.753 8.517,34.425 8.517,34.425 Z"/>
      <path fill="#FFFFFF" stroke="#2D2D2D" stroke-width="1.5" d="M13.668,21.522 C13.668,21.522 16.422,20.451 19.125,20.4 C21.828,20.349 24.735,21.471 24.633,21.522 C23.562,22.695 19.227,29.274 19.227,29.274 C19.227,29.274 14.484,22.032 13.668,21.522 Z"/>
    </g>
    <g transform="translate(8.28 6.24)">
      <path fill="#F8C2B4" stroke="#2D2D2D" stroke-width="1.5" d="M5.661,5.202 C5.202,6.018 4.998,6.987 4.998,8.007 C4.998,11.118 7.344,13.617 10.353,13.923 L11.781,13.923 C14.79,13.617 17.136,11.067 17.136,8.007 C17.136,6.987 16.881,6.069 16.473,5.253"/>
      <path stroke="#2D2D2D" stroke-width="1.5" d="M3.621 16.932L5.916 17.85 5.253 19.737 11.016 23.358C11.016 23.358 5.967 15.198 5.508 15.453 2.499 17.238.51 20.553.51 24.378.51 26.418.357 25.704.357 28.509M18.411 16.932L16.116 17.85 16.779 19.737 11.016 23.358C11.016 23.358 16.065 15.198 16.524 15.453 19.533 17.289 21.573 20.604 21.573 24.429 21.573 26.469 21.726 25.755 21.726 28.56"/>
      <path fill="#000000" stroke="#2D2D2D" d="M5.712,5.253 C8.67,7.905 13.26,8.007 16.473,5.202 C16.473,5.202 15.759,4.743 10.965,4.743 C6.171,4.743 5.712,5.253 5.712,5.253 Z"/>
      <path fill="#E10533" stroke="#2D2D2D" stroke-width="1.5" d="M12.036 16.167L11.22 16.983C11.067 17.136 10.863 17.136 10.761 16.983L9.945 16.167C9.792 16.014 9.792 15.81 9.945 15.708L10.761 14.892C10.914 14.739 11.118 14.739 11.22 14.892L12.036 15.708C12.189 15.81 12.189 16.014 12.036 16.167zM12.189 21.42L12.189 18.972C12.189 18.87 12.138 18.819 12.087 18.717L11.271 17.901C11.118 17.748 10.914 17.748 10.812 17.901L9.996 18.717C9.945 18.768 9.894 18.87 9.894 18.972L9.894 21.42 11.067 22.95 12.189 21.42z"/>
      <path fill="#7E4A97" stroke="#2D2D2D" stroke-width="1.5" d="M5.661,3.417 C4.284,3.06 3.417,2.55 3.417,1.989 C3.417,0.867 6.885,0 11.118,0 C15.351,0 18.819,0.918 18.819,1.989 C18.819,2.55 17.901,3.06 16.473,3.417"/>
      <circle cx="11.067" cy="25.245" r=".561" fill="#2D2D2D"/>
      <circle cx="11.067" cy="27.744" r=".561" fill="#2D2D2D"/>
      <circle cx="11.067" cy="30.294" r=".561" fill="#2D2D2D"/>
      <path fill="#7E4A97" stroke="#2D2D2D" stroke-width="1.5" d="M16.473,5.202 L16.473,5.202 C12.903,4.488 9.231,4.488 5.712,5.202 L5.712,5.202 L5.712,2.856 C5.712,2.55 5.967,2.295 6.273,2.295 L15.912,2.295 C16.218,2.295 16.473,2.55 16.473,2.856 L16.473,5.202 Z"/>
    </g>
  </g>
</svg>
