<?xml version="1.0" encoding="UTF-8" standalone="no"?>
<svg version="1.1" viewBox="0 0 24 24" xmlns="http://www.w3.org/2000/svg" xmlns:xlink="http://www.w3.org/1999/xlink">
    <!--Generated by IJSVG (https://github.com/curthard89/IJSVG)-->
    <g >
        <path d="M23.5,18c-1.378,0 -2.5,-1.121 -2.5,-2.5v-4.5c0,-3.641 -2.24,-6.951 -5.603,-8.325c-0.375,-1.567 -1.76,-2.675 -3.397,-2.675c-1.612,0 -3.024,1.131 -3.4,2.675c-3.361,1.374 -5.6,4.683 -5.6,8.325v4.5c0,1.379 -1.122,2.5 -2.5,2.5c-0.276,0 -0.5,0.224 -0.5,0.5c0,0.276 0.224,0.5 0.5,0.5h23c0.276,0 0.5,-0.224 0.5,-0.5c0,-0.276 -0.224,-0.5 -0.5,-0.5Z"></path>
        <path d="M6.5,0h-6c-0.276,0 -0.5,0.224 -0.5,0.5c0,1.93 1.57,3.5 3.5,3.5c1.93,0 3.5,-1.57 3.5,-3.5c0,-0.276 -0.224,-0.5 -0.5,-0.5Z" transform="translate(8.5, 20)"></path>
    </g>
    <path fill="none" d="M0,0h24v24h-24Z"></path>
</svg>
