<?xml version="1.0" encoding="UTF-8" standalone="no"?>
<svg version="1.1" viewBox="0 0 24 24" xmlns="http://www.w3.org/2000/svg" xmlns:xlink="http://www.w3.org/1999/xlink">
    <!--Generated by IJSVG (https://github.com/curthard89/IJSVG)-->
    <g fill="none" stroke-linejoin="round" stroke-width="1">
        <path stroke-linecap="round" d="M15.205,13l0.936,-6.089c0.267,-1.73 -0.236,-3.489 -1.377,-4.817c-1.14,-1.33 -2.803,-2.094 -4.554,-2.094h-4.013c-1.75,0 -3.413,0.764 -4.554,2.094c-1.14,1.329 -1.643,3.087 -1.376,4.817l0.938,6.089" transform="translate(3.795, 0.5)"></path>
        <path stroke-linecap="round" transform="translate(6.5, 22.5)" d="M0,0v1"></path>
        <path stroke-linecap="round" transform="translate(17.5, 22.5)" d="M0,0v1"></path>
        <path d="M21,0c-1.935,0 -3.5,1.567 -3.5,3.5v1.5c0,0 -1.5,-1 -6,-1c-4.5,0 -6,1 -6,1v-1.5c0,-1.933 -1.568,-3.5 -3.5,-3.5c-1.105,0 -2,0.895 -2,2c0,0.832 0.507,1.546 1.23,1.847c0.465,0.193 0.77,0.649 0.77,1.153v2c0,1.657 1.342,3 3,3h13c1.655,0 3,-1.343 3,-3v-2c0,-0.504 0.302,-0.96 0.768,-1.153c0.722,-0.301 1.232,-1.015 1.232,-1.847c0,-1.105 -0.896,-2 -2,-2Z" transform="translate(0.5, 12.5)"></path>
        <path stroke-linecap="round" d="M1.5,2l-1.5,-1l1.5,-1" transform="translate(13.5, 8)"></path>
        <path stroke-linecap="round" d="M0,2l1.5,-1l-1.5,-1" transform="translate(9, 8)"></path>
        <path stroke-linecap="round" d="M2.70711,0.585786c0.585786,0.585786 0.585786,1.53553 0,2.12132c-0.585786,0.585786 -1.53553,0.585786 -2.12132,0c-0.585786,-0.585786 -0.585786,-1.53553 0,-2.12132c0.585786,-0.585786 1.53553,-0.585786 2.12132,0" transform="translate(10.3536, 7.35355)"></path>
    </g>
    <path fill="none" d="M0,0h24v24h-24Z"></path>
</svg>
