<?xml version="1.0" encoding="UTF-8" standalone="no"?>
<svg version="1.1" viewBox="0 0 24 24" xmlns="http://www.w3.org/2000/svg" xmlns:xlink="http://www.w3.org/1999/xlink">
    <!--Generated by IJSVG (https://github.com/curthard89/IJSVG)-->
    <g >
        <path d="M1.80474,0.390524c0.390524,0.390524 0.390524,1.02369 0,1.41421c-0.390524,0.390524 -1.02369,0.390524 -1.41421,0c-0.390524,-0.390524 -0.390524,-1.02369 0,-1.41421c0.390524,-0.390524 1.02369,-0.390524 1.41421,0" transform="translate(10.9014, 7.90237)"></path>
        <path d="M1.029,11.339c1.694,0.658 2.943,2.216 3.16,4.083c1.271,-0.281 2.792,-0.421 4.533,-0.421c1.743,0 3.266,0.142 4.538,0.421c0.227,-1.863 1.45,-3.398 3.11,-4.064l0.78,-3.87c0.289,-1.876 -0.254,-3.779 -1.49,-5.22c-1.237,-1.441 -3.035,-2.268 -4.933,-2.268h-4.013c-1.898,0 -3.697,0.827 -4.933,2.269c-1.238,1.441 -1.781,3.345 -1.488,5.237l0.736,3.833Zm4.34,-2.985c-0.195,-0.195 -0.195,-0.512 0,-0.707c0.195,-0.196 0.512,-0.196 0.707,0l0.749,0.75c0.257,-0.807 1.005,-1.397 1.897,-1.397c0.891,0 1.639,0.59 1.897,1.397l0.75,-0.75c0.195,-0.196 0.512,-0.196 0.707,0c0.195,0.195 0.195,0.512 0,0.707l-0.647,0.646l0.646,0.647c0.195,0.195 0.195,0.512 0,0.707c-0.098,0.098 -0.226,0.146 -0.354,0.146c-0.128,0 -0.256,-0.049 -0.353,-0.146l-0.75,-0.75c-0.257,0.807 -1.005,1.396 -1.896,1.396c-0.892,0 -1.64,-0.589 -1.897,-1.396l-0.749,0.75c-0.098,0.097 -0.226,0.146 -0.354,0.146c-0.128,0 -0.256,-0.049 -0.353,-0.146c-0.195,-0.195 -0.195,-0.512 0,-0.707l0.646,-0.647l-0.646,-0.646Z" transform="translate(3.277, 0)"></path>
        <path d="M21.5,0c-2.206,0 -4,1.795 -4,4.001v0.655l-0.632,-0.123c-0.891,-0.244 -2.459,-0.532 -4.868,-0.532c-2.41,0 -3.977,0.289 -4.869,0.532l-0.631,0.172v-0.655c0,-2.115 -1.577,-3.824 -3.592,-4.031c-0.134,-0.013 -0.27,-0.019 -0.408,-0.019c-1.379,0 -2.5,1.123 -2.5,2.501c0,0.141 0.014,0.28 0.037,0.414c0.119,0.717 0.543,1.348 1.167,1.725c0.082,0.05 0.171,0.092 0.261,0.132c0.025,0.012 0.048,0.026 0.073,0.037c0.013,0.005 0.021,0.015 0.033,0.02c0.26,0.125 0.429,0.381 0.429,0.671v2c0,1.93 1.57,3.499 3.5,3.499h0.501v0.5c0,0.277 0.224,0.501 0.5,0.501c0.276,0 0.5,-0.224 0.5,-0.5v-0.5h10v0.5c0,0.276 0.224,0.5 0.5,0.5c0.276,0 0.5,-0.224 0.5,-0.5v-0.5h0.499c1.93,0 3.5,-1.569 3.5,-3.499v-2c0,-0.076 0.011,-0.15 0.032,-0.22c0.001,0 0.002,-0.002 0.002,-0.004c0.043,-0.137 0.125,-0.261 0.236,-0.353c0.014,-0.012 0.032,-0.017 0.047,-0.029c0.045,-0.03 0.09,-0.063 0.143,-0.085c0.818,-0.341 1.384,-1.077 1.512,-1.935c0.019,-0.123 0.028,-0.247 0.028,-0.373c0,-1.379 -1.122,-2.502 -2.5,-2.502Z" transform="translate(-0.001, 12)"></path>
    </g>
    <path fill="none" d="M0,0h24v24h-24Z"></path>
</svg>
