<?xml version="1.0" encoding="UTF-8" standalone="no"?>
<svg version="1.1" viewBox="0 0 24 24" xmlns="http://www.w3.org/2000/svg" xmlns:xlink="http://www.w3.org/1999/xlink">
    <!--Generated by IJSVG (https://github.com/curthard89/IJSVG)-->
    <g fill="none" stroke-linecap="round" stroke-linejoin="round" stroke-width="1">
        <path d="M2.70711,0.585786c0.585786,0.585786 0.585786,1.53553 0,2.12132c-0.585786,0.585786 -1.53553,0.585786 -2.12132,0c-0.585786,-0.585786 -0.585786,-1.53553 -4.44089e-16,-2.12132c0.585786,-0.585786 1.53553,-0.585786 2.12132,0" transform="translate(3.35355, 20.3536)"></path>
        <path d="M2.70711,0.585786c0.585786,0.585786 0.585786,1.53553 0,2.12132c-0.585786,0.585786 -1.53553,0.585786 -2.12132,0c-0.585786,-0.585786 -0.585786,-1.53553 0,-2.12132c0.585786,-0.585786 1.53553,-0.585786 2.12132,0" transform="translate(14.3536, 20.3536)"></path>
        <path d="M18.5,0h-3.5l-4,17h-11" transform="translate(5, 3.5)"></path>
        <path d="M15.971,8h-12.971l-3,-8h17.833" transform="translate(0.5, 10.5)"></path>
        <path d="M9,10v-10c-4.5,0 -9,3.806 -9,8.5v1.5h9Z" transform="translate(0.5, 0.5)"></path>
        <path d="M4.58,8.7l-4.58,-8.7" transform="translate(4.92, 1.8)"></path>
        <path d="M8.2,4.86l-8.2,-4.86" transform="translate(1.3, 5.64)"></path>
    </g>
    <path fill="none" d="M0,0h24v24h-24Z"></path>
</svg>
