<?xml version="1.0" encoding="UTF-8" standalone="no"?>
<svg version="1.1" viewBox="0 0 24 24" xmlns="http://www.w3.org/2000/svg" xmlns:xlink="http://www.w3.org/1999/xlink">
    <!--Generated by IJSVG (https://github.com/curthard89/IJSVG)-->
    <g >
        <path d="M4.928,8.134v-7.634c0,-0.276 -0.224,-0.5 -0.5,-0.5c-1.562,0 -3.08,0.425 -4.428,1.151l4.928,6.983Z" transform="translate(5.072, 0)"></path>
        <path d="M0.658,0c-0.416,0.979 -0.658,2.02 -0.658,3.086h8.618l-7.96,-3.086Z" transform="translate(0, 5.914)"></path>
        <path d="M23.5,0h-3.5c-0.232,0 -0.434,0.159 -0.486,0.386l-1.557,6.614h-17.957v0.5c0,0.049 0.015,0.093 0.027,0.138c0.004,0.013 0,0.025 0.005,0.038l0.007,0.018c0,0 0,0 0,0.001l2.993,7.981c0.073,0.195 0.26,0.324 0.468,0.324h12.339l-0.235,1h-10.604c-1.102,0 -2,0.897 -2,2c0,1.103 0.898,2 2,2c1.102,0 2,-0.897 2,-2c0,-0.366 -0.106,-0.705 -0.278,-1h7.557c-0.173,0.295 -0.279,0.634 -0.279,1c0,1.103 0.898,2 2,2c1.102,0 2,-0.897 2,-2c0,-0.89 -0.589,-1.637 -1.394,-1.896l3.79,-16.104h3.104c0.276,0 0.5,-0.224 0.5,-0.5c0,-0.276 -0.224,-0.5 -0.5,-0.5Z" transform="translate(0, 3)"></path>
        <path d="M7.536,6.263l-4.421,-6.263c-1.29,0.868 -2.37,2.024 -3.115,3.342l7.536,2.921Z" transform="translate(1.102, 1.673)"></path>
    </g>
    <path fill="none" d="M0,0h24v24h-24Z"></path>
</svg>
