<?xml version="1.0" encoding="UTF-8" standalone="no"?>
<svg version="1.1" viewBox="0 0 24 24" xmlns="http://www.w3.org/2000/svg" xmlns:xlink="http://www.w3.org/1999/xlink">
    <!--Generated by IJSVG (https://github.com/curthard89/IJSVG)-->
    <g fill="none" stroke-linecap="round" stroke-linejoin="round" stroke-width="1">
        <g fill="none" stroke-linecap="round" stroke-linejoin="round" stroke-width="1">
            <path d="M11.5,0c-6.351,0 -11.5,5.149 -11.5,11.5c0,6.351 5.149,11.5 11.5,11.5c6.351,0 11.5,-5.149 11.5,-11.5c0,-6.351 -5.15,-11.5 -11.5,-11.5v0Z" transform="translate(0.5, 0.503)"></path>
        </g>
        <path d="M1.954,9.758l-1.954,-6.031l5.113,-3.727l5.113,3.727l-1.953,6.031Z" transform="translate(6.9, 7.104)"></path>
        <path d="M8.711,0l-4.356,1.861l-4.355,-1.861" transform="translate(7.658, 1.396)"></path>
        <path d="M2.693,0l0.418,4.731l-3.111,3.58" transform="translate(0.63, 4.556)"></path>
        <path d="M0,0l4.613,1.063l2.434,4.073" transform="translate(2.288, 17.981)"></path>
        <path d="M0,5.138l2.432,-4.075l4.612,-1.063" transform="translate(14.694, 17.979)"></path>
        <path d="M3.112,8.31l-3.112,-3.582l0.418,-4.728" transform="translate(20.284, 4.556)"></path>
        <path d="M0,0v3.84" transform="translate(12.01, 3.26)"></path>
        <path d="M0,1.7l3.15,-1.7" transform="translate(17.13, 9.28)"></path>
        <path d="M0,0l1.96,2.18" transform="translate(15.17, 16.86)"></path>
        <path d="M1.95,0l-1.95,2.18" transform="translate(6.9, 16.86)"></path>
        <path d="M0,0l3.16,1.54" transform="translate(3.74, 9.29)"></path>
    </g>
    <path fill="none" d="M0,0h24v24h-24Z"></path>
</svg>
