<?xml version="1.0" encoding="UTF-8" standalone="no"?>
<svg version="1.1" viewBox="0 0 24 24" xmlns="http://www.w3.org/2000/svg" xmlns:xlink="http://www.w3.org/1999/xlink">
    <!--Generated by IJSVG (https://github.com/curthard89/IJSVG)-->
    <g >
        <path d="M0,1.961l0.498,5.62l2.635,1.288l4.663,-3.399v-3.267l-5.076,-2.203c-0.999,0.524 -1.913,1.188 -2.72,1.961Z" transform="translate(3.717, 1.384)"></path>
        <path d="M0,5.445l4.772,3.478l2.526,-1.357l0.521,-5.586c-0.807,-0.78 -1.718,-1.449 -2.716,-1.98l-5.103,2.182v3.263Z" transform="translate(12.513, 1.408)"></path>
        <path d="M6.292,1.283l-2.624,-1.283l-3.668,4.217c0.199,1.108 0.552,2.162 1.034,3.145l5.491,1.226l1.567,-1.749l-1.8,-5.556Z" transform="translate(0.198, 9.908)"></path>
        <path d="M0,4.754l3.163,3.582c0.013,-0.231 0.035,-0.46 0.035,-0.694c0,-2.9 -1.035,-5.565 -2.756,-7.642l-0.442,4.754Z" transform="translate(20.802, 4.364)"></path>
        <path d="M1.743,1.445l-1.743,5.386l1.562,1.744l5.513,-1.315c0.471,-0.98 0.812,-2.03 1.001,-3.134l-3.643,-4.126l-2.69,1.445Z" transform="translate(15.738, 9.915)"></path>
        <path d="M3.225,4.807l-0.426,-4.807c-1.745,2.084 -2.799,4.766 -2.799,7.69c0,0.263 0.023,0.519 0.039,0.777l3.186,-3.66Z" transform="translate(0, 4.316)"></path>
        <path d="M2.457,1.124l-2.457,4.131c3.01,-0.776 5.56,-2.688 7.171,-5.255l-4.714,1.124Z" transform="translate(14.991, 18.358)"></path>
        <path d="M8.989,1.74l-1.559,-1.74h-5.872l-1.558,1.74l2.881,4.781c0.524,0.07 1.055,0.119 1.599,0.119c0.568,0 1.124,-0.054 1.672,-0.131l2.837,-4.769Z" transform="translate(7.52, 17.365)"></path>
        <path d="M9.052,3.298l-4.526,-3.298l-4.526,3.298l1.732,5.34h5.591Z" transform="translate(7.487, 7.727)"></path>
        <path d="M4.347,2.709l4.369,-1.868c-1.361,-0.537 -2.836,-0.841 -4.384,-0.841c-1.529,0 -2.986,0.299 -4.332,0.822l4.347,1.887Z" transform="translate(7.668, 0.006)"></path>
        <path d="M4.695,1.048l-4.695,-1.048c1.626,2.548 4.184,4.435 7.192,5.192l-2.497,-4.144Z" transform="translate(1.888, 18.44)"></path>
    </g>
    <path fill="none" d="M0,0h24v24h-24Z"></path>
</svg>
