<?xml version="1.0" encoding="UTF-8" standalone="no"?>
<svg version="1.1" viewBox="0 0 24 24" xmlns="http://www.w3.org/2000/svg" xmlns:xlink="http://www.w3.org/1999/xlink">
    <!--Generated by IJSVG (https://github.com/curthard89/IJSVG)-->
    <g >
        <path d="M0.5,0c-0.276,0 -0.5,0.224 -0.5,0.5v14c0,0.276 0.224,0.5 0.5,0.5h23c0.276,0 0.5,-0.224 0.5,-0.5v-14c0,-0.276 -0.224,-0.5 -0.5,-0.5h-23Zm22.5,14h-22v-13h22v13Z" transform="translate(0, 4)"></path>
        <path d="M0,8.5c0,1.378 1.121,2.5 2.5,2.5h15c1.378,0 2.5,-1.122 2.5,-2.5v-6c0,-1.379 -1.122,-2.5 -2.5,-2.5h-15c-1.379,0 -2.5,1.121 -2.5,2.5v6Zm17,-1.5c0.551,0 1,0.448 1,1c0,0.551 -0.449,1 -1,1c-0.552,0 -1,-0.449 -1,-1c0,-0.552 0.448,-1 1,-1Zm-7,-5c1.93,0 3.5,1.569 3.5,3.5c0,1.93 -1.57,3.5 -3.5,3.5c-1.93,0 -3.5,-1.57 -3.5,-3.5c0,-1.931 1.57,-3.5 3.5,-3.5Zm-7,0c0.551,0 1,0.448 1,1c0,0.551 -0.449,1 -1,1c-0.552,0 -1,-0.449 -1,-1c0,-0.552 0.448,-1 1,-1Z" transform="translate(2, 6)"></path>
    </g>
    <path fill="none" d="M0,0h24v24h-24Z"></path>
</svg>
