<?xml version="1.0" encoding="UTF-8" standalone="no"?>
<svg version="1.1" viewBox="0 0 24 24" xmlns="http://www.w3.org/2000/svg" xmlns:xlink="http://www.w3.org/1999/xlink">
    <!--Generated by IJSVG (https://github.com/curthard89/IJSVG)-->
    <g >
        <path d="M16.5,1h-16c-0.276,0 -0.5,-0.224 -0.5,-0.5c0,-0.276 0.224,-0.5 0.5,-0.5h16c0.276,0 0.5,0.224 0.5,0.5c0,0.276 -0.224,0.5 -0.5,0.5Z" transform="translate(4, 2)"></path>
        <path transform="translate(1, 7)" d="M2.5,1h-2c-0.276,0 -0.5,-0.224 -0.5,-0.5c0,-0.276 0.224,-0.5 0.5,-0.5h2c0.276,0 0.5,0.224 0.5,0.5c0,0.276 -0.224,0.5 -0.5,0.5Z"></path>
        <path transform="translate(1, 10)" d="M2.5,1h-2c-0.276,0 -0.5,-0.224 -0.5,-0.5c0,-0.276 0.224,-0.5 0.5,-0.5h2c0.276,0 0.5,0.224 0.5,0.5c0,0.276 -0.224,0.5 -0.5,0.5Z"></path>
        <path transform="translate(1, 13)" d="M2.5,1h-2c-0.276,0 -0.5,-0.224 -0.5,-0.5c0,-0.276 0.224,-0.5 0.5,-0.5h2c0.276,0 0.5,0.224 0.5,0.5c0,0.276 -0.224,0.5 -0.5,0.5Z"></path>
        <path transform="translate(1, 16)" d="M2.5,1h-2c-0.276,0 -0.5,-0.224 -0.5,-0.5c0,-0.276 0.224,-0.5 0.5,-0.5h2c0.276,0 0.5,0.224 0.5,0.5c0,0.276 -0.224,0.5 -0.5,0.5Z"></path>
        <path transform="translate(1, 19)" d="M2.5,1h-2c-0.276,0 -0.5,-0.224 -0.5,-0.5c0,-0.276 0.224,-0.5 0.5,-0.5h2c0.276,0 0.5,0.224 0.5,0.5c0,0.276 -0.224,0.5 -0.5,0.5Z"></path>
        <path d="M1,2.5c0,-0.827 0.673,-1.5 1.5,-1.5h17c0.276,0 0.5,-0.224 0.5,-0.5c0,-0.276 -0.224,-0.5 -0.5,-0.5h-17c-1.379,0 -2.5,1.122 -2.5,2.5v4h1.5c0.553,0 1,0.448 1,1c0,0.552 -0.447,1 -1,1h-1.5v1h1.5c0.553,0 1,0.448 1,1c0,0.552 -0.447,1 -1,1h-1.5v1h1.5c0.553,0 1,0.448 1,1c0,0.552 -0.447,1 -1,1h-1.5v1h1.5c0.553,0 1,0.448 1,1c0,0.552 -0.447,1 -1,1h-1.5v1h1.5c0.553,0 1,0.448 1,1c0,0.552 -0.447,1 -1,1h-1.5v1c0,1.378 1.121,2.5 2.5,2.5h17c0.276,0 0.5,-0.224 0.5,-0.5v-19c0,-0.276 -0.224,-0.5 -0.5,-0.5h-17c-0.827,0 -1.5,-0.673 -1.5,-1.5Zm9.5,4.5c2.394,0 4.343,1.948 4.343,4.343c0,2.208 -3.524,7.609 -3.926,8.218c-0.196,0.3 -0.638,0.3 -0.834,0c-0.402,-0.608 -3.926,-6.009 -3.926,-8.218c0,-2.395 1.949,-4.343 4.343,-4.343Z" transform="translate(2, 0)"></path>
        <path d="M3.67625,0.795498c0.795498,0.795498 0.795498,2.08525 0,2.88075c-0.795498,0.795498 -2.08525,0.795498 -2.88075,0c-0.795498,-0.795498 -0.795498,-2.08525 0,-2.88075c0.795498,-0.795498 2.08525,-0.795498 2.88075,0" transform="translate(10.2641, 9.10713)"></path>
    </g>
    <path fill="none" d="M0,0h24v24h-24Z"></path>
</svg>
