<?xml version="1.0" encoding="UTF-8" standalone="no"?>
<svg version="1.1" viewBox="0 0 24 24" xmlns="http://www.w3.org/2000/svg" xmlns:xlink="http://www.w3.org/1999/xlink">
    <!--Generated by IJSVG (https://github.com/curthard89/IJSVG)-->
    <g fill="none" stroke-linecap="round" stroke-linejoin="round" stroke-width="1">
        <g fill="none" stroke-linecap="round" stroke-linejoin="round" stroke-width="1">
            <path d="M19,0h-17c-1.104,0 -2,0.896 -2,2c0,1.104 0.896,2 2,2h17v19h-17c-1.104,0 -2,-0.896 -2,-2v-19" transform="translate(2.5, 0.5)"></path>
            <path d="M0,0h16" transform="translate(4.5, 2.5)"></path>
        </g>
        <path d="M0,0h2" transform="translate(1.5, 7.5)"></path>
        <path d="M0,0h2" transform="translate(1.5, 10.5)"></path>
        <path d="M0,0h2" transform="translate(1.5, 13.5)"></path>
        <path d="M0,0h2" transform="translate(1.5, 16.5)"></path>
        <path d="M0,0h2" transform="translate(1.5, 19.5)"></path>
        <path d="M7.686,3.843c0,2.122 -3.843,7.942 -3.843,7.942c0,0 -3.843,-5.82 -3.843,-7.942c0,-2.122 1.721,-3.843 3.843,-3.843c2.122,0 3.843,1.721 3.843,3.843Z" transform="translate(8.657, 7.5)"></path>
        <path d="M2.77388,0.600236c0.600236,0.600236 0.600236,1.57341 0,2.17365c-0.600236,0.600236 -1.57341,0.600236 -2.17365,0c-0.600236,-0.600236 -0.600236,-1.57341 0,-2.17365c0.600236,-0.600236 1.57341,-0.600236 2.17365,0" transform="translate(10.8129, 9.65594)"></path>
    </g>
    <path fill="none" d="M0,0h24v24h-24Z"></path>
</svg>
