<?xml version="1.0" encoding="UTF-8" standalone="no"?>
<svg version="1.1" viewBox="0 0 24 24" xmlns="http://www.w3.org/2000/svg" xmlns:xlink="http://www.w3.org/1999/xlink">
    <!--Generated by IJSVG (https://github.com/curthard89/IJSVG)-->
    <g fill="none" stroke-linecap="round" stroke-linejoin="round" stroke-width="1">
        <path d="M9.016,19c0,-2 0.984,-3 2.984,-3c1.5,0 6,0 6,0v-16c0,0 -5.5,0 -6,0c-2,0 -3,1 -3,3c0,-2 -1,-3 -3,-3c-0.5,0 -6,0 -6,0v16c0,0 4.5,0 6,0c2,0 3.016,1 3.016,3Z" transform="translate(2.5, 1.5)"></path>
        <path d="M20,0h2v16c0,0 -4.5,0 -6,0c-2,0 -3.5,1 -3.5,3h-3c0,-2 -1.5,-3 -3.5,-3c-1.5,0 -6,0 -6,0v-16h2" transform="translate(0.5, 3.5)"></path>
        <path d="M0,0v15.5" transform="translate(11.5, 4.5)"></path>
    </g>
    <path fill="none" d="M0,0h24v24h-24Z"></path>
</svg>
