<?xml version="1.0" encoding="UTF-8" standalone="no"?>
<svg version="1.1" viewBox="0 0 24 24" xmlns="http://www.w3.org/2000/svg" xmlns:xlink="http://www.w3.org/1999/xlink">
    <!--Generated by IJSVG (https://github.com/curthard89/IJSVG)-->
    <g >
        <path d="M23,0.5c0,-0.276 -0.224,-0.5 -0.5,-0.5h-0.5c0,9.086 0,6.48 0,15.5c0,0.276 -0.224,0.5 -0.5,0.5h-7c-1.164,0 -1.5,0.336 -1.5,1.5c0,0.276 -0.224,0.5 -0.5,0.5h-2c-0.276,0 -0.5,-0.224 -0.5,-0.5c0,-1.164 -0.337,-1.5 -1.5,-1.5h-7c-0.276,0 -0.5,-0.224 -0.5,-0.5c0,-9.012 0,-6.416 0,-15.5h-0.5c-0.276,0 -0.5,0.224 -0.5,0.5v16c0,0.276 0.224,0.5 0.5,0.5h6c0.901,0 3,0.244 3,2.5c0,0.276 0.224,0.5 0.5,0.5h3c0.276,0 0.5,-0.224 0.5,-0.5c0,-2.256 2.098,-2.5 3,-2.5h6c0.276,0 0.5,-0.224 0.5,-0.5v-16Z" transform="translate(0, 3)"></path>
        <path d="M2.5,17h6c0.276,0 0.5,-0.224 0.5,-0.5v-16c0,-0.276 -0.224,-0.5 -0.5,-0.5h-6c-0.904,0 -1.822,0.201 -2.5,0.812v18.188h0.025c0.149,-1.361 0.946,-2 2.475,-2Z" transform="translate(12, 1)"></path>
        <path d="M6.5,17c1.529,0 2.326,0.639 2.475,2h0.025v-18.188c-0.678,-0.609 -1.592,-0.812 -2.5,-0.812h-6c-0.276,0 -0.5,0.224 -0.5,0.5v16c0,0.276 0.224,0.5 0.5,0.5h6Z" transform="translate(2, 1)"></path>
    </g>
    <path fill="none" d="M0,0h24v24h-24Z"></path>
</svg>
