<?xml version="1.0" encoding="UTF-8" standalone="no"?>
<svg version="1.1" viewBox="0 0 24 24" xmlns="http://www.w3.org/2000/svg" xmlns:xlink="http://www.w3.org/1999/xlink">
    <!--Generated by IJSVG (https://github.com/curthard89/IJSVG)-->
    <g fill="none" stroke-linecap="round" stroke-linejoin="round" stroke-width="1">
        <path d="M10.8284,2.34315c2.34315,2.34315 2.34315,6.14214 0,8.48528c-2.34315,2.34315 -6.14214,2.34315 -8.48528,0c-2.34315,-2.34315 -2.34315,-6.14214 -1.77636e-15,-8.48528c2.34315,-2.34315 6.14214,-2.34315 8.48528,-1.77636e-15" transform="translate(10.9142, 10.9142)"></path>
        <path d="M6,0l-4,4l-2,-2" transform="translate(14.5, 15.5)"></path>
        <path d="M4,7.5v-7.5h-4" transform="translate(16.5, 2.5)"></path>
        <path d="M4,0h-4v16h9" transform="translate(0.5, 2.5)"></path>
        <path d="M0,0h3v4h-3Z" transform="translate(4.5, 0.5)"></path>
        <path d="M0,0h3v4h-3Z" transform="translate(13.5, 0.5)"></path>
        <path d="M0,0h6" transform="translate(7.5, 2.5)"></path>
        <path d="M0,0h20" transform="translate(0.5, 7.5)"></path>
    </g>
    <path fill="none" d="M0,0h24v24h-24Z"></path>
</svg>
