<?xml version="1.0" encoding="UTF-8" standalone="no"?>
<svg version="1.1" viewBox="0 0 24 24" xmlns="http://www.w3.org/2000/svg" xmlns:xlink="http://www.w3.org/1999/xlink">
    <!--Generated by IJSVG (https://github.com/curthard89/IJSVG)-->
    <g >
        <path d="M20.5,2h-3.5v-1.5c0,-0.276 -0.224,-0.5 -0.5,-0.5h-3c-0.276,0 -0.5,0.224 -0.5,0.5v1.5h-5v-1.5c0,-0.276 -0.224,-0.5 -0.5,-0.5h-3c-0.276,0 -0.5,0.224 -0.5,0.5v1.5h-3.5c-0.276,0 -0.5,0.224 -0.5,0.5v4.5h21v-4.5c0,-0.276 -0.224,-0.5 -0.5,-0.5Zm-13.5,2h-2v-3h2v3Zm9,0h-2v-3h2v3Z"></path>
        <path d="M6.5,0c-3.584,0 -6.5,2.916 -6.5,6.5c0,3.584 2.916,6.5 6.5,6.5c3.584,0 6.5,-2.916 6.5,-6.5c0,-3.584 -2.916,-6.5 -6.5,-6.5Zm4.097,4.9l-4.096,4.357c-0.092,0.097 -0.219,0.154 -0.353,0.158c-0.003,0 -0.007,0 -0.011,0c-0.13,0 -0.255,-0.051 -0.348,-0.141l-2.925,-2.84c-0.198,-0.192 -0.203,-0.509 -0.011,-0.707c0.192,-0.199 0.509,-0.203 0.707,-0.011l2.561,2.485l3.748,-3.987c0.188,-0.202 0.506,-0.211 0.706,-0.022c0.201,0.191 0.211,0.507 0.022,0.708Z" transform="translate(11, 11)"></path>
        <path d="M10,9.5c0,-4.142 3.358,-7.5 7.5,-7.5c1.265,0 2.455,0.316 3.5,0.869v-2.869h-21v10.5c0,0.276 0.224,0.5 0.5,0.5h9.65c-0.098,-0.484 -0.15,-0.986 -0.15,-1.5Z" transform="translate(0, 8)"></path>
    </g>
    <path fill="none" d="M0,0h24v24h-24Z"></path>
</svg>
