<?xml version="1.0" encoding="UTF-8" standalone="no"?>
<svg version="1.1" viewBox="0 0 24 24" xmlns="http://www.w3.org/2000/svg" xmlns:xlink="http://www.w3.org/1999/xlink">
    <!--Generated by IJSVG (https://github.com/curthard89/IJSVG)-->
    <g >
        <path d="M1.80474,0.390524c0.390524,0.390524 0.390524,1.02369 0,1.41421c-0.390524,0.390524 -1.02369,0.390524 -1.41421,0c-0.390524,-0.390524 -0.390524,-1.02369 -4.44089e-16,-1.41421c0.390524,-0.390524 1.02369,-0.390524 1.41421,0" transform="translate(2.90237, 8.90237)"></path>
        <path d="M5,0c-2.757,0 -5,2.243 -5,5c0,2.757 2.243,5 5,5c2.757,0 5,-2.243 5,-5c0,-2.757 -2.243,-5 -5,-5Zm0,8.5c-1.93,0 -3.5,-1.57 -3.5,-3.5c0,-1.93 1.57,-3.5 3.5,-3.5c1.93,0 3.5,1.57 3.5,3.5c0,1.93 -1.57,3.5 -3.5,3.5Z" transform="translate(9.5, 8)"></path>
        <path d="M21.444,3h-1.635c-0.519,-1.038 -1.161,-3 -2.809,-3h-5c-1.208,0 -1.694,0.926 -3.25,3h-2.75v-0.5c0,-0.799 -0.727,-1.5 -1.556,-1.5h-0.944c-0.784,0 -1.472,0.701 -1.472,1.486l-0.015,0.542c-1.645,0.179 -2.013,1.267 -2.013,2.195v10.388c0,1.519 0.931,2.389 2.556,2.389h18.889c1.624,0 2.555,-0.87 2.555,-2.389v-10.388c0,-1.014 -0.443,-2.223 -2.556,-2.223Zm-17.444,6c-1.102,0 -2,-0.896 -2,-2c0,-1.102 0.898,-2 2,-2c1.103,0 2,0.898 2,2c0,1.104 -0.897,2 -2,2Zm10.5,7c-3.309,0 -6,-2.691 -6,-6c0,-3.309 2.691,-6 6,-6c3.308,0 6,2.691 6,6c0,3.309 -2.692,6 -6,6Z" transform="translate(0, 3)"></path>
    </g>
    <path fill="none" d="M0,0h24v24h-24Z"></path>
</svg>
