<?xml version="1.0" encoding="UTF-8" standalone="no"?>
<svg version="1.1" viewBox="0 0 24 24" xmlns="http://www.w3.org/2000/svg" xmlns:xlink="http://www.w3.org/1999/xlink">
    <!--Generated by IJSVG (https://github.com/curthard89/IJSVG)-->
    <g fill="none" stroke-linejoin="round" stroke-width="1">
        <path d="M0,2l0.028,-1c0,-0.522 0.449,-1 0.972,-1h0.944c0.556,0 1.056,0.478 1.056,1v1" transform="translate(2.5, 4.5)"></path>
        <path d="M19,3c-0.636,-1.272 -1.21,-3 -2.5,-3h-5c-1,0 -1.473,0.963 -3,3h-6.5c-1.5,0 -2,0.679 -2,1.723v10.388c0,1.043 0.5,1.889 2.056,1.889h18.889c1.556,0 2.056,-0.846 2.056,-1.889v-10.388c-0.001,-1.044 -0.501,-1.723 -2.057,-1.723h-1.944Z" transform="translate(0.5, 3.5)"></path>
        <path d="M9.92606,2.14788c2.14788,2.14788 2.14788,5.63029 0,7.77817c-2.14788,2.14788 -5.63029,2.14788 -7.77817,0c-2.14788,-2.14788 -2.14788,-5.63029 -1.77636e-15,-7.77817c2.14788,-2.14788 5.63029,-2.14788 7.77817,-1.77636e-15" transform="translate(8.46303, 6.96303)"></path>
        <path d="M5.41421,1.17157c1.17157,1.17157 1.17157,3.07107 0,4.24264c-1.17157,1.17157 -3.07107,1.17157 -4.24264,0c-1.17157,-1.17157 -1.17157,-3.07107 0,-4.24264c1.17157,-1.17157 3.07107,-1.17157 4.24264,0" transform="translate(11.2071, 9.70711)"></path>
        <path d="M2.70711,0.585786c0.585786,0.585786 0.585786,1.53553 0,2.12132c-0.585786,0.585786 -1.53553,0.585786 -2.12132,0c-0.585786,-0.585786 -0.585786,-1.53553 -4.44089e-16,-2.12132c0.585786,-0.585786 1.53553,-0.585786 2.12132,0" transform="translate(2.35355, 8.35355)"></path>
    </g>
    <path fill="none" d="M0,0h24v24h-24Z"></path>
</svg>
