<?xml version="1.0" encoding="UTF-8" standalone="no"?>
<svg version="1.1" viewBox="0 0 24 24" xmlns="http://www.w3.org/2000/svg" xmlns:xlink="http://www.w3.org/1999/xlink">
    <!--Generated by IJSVG (https://github.com/curthard89/IJSVG)-->
    <g fill="none" stroke-linecap="round" stroke-linejoin="round" stroke-width="1">
        <path d="M3.60948,0.781049c0.781049,0.781049 0.781049,2.04738 0,2.82843c-0.781049,0.781049 -2.04738,0.781049 -2.82843,0c-0.781049,-0.781049 -0.781049,-2.04738 -4.44089e-16,-2.82843c0.781049,-0.781049 2.04738,-0.781049 2.82843,0" transform="translate(2.30474, 16.3047)"></path>
        <path d="M0,0h3" transform="translate(20.5, 18.5)"></path>
        <path d="M3.60948,0.781049c0.781049,0.781049 0.781049,2.04738 0,2.82843c-0.781049,0.781049 -2.04738,0.781049 -2.82843,0c-0.781049,-0.781049 -0.781049,-2.04738 0,-2.82843c0.781049,-0.781049 2.04738,-0.781049 2.82843,0" transform="translate(16.3047, 16.3047)"></path>
        <path d="M0,0h10" transform="translate(6.5, 18.5)"></path>
        <path d="M22,9v-3.5c0,-0.829 -0.672,-1.5 -1.5,-1.5h-1.5l-2,-4h-9.5l-2,4h-4c-0.829,0 -1.5,0.671 -1.5,1.5v3.5h2" transform="translate(0.5, 9.5)"></path>
        <path d="M0,2l1,-2h1" transform="translate(8.5, 11.5)"></path>
    </g>
    <path fill="none" d="M0,0h24v24h-24Z"></path>
</svg>
