<?xml version="1.0" encoding="UTF-8" standalone="no"?>
<svg version="1.1" viewBox="0 0 24 24" xmlns="http://www.w3.org/2000/svg" xmlns:xlink="http://www.w3.org/1999/xlink">
    <!--Generated by IJSVG (https://github.com/curthard89/IJSVG)-->
    <g >
        <path d="M4.06066,0.87868c0.87868,0.87868 0.87868,2.3033 0,3.18198c-0.87868,0.87868 -2.3033,0.87868 -3.18198,0c-0.87868,-0.87868 -0.87868,-2.3033 -4.44089e-16,-3.18198c0.87868,-0.87868 2.3033,-0.87868 3.18198,0" transform="translate(2.03033, 16.0303)"></path>
        <path d="M23.5,9h-0.5v-3c0,-1.104 -0.897,-2 -2,-2h-1.191l-1.861,-3.724c-0.086,-0.17 -0.258,-0.276 -0.448,-0.276h-9.5c-0.189,0 -0.362,0.106 -0.447,0.276l-1.863,3.724h-3.69c-1.104,0 -2,0.896 -2,2v3.5c0,0.276 0.224,0.5 0.5,0.5h0.801c-0.322,-2.039 1.267,-3.75 3.199,-3.75c1.929,0 3.521,1.706 3.199,3.75h7.602c-0.322,-2.039 1.267,-3.75 3.199,-3.75c1.929,0 3.521,1.706 3.199,3.75h1.801c0.275,0 0.5,-0.224 0.5,-0.5c0,-0.276 -0.225,-0.5 -0.5,-0.5Zm-13,-6h-0.691l-0.861,1.724c-0.12,0.239 -0.412,0.35 -0.672,0.224c-0.246,-0.124 -0.347,-0.424 -0.223,-0.671l1,-2c0.085,-0.171 0.258,-0.277 0.447,-0.277h1c0.275,0 0.5,0.224 0.5,0.5c0,0.276 -0.225,0.5 -0.5,0.5Z" transform="translate(0, 9)"></path>
        <path d="M4.06066,0.87868c0.87868,0.87868 0.87868,2.3033 0,3.18198c-0.87868,0.87868 -2.3033,0.87868 -3.18198,0c-0.87868,-0.87868 -0.87868,-2.3033 0,-3.18198c0.87868,-0.87868 2.3033,-0.87868 3.18198,0" transform="translate(16.0303, 16.0303)"></path>
    </g>
    <path fill="none" d="M0,0h24v24h-24Z"></path>
</svg>
