<?xml version="1.0" encoding="UTF-8" standalone="no"?>
<svg version="1.1" viewBox="0 0 24 24" xmlns="http://www.w3.org/2000/svg" xmlns:xlink="http://www.w3.org/1999/xlink">
    <!--Generated by IJSVG (https://github.com/curthard89/IJSVG)-->
    <g >
        <path d="M10,0h-1.607c-0.912,1.778 -2.761,3 -4.893,3h-3.5v2c0,1.654 1.346,3 3,3h2.293l2.854,2.854c0.312,0.312 0.853,0.091 0.853,-0.354v-2.5h1c1.654,0 3,-1.346 3,-3v-2c0,-1.654 -1.346,-3 -3,-3Z" transform="translate(11, 12)"></path>
        <path d="M19,8.5v-4c0,-2.481 -2.019,-4.5 -4.5,-4.5h-10c-2.481,0 -4.5,2.019 -4.5,4.5v4c0,2.481 2.019,4.5 4.5,4.5h0.5v3.5c0,0.444 0.54,0.668 0.853,0.354l3.854,-3.854h4.793c2.481,0 4.5,-2.019 4.5,-4.5Z" transform="translate(0, 1)"></path>
    </g>
    <path fill="none" d="M0,0h24v24h-24Z"></path>
</svg>
