<?xml version="1.0" encoding="UTF-8" standalone="no"?>
<svg version="1.1" viewBox="0 0 24 24" xmlns="http://www.w3.org/2000/svg" xmlns:xlink="http://www.w3.org/1999/xlink">
    <!--Generated by IJSVG (https://github.com/curthard89/IJSVG)-->
    <g fill="none" stroke-linecap="round" stroke-linejoin="round" stroke-width="1">
        <path d="M14,0h-10c-2.209,0 -4,1.791 -4,4v4c0,2.21 1.791,4 4,4h1v4l4.5,-4h4.5c2.209,0 4,-1.79 4,-4v-4c0,-2.209 -1.791,-4 -4,-4Z" transform="translate(0.5, 1.5)"></path>
        <path d="M0,4.5c0,1.381 1.119,2.5 2.5,2.5h2.5l3,3v-3h1.5c1.381,0 2.5,-1.119 2.5,-2.5v-2c0,-1.381 -1.119,-2.5 -2.5,-2.5" transform="translate(11.5, 12.5)"></path>
    </g>
    <path fill="none" d="M0,0h24v24h-24Z"></path>
</svg>
