<?xml version="1.0" encoding="UTF-8" standalone="no"?>
<svg version="1.1" viewBox="0 0 24 24" xmlns="http://www.w3.org/2000/svg" xmlns:xlink="http://www.w3.org/1999/xlink">
    <!--Generated by IJSVG (https://github.com/curthard89/IJSVG)-->
    <g >
        <path d="M20.22,0.344c-0.433,-0.344 -1.061,-0.271 -1.405,0.161l-12.803,16.122l-4.207,-4.207c-0.391,-0.391 -1.024,-0.391 -1.414,0c-0.391,0.392 -0.391,1.025 0,1.413l5,5c0.202,0.202 0.477,0.308 0.762,0.292c0.284,-0.016 0.552,-0.155 0.728,-0.377l13.5,-17c0.343,-0.431 0.272,-1.06 -0.161,-1.404Z" transform="translate(3.403, -0.127)"></path>
        <path d="M18.549,7.019c-0.538,0.123 -0.875,0.659 -0.752,1.197c0.134,0.585 0.202,1.186 0.202,1.783c0,4.411 -3.589,8 -8,8c-4.411,0 -8,-3.589 -8,-8c0,-4.411 3.589,-8 8,-8c1.247,0 2.444,0.281 3.555,0.832c0.494,0.247 1.095,0.044 1.341,-0.451c0.246,-0.494 0.044,-1.095 -0.451,-1.34c-1.39,-0.69 -2.885,-1.04 -4.444,-1.04c-5.514,0 -10,4.486 -10,10c0,5.514 4.486,10 10,10c5.514,0 10,-4.486 10,-10c0,-0.748 -0.085,-1.498 -0.252,-2.229c-0.124,-0.538 -0.659,-0.877 -1.199,-0.752Z" transform="translate(0.002, 4)"></path>
    </g>
    <path fill="none" d="M0,0h24v24h-24Z"></path>
</svg>
