<?xml version="1.0" encoding="UTF-8" standalone="no"?>
<svg version="1.1" viewBox="0 0 24 24" xmlns="http://www.w3.org/2000/svg" xmlns:xlink="http://www.w3.org/1999/xlink">
    <!--Generated by IJSVG (https://github.com/curthard89/IJSVG)-->
    <g fill="none" stroke-linejoin="round" stroke-width="1">
        <path d="M5.007,0l1.493,3.5h3.5l-3,2.497l1.5,4.003l-3.5,-2.498l-3.5,2.498l1.5,-4.003l-3,-2.497h3.5Z" transform="translate(6.993, 12)"></path>
        <g fill="none" stroke-linecap="round" stroke-linejoin="round" stroke-width="1">
            <path d="M17.696,13.391c0,0 4.304,-0.561 4.304,-4.782c0,-2.677 -2.207,-4.876 -4.954,-4.774c-1.073,-2.267 -3.373,-3.835 -6.046,-3.835c-3.562,0 -6.468,2.783 -6.675,6.294c-2.232,-0.467 -4.325,1.232 -4.325,3.509c0,2.992 2.579,3.49 3.502,3.572" transform="translate(1.5, 3)"></path>
        </g>
    </g>
    <path fill="none" d="M0,0h24v24h-24Z"></path>
</svg>
