<?xml version="1.0" encoding="UTF-8" standalone="no"?>
<svg version="1.1" viewBox="0 0 24 24" xmlns="http://www.w3.org/2000/svg" xmlns:xlink="http://www.w3.org/1999/xlink">
    <!--Generated by IJSVG (https://github.com/curthard89/IJSVG)-->
    <g >
        <path d="M17.853,3.832c-1.241,-2.338 -3.7,-3.832 -6.352,-3.832c-3.618,0 -6.648,2.693 -7.123,6.227c-2.365,-0.18 -4.378,1.724 -4.377,4.076c-3.33067e-16,3.273 2.825,4.176 4.326,4.197h1.133c-0.693,-0.573 -1.216,-1.057 -0.867,-2.014c0.218,-0.597 0.77,-0.986 1.408,-0.986h2.511l1.11,-2.591c0.523,-1.21 2.235,-1.209 2.757,-0.003l1.111,2.594h2.511c0.638,0 1.19,0.389 1.408,0.986c0.349,0.957 -0.168,1.436 -0.867,2.014h1.73c0.048,-0.008 4.729,-0.795 4.729,-5.393c0,-2.867 -2.298,-5.208 -5.148,-5.275Z" transform="translate(0.999, 2.5)"></path>
        <path d="M10.676,3.601h-3.171l-1.369,-3.197c-0.175,-0.404 -0.745,-0.404 -0.92,0l-1.369,3.197h-3.171c-0.47,0 -0.676,0.586 -0.32,0.885l2.744,2.27l-1.375,3.668c-0.171,0.457 0.351,0.869 0.758,0.584l3.193,-2.29l3.193,2.289c0.407,0.285 0.929,-0.127 0.758,-0.584l-1.375,-3.668l2.744,-2.27c0.356,-0.298 0.15,-0.884 -0.32,-0.884Z" transform="translate(6.324, 11.399)"></path>
    </g>
    <path fill="none" d="M0,0h24v24h-24Z"></path>
</svg>
