<?xml version="1.0" encoding="UTF-8" standalone="no"?>
<svg version="1.1" viewBox="0 0 24 24" xmlns="http://www.w3.org/2000/svg" xmlns:xlink="http://www.w3.org/1999/xlink">
    <!--Generated by IJSVG (https://github.com/curthard89/IJSVG)-->
    <g fill="none" stroke-linecap="round" stroke-linejoin="round" stroke-width="1">
        <path d="M19.754,13h3.246v-3h-3.247c-0.209,-0.867 -0.551,-2.181 -1.003,-2.922l2.296,-2.295l-2.829,-2.829l-2.297,2.296c-0.74,-0.452 -2.053,-0.793 -2.92,-1.002v-3.248h-3v3.248c-0.867,0.209 -2.181,0.55 -2.921,1.002l-2.297,-2.296l-2.829,2.829l2.297,2.296c-0.452,0.74 -0.794,2.054 -1.004,2.921h-3.246v3h3.246c0.21,0.867 0.552,2.181 1.004,2.921l-2.297,2.297l2.829,2.828l2.296,-2.297c0.741,0.454 2.055,0.795 2.922,1.005v3.246h3v-3.246c0.867,-0.21 2.181,-0.552 2.92,-1.004l2.298,2.296l2.828,-2.828l-2.296,-2.297c0.452,-0.74 0.794,-2.054 1.004,-2.921Z" transform="translate(0.5, 0.5)"></path>
        <path d="M8.12132,1.75736c1.75736,1.75736 1.75736,4.6066 0,6.36396c-1.75736,1.75736 -4.6066,1.75736 -6.36396,0c-1.75736,-1.75736 -1.75736,-4.6066 0,-6.36396c1.75736,-1.75736 4.6066,-1.75736 6.36396,0" transform="translate(7.06066, 7.06066)"></path>
    </g>
    <path fill="none" d="M0,0h24v24h-24Z"></path>
</svg>
