<?xml version="1.0" encoding="UTF-8" standalone="no"?>
<svg version="1.1" viewBox="0 0 24 24" xmlns="http://www.w3.org/2000/svg" xmlns:xlink="http://www.w3.org/1999/xlink">
    <!--Generated by IJSVG (https://github.com/curthard89/IJSVG)-->
    <path  d="M23.5,10h-2.855c-0.2,-0.79 -0.454,-1.667 -0.778,-2.332l2.032,-2.032c0.195,-0.195 0.195,-0.512 0,-0.707l-2.829,-2.827c-0.195,-0.196 -0.512,-0.196 -0.707,0l-2.033,2.031c-0.665,-0.324 -1.541,-0.578 -2.33,-0.777v-2.856c0,-0.276 -0.224,-0.5 -0.5,-0.5h-3c-0.276,0 -0.5,0.224 -0.5,0.5v2.856c-0.79,0.199 -1.667,0.453 -2.331,0.777l-2.033,-2.031c-0.195,-0.196 -0.512,-0.196 -0.707,0l-2.829,2.827c-0.195,0.195 -0.195,0.512 0,0.707l2.033,2.033c-0.323,0.663 -0.578,1.54 -0.778,2.331h-2.855c-0.276,0 -0.5,0.224 -0.5,0.5v3c0,0.276 0.224,0.5 0.5,0.5h2.855c0.201,0.791 0.456,1.668 0.779,2.331l-2.034,2.034c-0.195,0.195 -0.195,0.511 0,0.707l2.829,2.828c0.188,0.188 0.52,0.188 0.707,0l2.033,-2.033c0.663,0.323 1.54,0.578 2.332,0.779v2.854c0,0.276 0.224,0.5 0.5,0.5h3c0.276,0 0.5,-0.224 0.5,-0.5v-2.854c0.79,-0.201 1.668,-0.456 2.331,-0.778l2.034,2.032c0.195,0.195 0.512,0.195 0.707,0l2.828,-2.828c0.195,-0.195 0.195,-0.512 0,-0.707l-2.032,-2.033c0.323,-0.663 0.578,-1.54 0.778,-2.331h2.853c0.276,0 0.5,-0.224 0.5,-0.5v-3c0,-0.277 -0.224,-0.501 -0.5,-0.501Zm-11.5,6c-2.206,0 -4,-1.795 -4,-4c0,-2.205 1.794,-4 4,-4c2.206,0 4,1.795 4,4c0,2.205 -1.794,4 -4,4Z"></path>
    <path fill="none" d="M0,0h24v24h-24Z"></path>
</svg>
