<?xml version="1.0" encoding="UTF-8" standalone="no"?>
<svg version="1.1" viewBox="0 0 24 24" xmlns="http://www.w3.org/2000/svg" xmlns:xlink="http://www.w3.org/1999/xlink">
    <!--Generated by IJSVG (https://github.com/curthard89/IJSVG)-->
    <g >
        <path d="M13.5,17h-0.5v-2h1v-2h-11.5c-0.276,0 -0.5,-0.224 -0.5,-0.5v-10c0,-0.276 0.224,-0.5 0.5,-0.5h16c0.276,0 0.5,0.224 0.5,0.5v1.5h1.379c0.159,-0.158 0.461,-0.467 0.621,-0.61v-1.89c0,-0.827 -0.673,-1.5 -1.5,-1.5h-18c-0.827,0 -1.5,0.673 -1.5,1.5v12c0,0.827 0.673,1.5 1.5,1.5h6.5v2h-1c-0.276,0 -0.5,0.224 -0.5,0.5c0,0.276 0.224,0.5 0.5,0.5h6.5c0.276,0 0.5,-0.224 0.5,-0.5c0,-0.276 -0.224,-0.5 -0.5,-0.5Z" transform="translate(0, 3)"></path>
        <path d="M8.5,0h-1.5c-0.133,0 -0.26,0.053 -0.354,0.147l-0.853,0.853h-2.586l-0.854,-0.853c-0.093,-0.094 -0.22,-0.147 -0.353,-0.147h-1.5c-0.276,0 -0.5,0.224 -0.5,0.5v13c0,0.276 0.224,0.5 0.5,0.5h1.5c0.133,0 0.26,-0.053 0.354,-0.146l0.853,-0.854h2.586l0.854,0.854c0.093,0.093 0.22,0.146 0.353,0.146h1.5c0.276,0 0.5,-0.224 0.5,-0.5v-13c0,-0.276 -0.224,-0.5 -0.5,-0.5Zm-5,11.5h-2v-2h2v2Zm3,-5.5h-4c-0.276,0 -0.5,-0.224 -0.5,-0.5c0,-0.276 0.224,-0.5 0.5,-0.5h4c0.276,0 0.5,0.224 0.5,0.5c0,0.276 -0.224,0.5 -0.5,0.5Zm0,-2h-4c-0.276,0 -0.5,-0.224 -0.5,-0.5c0,-0.276 0.224,-0.5 0.5,-0.5h4c0.276,0 0.5,0.224 0.5,0.5c0,0.276 -0.224,0.5 -0.5,0.5Z" transform="translate(15, 7)"></path>
    </g>
    <path fill="none" d="M0,0h24v24h-24Z"></path>
</svg>
