<?xml version="1.0" encoding="UTF-8" standalone="no"?>
<svg version="1.1" viewBox="0 0 24 24" xmlns="http://www.w3.org/2000/svg" xmlns:xlink="http://www.w3.org/1999/xlink">
    <!--Generated by IJSVG (https://github.com/curthard89/IJSVG)-->
    <g fill="none" stroke-linecap="round" stroke-linejoin="round" stroke-width="1">
        <path d="M13,14h-12c-0.55,0 -1,-0.45 -1,-1v-12c0,-0.55 0.45,-1 1,-1h18c0.55,0 1,0.45 1,1v1.5" transform="translate(0.5, 3.5)"></path>
        <path d="M11,10h-11v-10h16" transform="translate(2.5, 5.5)"></path>
        <path d="M0,0v3" transform="translate(8.5, 17.5)"></path>
        <path d="M0,0v3" transform="translate(12.5, 17.5)"></path>
        <path d="M0,0h6.5" transform="translate(7, 20.5)"></path>
    </g>
    <g fill="none" stroke-width="1">
        <path stroke-linecap="round" stroke-linejoin="round" d="M8,13h-1.5l-1,-1h-3l-1,1h-1.5v-13h1.5l1,1h3l1,-1h1.5Z" transform="translate(15.5, 7.5)"></path>
        <path stroke-linecap="round" stroke-linejoin="round" transform="translate(17.5, 10.5)" d="M0,0h4"></path>
        <path stroke-linecap="round" stroke-linejoin="round" transform="translate(17.5, 12.5)" d="M0,0h4"></path>
        <path d="M0,0h1v1h-1Z" transform="translate(17, 17)"></path>
    </g>
    <path fill="none" d="M0,0h24v24h-24Z"></path>
</svg>
