<?xml version="1.0" encoding="UTF-8" standalone="no"?>
<svg version="1.1" viewBox="0 0 24 24" xmlns="http://www.w3.org/2000/svg" xmlns:xlink="http://www.w3.org/1999/xlink">
    <!--Generated by IJSVG (https://github.com/curthard89/IJSVG)-->
    <g >
        <path d="M2,2h6v1.001h-2.5c-0.276,0 -0.5,0.224 -0.5,0.5c0,0.275 0.224,0.5 0.5,0.499h6c0.275,0.001 0.5,-0.224 0.5,-0.499c0,-0.276 -0.225,-0.5 -0.5,-0.5h-2.5v-1.001h6c1.103,0.001 2,-0.896 2,-2h-17c0,1.104 0.897,2.001 2,2Z" transform="translate(3, 20)"></path>
        <path d="M15,0h-3.879c-1.258,1.258 -1.698,2 -2.621,2c-0.923,0 -1.363,-0.742 -2.621,-2h-3.879c-1.103,0 -2,0.898 -2,2.001v5.999h17v-5.999c0,-1.103 -0.897,-2.001 -2,-2.001Z" transform="translate(3, 11)"></path>
        <path d="M0.196,7.853l4,4c0.195,0.195 0.512,0.195 0.707,0l4,-4c0.195,-0.195 0.195,-0.512 0,-0.707c-0.195,-0.195 -0.512,-0.195 -0.707,0l-3.147,3.147v-9.793c0,-0.276 -0.224,-0.5 -0.5,-0.5c-0.276,0 -0.5,0.224 -0.5,0.5v9.793l-3.147,-3.146c-0.195,-0.195 -0.512,-0.195 -0.707,0c-0.195,0.195 -0.195,0.511 0.001,0.706Z" transform="translate(6.951, 0)"></path>
    </g>
    <path fill="none" d="M0,0h24v24h-24Z"></path>
</svg>
