<?xml version="1.0" encoding="UTF-8" standalone="no"?>
<svg version="1.1" viewBox="0 0 24 24" xmlns="http://www.w3.org/2000/svg" xmlns:xlink="http://www.w3.org/1999/xlink">
    <!--Generated by IJSVG (https://github.com/curthard89/IJSVG)-->
    <g fill="none" stroke-linejoin="round" stroke-width="1">
        <path d="M8.001,8h1.499c3.882,0 6.5,-6 2.5,-8c0,1.652 -1.848,2.706 -4,3c-2.152,-0.294 -4,-1.348 -4,-3c-4,2 -1.382,8 2.5,8h1.501" transform="translate(4.502, 4.5)"></path>
        <path stroke-linecap="round" d="M0,3.98v-3.98" transform="translate(8.5, 0.52)"></path>
        <path stroke-linecap="round" d="M0,4v-4" transform="translate(16.5, 0.5)"></path>
        <path d="M9.002,0c5.998,0 5.498,9.5 5.498,9.5c-2.334,1 -4.667,1.5 -7,1.5c-2.333,0 -4.667,-0.5 -7,-1.5c0,0 -0.5,-9.5 5.5,-9.5" transform="translate(5, 12.5)"></path>
    </g>
    <path fill="none" d="M0,0h24v24h-24Z"></path>
</svg>
