<?xml version="1.0" encoding="UTF-8" standalone="no"?>
<svg version="1.1" viewBox="0 0 24 24" xmlns="http://www.w3.org/2000/svg" xmlns:xlink="http://www.w3.org/1999/xlink">
    <!--Generated by IJSVG (https://github.com/curthard89/IJSVG)-->
    <g >
        <g >
            <path d="M0,3.123l3.121,-1.338l-1.783,-1.785Z" transform="translate(8.826, 12.076)"></path>
            <path d="M13.177,12.383c-0.045,0.044 -0.098,0.082 -0.157,0.106l-0.008,0.004h-0.002l-4.94,2.117c-0.063,0.026 -0.13,0.04 -0.197,0.04c-0.13,0 -0.258,-0.051 -0.353,-0.146c-0.145,-0.145 -0.187,-0.362 -0.106,-0.55l2.117,-4.941c0,-0.001 0.001,-0.001 0.001,-0.001l0.003,-0.008c0.025,-0.059 0.061,-0.112 0.106,-0.156l8.841,-8.841l0.001,-0.001c0,-0.001 0.001,-0.001 0.001,-0.001l0.004,-0.005h-17.988c-0.276,0 -0.5,0.224 -0.5,0.5v21c0,0.276 0.224,0.5 0.5,0.5h19c0.276,0 0.5,-0.224 0.5,-0.5v-15.94l-6.823,6.823Zm5.324,8.64v0l-17.002,-0.023c-0.276,-0.002 -0.499,-0.224 -0.5,-0.5l0.001,-18.977c0.001,-0.275 0.224,-0.499 0.5,-0.523h13c0.276,0 0.5,0.246 0.501,0.52c0,0.278 -0.223,0.502 -0.499,0.502h-12.5l-0.002,17.957l16,0.021l-0.001,-10.5c0.001,-0.275 0.225,-0.5 0.501,-0.5c0.276,0 0.5,0.224 0.5,0.5l0.001,11.022c0,0.279 -0.225,0.501 -0.5,0.501Z" transform="translate(0, 2)"></path>
        </g>
        <path d="M0,1.123l1.11,-1.123l2.109,2.125l-1.115,1.125Z" transform="translate(19.562, 1.235)"></path>
        <path d="M8.137,0l2.127,2.126l-8.137,8.138l-2.127,-2.103Z" transform="translate(10.72, 3.068)"></path>
    </g>
    <path fill="none" d="M0,0h24v24h-24Z"></path>
</svg>
