<?xml version="1.0" encoding="UTF-8" standalone="no"?>
<svg version="1.1" viewBox="0 0 24 24" xmlns="http://www.w3.org/2000/svg" xmlns:xlink="http://www.w3.org/1999/xlink">
    <!--Generated by IJSVG (https://github.com/curthard89/IJSVG)-->
    <g >
        <path d="M22,0h-20c-1.103,0 -2,0.898 -2,2v12c0,1.103 0.897,2 2,2h20c1.103,0 2,-0.897 2,-2v-12c0,-1.102 -0.897,-2 -2,-2Zm-14.752,10.434l-3.5,1.999c-0.239,0.139 -0.544,0.053 -0.682,-0.186c-0.137,-0.24 -0.054,-0.545 0.186,-0.682l3.5,-1.999c0.239,-0.139 0.544,-0.054 0.682,0.186c0.137,0.24 0.054,0.546 -0.186,0.682Zm4.481,-0.014l-8.5,-5.5c-0.232,-0.15 -0.299,-0.46 -0.148,-0.691c0.149,-0.231 0.459,-0.298 0.691,-0.148l8.228,5.324l8.229,-5.324c0.232,-0.15 0.542,-0.084 0.691,0.147c0.15,0.232 0.083,0.542 -0.148,0.691l-8.5,5.5c-0.166,0.107 -0.378,0.107 -0.543,0.001Zm9.205,1.827c-0.138,0.24 -0.442,0.325 -0.682,0.186l-3.5,-1.999c-0.24,-0.136 -0.323,-0.442 -0.186,-0.682c0.138,-0.24 0.443,-0.325 0.682,-0.186l3.5,1.999c0.24,0.137 0.323,0.442 0.186,0.682Z" transform="translate(0, 4)"></path>
    </g>
    <path fill="none" d="M0,0h24v24h-24Z"></path>
</svg>
