<?xml version="1.0" encoding="UTF-8" standalone="no"?>
<svg version="1.1" viewBox="0 0 24 24" xmlns="http://www.w3.org/2000/svg" xmlns:xlink="http://www.w3.org/1999/xlink">
    <!--Generated by IJSVG (https://github.com/curthard89/IJSVG)-->
    <g >
        <path d="M0.415,2.996l2.081,0.361v0v3.092l-1.489,6.948c-0.067,0.312 0.171,0.605 0.489,0.605h3c0.316,0 0.556,-0.291 0.489,-0.604l-1.489,-6.949v-2.918v0c4.096,0.711 0.06,0.011 8.454,1.471h0.093l11.5,-2.003c0.252,-0.026 0.447,-0.237 0.45,-0.491v-0.012c-0.002,-0.24 -0.178,-0.446 -0.415,-0.487c-11.182,-1.945 -8.339,-1.45 -11.492,-1.998c-0.056,-0.011 -0.122,-0.01 -0.178,1.00614e-16l-11.458,1.995c-0.252,0.025 -0.447,0.237 -0.45,0.491v0.011c0.002,0.24 0.178,0.446 0.415,0.488Z" transform="translate(0.004, -0.002)"></path>
        <g >
            <path transform="translate(8.5, 8.492)" d="M1.5,0.009c-0.851,-0.009 -1.5,0.121 -1.5,1.002c0,0.275 0.224,0.5 0.5,0.5c0.273,0 0.495,-0.22 0.5,-0.491c0.095,-0.012 0.906,-0.012 1,0c0.004,0.272 0.227,0.491 0.5,0.491c0.276,0 0.5,-0.225 0.5,-0.5c0,-0.886 -0.651,-1.006 -1.5,-1.002Z"></path>
            <path transform="translate(12.5, 8.492)" d="M1.5,0.009c-0.851,-0.009 -1.5,0.121 -1.5,1.002c0,0.275 0.224,0.5 0.5,0.5c0.273,0 0.495,-0.22 0.5,-0.491c0.095,-0.012 0.906,-0.012 1,0c0.004,0.272 0.227,0.491 0.5,0.491c0.276,0 0.5,-0.225 0.5,-0.5c0,-0.886 -0.651,-1.006 -1.5,-1.002Z"></path>
        </g>
        <path d="M5.55,0.935c-0.086,0 -5.501,-0.935 -5.501,-0.935c0,0.304 -0.049,0.593 0.147,0.788c0.067,0.068 1.689,1.647 5.354,1.647c3.665,0 5.286,-1.579 5.354,-1.647c0.194,-0.195 0.146,-0.484 0.146,-0.788c0,0 -5.414,0.935 -5.5,0.935Z" transform="translate(6.45, 5.065)"></path>
        <path d="M21.037,9.769c-6.449,-1.78 1.022,0.279 -5.405,-1.492c0.95,-0.854 1.714,-1.995 1.847,-3.359c0.685,-0.234 1.146,-0.971 1.146,-1.922c0,-0.941 -0.451,-1.673 -1.125,-1.914v-1.082c-0.249,0.171 -0.579,0.37 -1,0.568v0.928c0,0.276 0.224,0.5 0.5,0.5c0.495,0 0.625,0.654 0.625,1c0,0.346 -0.13,1 -0.625,1c-0.276,0 -0.5,0.225 -0.5,0.5c0,2.6 -3.158,4.5 -4.5,4.5c-1.342,0 -4.5,-1.9 -4.5,-4.5c0,-0.275 -0.224,-0.5 -0.5,-0.5c-0.495,0 -0.625,-0.654 -0.625,-1c0,-0.346 0.13,-1 0.625,-1c0.276,0 0.5,-0.224 0.5,-0.5v-0.928c-0.421,-0.198 -0.752,-0.398 -1,-0.568v1.08c-0.674,0.241 -1.125,0.975 -1.125,1.916c0,0.951 0.46,1.688 1.146,1.922c0.133,1.363 0.896,2.504 1.844,3.356c-2.588,0.717 -2.856,0.791 -5.445,1.509c-1.746,0.654 -2.92,2.348 -2.92,4.213v2.5c0,0.276 0.224,0.5 0.5,0.5h23c0.276,0 0.5,-0.224 0.5,-0.5v-2.5c0,-1.865 -1.173,-3.559 -2.963,-4.227Zm-9.037,4.02l-4.288,-4.287c0.46,-0.11 1.1,-0.241 1.863,-0.342c0.908,0.54 1.82,0.836 2.425,0.836c0.606,0 1.518,-0.297 2.427,-0.838c0.763,0.101 1.404,0.229 1.866,0.338l-4.293,4.293Z" transform="translate(0, 7.004)"></path>
    </g>
    <path fill="none" d="M0,0h24v24h-24Z"></path>
</svg>
