<?xml version="1.0" encoding="UTF-8" standalone="no"?>
<svg version="1.1" viewBox="0 0 24 24" xmlns="http://www.w3.org/2000/svg" xmlns:xlink="http://www.w3.org/1999/xlink">
    <!--Generated by IJSVG (https://github.com/curthard89/IJSVG)-->
    <g fill="none" stroke-linecap="round" stroke-linejoin="round" stroke-width="1">
        <path d="M8.937,0l-6.34,1.755c-1.562,0.585 -2.597,2.078 -2.597,3.745v2.5h23v-2.5c0,-1.667 -1.034,-3.16 -2.596,-3.745l-6.357,-1.755" transform="translate(0.5, 15.5)"></path>
        <path transform="translate(9, 8.949)" d="M0,0.553c0,-0.553 0.448,-0.5 1,-0.5c0.552,0 1,-0.053 1,0.5"></path>
        <path transform="translate(13, 8.949)" d="M0,0.553c0,-0.553 0.448,-0.5 1,-0.5c0.552,0 1,-0.053 1,0.5"></path>
        <path d="M1.5,0v2.5c-1.5,0 -1.5,3 0,3c0,3 3.5,5 5,5" transform="translate(5.5, 6)"></path>
        <path d="M5,0v2.5c1.5,0 1.5,3 0,3c0,3 -3.5,5 -5,5" transform="translate(12, 6)"></path>
        <path d="M11.5,4l11.5,-2l-11.5,-2l-11.5,2Z" transform="translate(0.5, 0.5)"></path>
        <path d="M0,0v2.369c0,0 1.5,1.5 5,1.5c3.5,0 5,-1.5 5,-1.5v-2.369" transform="translate(7, 3.631)"></path>
        <path d="M0,0v3.57" transform="translate(3, 2.93)"></path>
        <path d="M1.5,0l-1.5,7h3l-1.5,-7" transform="translate(1.5, 6.5)"></path>
        <path d="M0,0.009l5.25,5.25l5.259,-5.259" transform="translate(6.75, 16.241)"></path>
    </g>
    <path fill="none" d="M0,0h24v24h-24Z"></path>
</svg>
