<?xml version="1.0" encoding="UTF-8" standalone="no"?>
<svg version="1.1" viewBox="0 0 24 24" xmlns="http://www.w3.org/2000/svg" xmlns:xlink="http://www.w3.org/1999/xlink">
    <!--Generated by IJSVG (https://github.com/curthard89/IJSVG)-->
    <g >
        <path d="M21.5,4h-4.5v-0.5c0,-1.93 -1.57,-3.5 -3.5,-3.5h-3c-1.93,0 -3.5,1.57 -3.5,3.5v0.5h-4.5c-1.379,0 -2.5,1.122 -2.5,2.5v7c0,0.276 0.224,0.5 0.5,0.5h8.5v-1.5c0,-0.276 0.224,-0.5 0.5,-0.5h5c0.275,0 0.5,0.224 0.5,0.5v1.5h8.5c0.275,0 0.5,-0.224 0.5,-0.5v-7c0,-1.378 -1.122,-2.5 -2.5,-2.5Zm-5.5,0h-8v-0.5c0,-1.378 1.121,-2.5 2.5,-2.5h3c1.378,0 2.5,1.122 2.5,2.5v0.5Z" transform="translate(0, 1)"></path>
        <path d="M21.5,0h-7.5v0.5c0,0.276 -0.225,0.5 -0.5,0.5h-5c-0.276,0 -0.5,-0.224 -0.5,-0.5v-0.5h-7.5c-0.276,0 -0.5,0.224 -0.5,0.5v5c0,0.276 0.224,0.5 0.5,0.5h21c0.275,0 0.5,-0.224 0.5,-0.5v-5c0,-0.276 -0.225,-0.5 -0.5,-0.5Z" transform="translate(1, 16)"></path>
        <path d="M0,0h4v2h-4Z" transform="translate(10, 14)"></path>
    </g>
    <path fill="none" d="M0,0h24v24h-24Z"></path>
</svg>
