<?xml version="1.0" encoding="UTF-8" standalone="no"?>
<svg version="1.1" viewBox="0 0 24 24" xmlns="http://www.w3.org/2000/svg" xmlns:xlink="http://www.w3.org/1999/xlink">
    <!--Generated by IJSVG (https://github.com/curthard89/IJSVG)-->
    <g fill="none" stroke-linecap="round" stroke-linejoin="round" stroke-width="1">
        <path d="M1,10v6h21v-6h1v-8c0,-1.104 -0.896,-2 -2,-2h-19c-1.104,0 -2,0.896 -2,2v8h1Z" transform="translate(0.5, 5.5)"></path>
        <path d="M0,0h5v3h-5Z" transform="translate(9.5, 13.5)"></path>
        <path d="M9,4h-9v-1c0,-1.656 1.344,-3 3,-3h3c1.657,0 3,1.344 3,3v1Z" transform="translate(7.5, 1.5)"></path>
        <path transform="translate(1.5, 15.5)" d="M0,0h8"></path>
        <path transform="translate(14.5, 15.5)" d="M0,0h8"></path>
    </g>
    <path fill="none" d="M0,0h24v24h-24Z"></path>
</svg>
