<?xml version="1.0" encoding="UTF-8" standalone="no"?>
<svg version="1.1" viewBox="0 0 23 20" xmlns="http://www.w3.org/2000/svg" xmlns:xlink="http://www.w3.org/1999/xlink">
    <!--Generated by IJSVG (https://github.com/curthard89/IJSVG)-->
    <g transform="translate(1, 1)">
        <g fill="none" fill-rule="evenodd" stroke-width="1">
            <path d="M19.5117,1.45318c-0.99228,-0.968925 -2.36321,-1.45318 -4.11339,-1.45318c-0.484339,0 -0.978652,0.0839795 -1.48245,0.251856c-0.504,0.168 -0.972865,0.394654 -1.40606,0.679799c-0.433771,0.285062 -0.806548,0.552762 -1.11927,0.802689c-0.312358,0.250009 -0.609323,0.515698 -0.890527,0.796861c-0.281327,-0.281163 -0.578211,-0.546852 -0.890609,-0.796861c-0.312604,-0.249927 -0.685545,-0.517463 -1.11923,-0.802689c-0.433607,-0.285268 -0.902389,-0.511758 -1.40627,-0.679799c-0.503836,-0.167836 -0.998067,-0.251856 -1.48241,-0.251856c-1.75006,0 -3.12107,0.48438 -4.11323,1.45318c-0.992156,0.968719 -1.48828,2.31239 -1.48828,4.03114c0,0.523456 0.0919423,1.06263 0.275458,1.61712c0.183515,0.554691 0.392643,1.02741 0.626973,1.41796c0.234289,0.390509 0.499978,0.771495 0.796861,1.14259c0.296883,0.371135 0.513851,0.626768 0.65041,0.767513c0.136682,0.140458 0.24414,0.242128 0.32225,0.304518l7.31241,7.05477c0.140664,0.140746 0.312522,0.211139 0.515616,0.211139c0.203094,0 0.375075,-0.0703933 0.515657,-0.210852l7.3008,-7.03141c1.7891,-1.78889 2.68357,-3.54676 2.68357,-5.27334c4.11e-05,-1.71875 -0.49616,-3.06242 -1.48828,-4.03114" transform="translate(0.166671, 0)"></path>
        </g>
    </g>
    <path fill="none" fill-rule="evenodd" stroke="none" stroke-width="1" d="M0,0h24v24h-24Z"></path>
</svg>
