<?xml version="1.0" encoding="UTF-8" standalone="no"?>
<svg version="1.1" viewBox="0 0 24 24" xmlns="http://www.w3.org/2000/svg" xmlns:xlink="http://www.w3.org/1999/xlink">
    <!--Generated by IJSVG (https://github.com/curthard89/IJSVG)-->
    <g fill="none" stroke-linecap="round" stroke-linejoin="round" stroke-width="1">
        <path d="M0,4.001h6l1.5,-2l2,2.999l2.5,-5l2,7.001l1.5,-3h7.5" transform="translate(0.5, 10.499)"></path>
        <path d="M19.755,13.21c0.76,-1.605 1.245,-3.275 1.245,-4.925c0,-7.693 -9.316,-8.285 -10.5,-0.592c-1.184,-7.693 -10.5,-7.101 -10.5,1.183c0,1.5 0.348,2.955 0.911,4.334" transform="translate(1.5, -0.711)"></path>
        <path d="M0,0c3.086,4.125 7.27,6.894 7.27,6.894c0,0 3.757,-2.909 6.776,-6.894" transform="translate(4.73, 16.499)"></path>
    </g>
    <path fill="none" d="M0,0h24v24h-24Z"></path>
</svg>
