<?xml version="1.0" encoding="UTF-8" standalone="no"?>
<svg version="1.1" viewBox="0 0 22 19" xmlns="http://www.w3.org/2000/svg" xmlns:xlink="http://www.w3.org/1999/xlink">
    <!--Generated by IJSVG (https://github.com/curthard89/IJSVG)-->
    <g transform="translate(-1, -1)">
        <g transform="translate(1, 1)">
            <path  fill-rule="evenodd" stroke="none" stroke-width="1" d="M20.4409,1.52238c-1.03953,-1.01506 -2.47574,-1.52238 -4.30927,-1.52238c-0.507403,0 -1.02525,0.0879785 -1.55304,0.263849c-0.528,0.176 -1.01919,0.413447 -1.47302,0.71217c-0.454427,0.298637 -0.844955,0.579084 -1.17257,0.840913c-0.327232,0.261914 -0.638339,0.540255 -0.932933,0.834807c-0.294724,-0.294552 -0.605744,-0.572892 -0.933019,-0.834807c-0.32749,-0.261828 -0.71819,-0.542104 -1.17253,-0.840913c-0.454255,-0.298852 -0.94536,-0.536127 -1.47323,-0.71217c-0.527828,-0.175828 -1.04559,-0.263849 -1.553,-0.263849c-1.8334,0 -3.2697,0.507446 -4.3091,1.52238c-1.0394,1.01485 -1.55915,2.4225 -1.55915,4.2231c0,0.548382 0.0963205,1.11323 0.288575,1.69412c0.192254,0.581105 0.41134,1.07634 0.656829,1.48549c0.245445,0.409104 0.523786,0.808233 0.834807,1.197c0.311021,0.388808 0.53832,0.656614 0.681382,0.804062c0.143191,0.147147 0.255765,0.253658 0.337595,0.319019l7.66062,7.39071c0.147362,0.147448 0.327404,0.221193 0.540169,0.221193c0.212765,0 0.392936,-0.0737454 0.540212,-0.220892l7.64845,-7.36624c1.87429,-1.87408 2.81136,-3.71565 2.81136,-5.52446c4.3e-05,-1.80059 -0.519787,-3.20825 -1.55915,-4.2231"></path>
        </g>
        <path fill="none" fill-rule="evenodd" stroke="none" stroke-width="1" d="M0,0h24v24h-24Z"></path>
    </g>
</svg>
