<?xml version="1.0" encoding="UTF-8" standalone="no"?>
<svg version="1.1" viewBox="0 0 24 24" xmlns="http://www.w3.org/2000/svg" xmlns:xlink="http://www.w3.org/1999/xlink">
    <!--Generated by IJSVG (https://github.com/curthard89/IJSVG)-->
    <g >
        <path d="M11.98,3.549c-0.257,0.513 -0.771,0.83 -1.342,0.83c-0.75,-0.032 -1.273,-0.495 -1.442,-1.087l-0.94,-3.292l-0.775,1.549c-0.237,0.475 -0.705,0.807 -1.328,0.83c-0.51,0 -0.971,-0.231 -1.262,-0.668l-0.824,-1.236l-0.228,0.305c-0.282,0.375 -0.73,0.599 -1.201,0.492h-2.638c1.56,2.799 5.352,6.252 7.861,7.917c0.085,0.055 0.181,0.083 0.277,0.083c0.108,0 0.216,-0.035 0.306,-0.104c2.197,-1.689 5.791,-5.243 7.368,-7.896h-2.747l-1.085,2.277Z" transform="translate(3.862, 14.728)"></path>
        <path d="M1.123,11.893h3.627l1.05,-1.293c0.279,-0.375 0.733,-0.6 1.214,-0.6c0.509,0.015 0.966,0.264 1.234,0.668l0.566,0.849l1.345,-2.688c0.256,-0.511 0.769,-0.829 1.342,-0.829c0.753,0.033 1.274,0.499 1.442,1.087l0.966,3.384c0.279,-0.298 0.669,-0.471 1.091,-0.578h5.532c0.702,-1.031 1.468,-3.354 1.468,-5.32c0,-4.315 -2.813,-6.573 -5.593,-6.573c-2.063,0 -4.336,1.259 -5.407,4.021c-1.055,-2.718 -3.271,-3.958 -5.28,-3.958c-3.755,0 -5.72,3.574 -5.72,7.103c0,1.846 0.577,3.89 1.123,4.727Z" transform="translate(1, 1.107)"></path>
        <path d="M23.5,4h-7.5c-0.191,0 -0.362,0.106 -0.447,0.276l-0.925,1.851l-1.647,-5.765c-0.057,-0.201 -0.229,-0.354 -0.502,-0.362c-0.17,0 -0.341,0.106 -0.426,0.276l-2.115,4.229l-1.521,-2.282c-0.092,-0.137 -0.244,-0.218 -0.418,-0.223c-0.148,0 -0.307,0.077 -0.397,0.199l-1.352,1.801h-5.75c-0.276,0 -0.5,0.224 -0.5,0.5c0,0.276 0.224,0.5 0.5,0.5h6c0.156,0 0.306,-0.075 0.398,-0.199l1.078,-1.436l1.607,2.412c0.112,0.168 0.268,0.228 0.464,0.221c0.16,-0.01 0.32,-0.115 0.399,-0.275l1.925,-3.849l1.647,5.763c0.056,0.194 0.227,0.354 0.487,0.363c0.188,-0.002 0.356,-0.108 0.441,-0.276l1.363,-2.724h7.191c0.275,0 0.5,-0.224 0.5,-0.5c0,-0.276 -0.225,-0.5 -0.5,-0.5Z" transform="translate(0, 10)"></path>
    </g>
    <path fill="none" d="M0,0h24v24h-24Z"></path>
</svg>
