<?xml version="1.0" encoding="UTF-8" standalone="no"?>
<svg version="1.1" viewBox="0 0 24 24" xmlns="http://www.w3.org/2000/svg" xmlns:xlink="http://www.w3.org/1999/xlink">
    <!--Generated by IJSVG (https://github.com/curthard89/IJSVG)-->
    <g >
        <path d="M4.686,5.354c0.096,0.095 0.224,0.146 0.354,0.146c0.275,0 0.5,-0.224 0.5,-0.5v-4.5c0,-0.277 -0.224,-0.5 -0.5,-0.5h-4.5c-0.202,0 -0.385,0.122 -0.462,0.309c-0.078,0.187 -0.035,0.401 0.108,0.545l4.5,4.5Z" transform="translate(15.46, 2)"></path>
        <path d="M0,9v11.379h7v-7h4v7h7v-11.379l-9,-9Z" transform="translate(3, 3.621)"></path>
        <path d="M23.924,11.707c-0.004,-0.003 -0.006,-0.01 -0.01,-0.015l-11.5,-11.5c-0.191,-0.192 -0.516,-0.192 -0.707,-2.22045e-16l-11.5,11.5c-0.181,0.181 -0.207,0.48 -0.011,0.691c0.227,0.226 0.532,0.193 0.711,0.018c0.002,0 0.005,-0.001 0.007,-0.002l11.147,-11.147l11.146,11.148c0.002,0.001 0.004,0.002 0.006,0.002c0.191,0.186 0.505,0.186 0.694,0c0.002,0 0.005,-0.001 0.007,-0.002c0.182,-0.183 0.207,-0.486 0.01,-0.693Z" transform="translate(-0.061, 0.955)"></path>
    </g>
    <path fill="none" d="M0,0h24v24h-24Z"></path>
</svg>
