<?xml version="1.0" encoding="UTF-8" standalone="no"?>
<svg version="1.1" viewBox="0 0 24 24" xmlns="http://www.w3.org/2000/svg" xmlns:xlink="http://www.w3.org/1999/xlink">
    <!--Generated by IJSVG (https://github.com/curthard89/IJSVG)-->
    <g >
        <path d="M6.5,0c-3.584,0 -6.5,2.916 -6.5,6.5c0,2.832 1.831,5.319 4.5,6.181v0.819c0,0.276 0.224,0.5 0.5,0.5h3c0.275,0 0.5,-0.224 0.5,-0.5v-0.819c2.668,-0.863 4.5,-3.35 4.5,-6.181c0,-3.584 -2.916,-6.5 -6.5,-6.5Z" transform="translate(5, 5)"></path>
        <path d="M1.5,0h-1c-0.276,0 -0.5,0.224 -0.5,0.5c0,0.276 0.224,0.5 0.5,0.5h1c0.275,0 0.5,-0.224 0.5,-0.5c0,-0.276 -0.225,-0.5 -0.5,-0.5Z" transform="translate(10.5, 22)"></path>
        <path d="M3.5,0h-3c-0.276,0 -0.5,0.224 -0.5,0.5c0,0.276 0.224,0.5 0.5,0.5h3c0.275,0 0.5,-0.224 0.5,-0.5c0,-0.276 -0.225,-0.5 -0.5,-0.5Z" transform="translate(9.5, 20)"></path>
        <path d="M0.5,3c0.275,0 0.5,-0.224 0.5,-0.5v-2c0,-0.276 -0.225,-0.5 -0.5,-0.5c-0.276,0 -0.5,0.224 -0.5,0.5v2c0,0.276 0.224,0.5 0.5,0.5Z" transform="translate(11, 1)"></path>
        <path transform="translate(19, 11)" d="M2.5,0h-2c-0.276,0 -0.5,0.224 -0.5,0.5c0,0.276 0.224,0.5 0.5,0.5h2c0.275,0 0.5,-0.224 0.5,-0.5c0,-0.276 -0.225,-0.5 -0.5,-0.5Z"></path>
        <path transform="translate(1, 11)" d="M2.5,0h-2c-0.276,0 -0.5,0.224 -0.5,0.5c0,0.276 0.224,0.5 0.5,0.5h2c0.275,0 0.5,-0.224 0.5,-0.5c0,-0.276 -0.225,-0.5 -0.5,-0.5Z"></path>
        <path d="M2.316,3.026c0.098,0.097 0.226,0.146 0.354,0.146c0.128,0 0.256,-0.049 0.353,-0.146c0.195,-0.195 0.195,-0.512 0,-0.707l-2.121,-2.123c-0.195,-0.196 -0.512,-0.196 -0.707,0c-0.195,0.195 -0.195,0.511 0,0.708l2.121,2.122Z" transform="translate(3.172, 3.173)"></path>
        <path d="M0.548,3.172c0.128,0 0.256,-0.049 0.354,-0.146l2.122,-2.122c0.195,-0.197 0.195,-0.513 0,-0.708c-0.195,-0.196 -0.512,-0.196 -0.707,0l-2.122,2.122c-0.195,0.195 -0.195,0.512 0,0.707c0.097,0.098 0.225,0.147 0.353,0.147Z" transform="translate(16.607, 3.173)"></path>
    </g>
    <path fill="none" d="M0,0h24v24h-24Z"></path>
</svg>
