<?xml version="1.0" encoding="UTF-8" standalone="no"?>
<svg version="1.1" viewBox="0 0 24 24" xmlns="http://www.w3.org/2000/svg" xmlns:xlink="http://www.w3.org/1999/xlink">
    <!--Generated by IJSVG (https://github.com/curthard89/IJSVG)-->
    <g fill="none" stroke-linecap="round" stroke-linejoin="round" stroke-width="1">
        <path d="M12,6c0,-3.314 -2.688,-6 -6,-6c-3.314,0 -6,2.686 -6,6c0,2.794 1.913,5.136 4.5,5.803v1.197h3v-1.197c2.585,-0.667 4.5,-3.009 4.5,-5.803Z" transform="translate(5.5, 5.5)"></path>
        <path d="M1,0h-1" transform="translate(11, 22.5)"></path>
        <path d="M3,0h-3" transform="translate(10, 20.5)"></path>
        <path d="M0,0v2" transform="translate(11.5, 1.5)"></path>
        <path d="M2,0h-2" transform="translate(19.5, 11.5)"></path>
        <path d="M0,0h2" transform="translate(1.5, 11.5)"></path>
        <path d="M0,0l2.12,2.12" transform="translate(3.72, 3.72)"></path>
        <path d="M2.12,0l-2.12,2.12" transform="translate(17.16, 3.72)"></path>
    </g>
    <path fill="none" d="M0,0h24v24h-24Z"></path>
</svg>
