<?xml version="1.0" encoding="UTF-8" standalone="no"?>
<svg version="1.1" viewBox="0 0 24 24" xmlns="http://www.w3.org/2000/svg" xmlns:xlink="http://www.w3.org/1999/xlink">
    <!--Generated by IJSVG (https://github.com/curthard89/IJSVG)-->
    <g >
        <path d="M4.51184,0.976311c0.976311,0.976311 0.976311,2.55922 0,3.53553c-0.976311,0.976311 -2.55922,0.976311 -3.53553,0c-0.976311,-0.976311 -0.976311,-2.55922 -8.88178e-16,-3.53553c0.976311,-0.976311 2.55922,-0.976311 3.53553,-4.44089e-16" transform="translate(-0.0290778, 1.82892)"></path>
        <path d="M1,2h14.216c0.552,0 1,-0.447 1,-1c0,-0.552 -0.448,-1 -1,-1h-14.216c-0.552,0 -1,0.448 -1,1c-8.88178e-16,0.553 0.448,1 1,1Z" transform="translate(7.784, 4)"></path>
        <path transform="translate(-0.0290778, 9.82892)" d="M4.51184,0.976311c0.976311,0.976311 0.976311,2.55922 0,3.53553c-0.976311,0.976311 -2.55922,0.976311 -3.53553,0c-0.976311,-0.976311 -0.976311,-2.55922 -8.88178e-16,-3.53553c0.976311,-0.976311 2.55922,-0.976311 3.53553,0"></path>
        <path transform="translate(7.784, 12)" d="M15.216,0h-14.216c-0.552,0 -1,0.448 -1,1c0,0.553 0.448,1 1,1h14.216c0.552,0 1,-0.447 1,-1c0,-0.552 -0.448,-1 -1,-1Z"></path>
        <path transform="translate(-0.0290778, 17.8289)" d="M4.51184,0.976311c0.976311,0.976311 0.976311,2.55922 0,3.53553c-0.976311,0.976311 -2.55922,0.976311 -3.53553,0c-0.976311,-0.976311 -0.976311,-2.55922 -8.88178e-16,-3.53553c0.976311,-0.976311 2.55922,-0.976311 3.53553,0"></path>
        <path transform="translate(7.784, 20)" d="M15.216,0h-14.216c-0.552,0 -1,0.448 -1,1c0,0.553 0.448,1 1,1h14.216c0.552,0 1,-0.447 1,-1c0,-0.552 -0.448,-1 -1,-1Z"></path>
    </g>
    <path fill="none" d="M0,0h24v24h-24Z"></path>
</svg>
