<?xml version="1.0" encoding="UTF-8" standalone="no"?>
<svg version="1.1" viewBox="0 0 24 24" xmlns="http://www.w3.org/2000/svg" xmlns:xlink="http://www.w3.org/1999/xlink">
    <!--Generated by IJSVG (https://github.com/curthard89/IJSVG)-->
    <g >
        <path d="M8,0c-4.411,0 -8,3.588 -8,8c0,4.244 7.273,15.307 7.583,15.775c0.092,0.139 0.249,0.225 0.417,0.225c0.168,0 0.324,-0.085 0.417,-0.225c0.31,-0.468 7.583,-11.531 7.583,-15.775c0,-4.411 -3.589,-8 -8,-8Zm0,11.5c-1.93,0 -3.5,-1.571 -3.5,-3.5c0,-1.929 1.57,-3.5 3.5,-3.5c1.93,0 3.5,1.571 3.5,3.5c0,1.929 -1.57,3.5 -3.5,3.5Z" transform="translate(4, 0.006)"></path>
    </g>
    <path fill="none" d="M0,0h24v24h-24Z"></path>
</svg>
