<?xml version="1.0" encoding="UTF-8" standalone="no"?>
<svg version="1.1" viewBox="0 0 24 24" xmlns="http://www.w3.org/2000/svg" xmlns:xlink="http://www.w3.org/1999/xlink">
    <!--Generated by IJSVG (https://github.com/curthard89/IJSVG)-->
    <g fill="none" stroke-linecap="round" stroke-linejoin="round" stroke-width="1">
        <path d="M15,7.5c0,4.144 -7.5,15.5 -7.5,15.5c0,0 -7.5,-11.356 -7.5,-15.5c0,-4.142 3.357,-7.5 7.5,-7.5c4.142,0 7.5,3.358 7.5,7.5Z" transform="translate(4.5, 0.5)"></path>
        <path d="M5.41421,1.17157c1.17157,1.17157 1.17157,3.07107 0,4.24264c-1.17157,1.17157 -3.07107,1.17157 -4.24264,0c-1.17157,-1.17157 -1.17157,-3.07107 0,-4.24264c1.17157,-1.17157 3.07107,-1.17157 4.24264,-8.88178e-16" transform="translate(8.70711, 4.70711)"></path>
    </g>
    <path fill="none" d="M0,0h24v24h-24Z"></path>
</svg>
