<?xml version="1.0" encoding="UTF-8" standalone="no"?>
<svg version="1.1" viewBox="0 0 24 24" xmlns="http://www.w3.org/2000/svg" xmlns:xlink="http://www.w3.org/1999/xlink">
    <!--Generated by IJSVG (https://github.com/curthard89/IJSVG)-->
    <g fill="none" stroke-linecap="round" stroke-linejoin="round" stroke-width="1">
        <g fill="none" stroke-linecap="round" stroke-linejoin="round" stroke-width="1">
            <path d="M4.671,4.233l1.688,1.688c2.252,-2.251 3.321,-5.144 2.545,-5.921l-8.904,8.904" transform="translate(8.169, 4.957)"></path>
            <path d="M0,3.377l1.688,1.688c0.933,0.933 2.443,0.933 3.376,0c0.933,-0.932 0.934,-2.444 0,-3.377l-1.687,-1.688" transform="translate(4.865, 4.127)"></path>
            <path d="M0,0l8.06,8.05" transform="translate(6.55, 5.82)"></path>
        </g>
        <path d="M16,8c0,-4.418 -3.582,-8 -8,-8c-4.418,0 -8,3.582 -8,8c0,3.558 2.324,6.57 5.536,7.61l2.464,7.39l2.464,-7.39c3.212,-1.04 5.536,-4.052 5.536,-7.61Z" transform="translate(3.5, 0.5)"></path>
    </g>
    <path fill="none" d="M0,0h24v24h-24Z"></path>
</svg>
