<?xml version="1.0" encoding="UTF-8" standalone="no"?>
<svg version="1.1" viewBox="0 0 24 24" xmlns="http://www.w3.org/2000/svg" xmlns:xlink="http://www.w3.org/1999/xlink">
    <!--Generated by IJSVG (https://github.com/curthard89/IJSVG)-->
    <g >
        <path d="M9,0c-4.963,0 -9,4.038 -9,9c0,4.125 2.856,7.75 6.832,8.735l1.687,5.902c0.062,0.215 0.258,0.363 0.481,0.363c0.223,0 0.419,-0.148 0.481,-0.363l1.686,-5.902c3.977,-0.985 6.833,-4.61 6.833,-8.735c0,-4.962 -4.038,-9 -9,-9Zm3.463,13.519c0.195,0.196 0.195,0.512 0,0.707c-0.098,0.098 -0.226,0.148 -0.354,0.148c-0.128,0 -0.256,-0.05 -0.353,-0.148l-2.873,-2.873l-2.861,2.862c-0.098,0.098 -0.226,0.146 -0.353,0.146c-0.128,0 -0.256,-0.048 -0.354,-0.146c-0.195,-0.196 -0.195,-0.512 0,-0.707l2.861,-2.861l-0.78,-0.781c-0.482,0.34 -1.053,0.528 -1.655,0.528c-0.771,0 -1.496,-0.301 -2.041,-0.847l-1.688,-1.688c-0.195,-0.196 -0.195,-0.511 0,-0.708c0.195,-0.195 0.512,-0.195 0.707,0l1.688,1.689c0.592,0.592 1.542,0.685 2.258,0.296l-2.965,-2.965c-0.195,-0.197 -0.195,-0.513 0,-0.708c0.195,-0.195 0.512,-0.195 0.707,0l2.97,2.971c0.159,-0.282 0.252,-0.598 0.252,-0.929c0,-0.504 -0.196,-0.978 -0.553,-1.334l-1.687,-1.69c-0.195,-0.195 -0.195,-0.511 0,-0.705c0.195,-0.197 0.512,-0.197 0.707,0l1.688,1.688c0.546,0.546 0.847,1.27 0.846,2.042c0,0.602 -0.188,1.172 -0.526,1.654l0.78,0.78l5.336,-5.336c0.094,-0.094 0.221,-0.147 0.354,-0.147c0.133,0 0.26,0.053 0.354,0.148c1.167,1.17 -0.381,4.464 -2.545,6.627c-0.195,0.195 -0.512,0.195 -0.707,0l-1.334,-1.335l-0.75,0.75l2.871,2.872Z" transform="translate(2.5, 0.006)"></path>
    </g>
    <path fill="none" d="M0,0h24v24h-24Z"></path>
</svg>
