<?xml version="1.0" encoding="UTF-8" standalone="no"?>
<svg version="1.1" viewBox="0 0 24 24" xmlns="http://www.w3.org/2000/svg" xmlns:xlink="http://www.w3.org/1999/xlink">
    <!--Generated by IJSVG (https://github.com/curthard89/IJSVG)-->
    <g >
        <path d="M13.5,0h-13c-0.276,0 -0.5,0.224 -0.5,0.5v4.783c0.981,0.688 1.793,1.61 2.319,2.717h6.681c0.398,0 0.779,0.159 1.06,0.44l1.5,1.5c0.586,0.585 0.586,1.535 0,2.121l-1.5,1.5c-0.281,0.281 -0.662,0.439 -1.06,0.439h-0.879l-0.561,0.561c-0.586,0.586 -1.535,0.586 -2.121,0l-0.439,-0.44l-0.439,0.439c-0.586,0.586 -1.535,0.586 -2.121,0l-0.268,-0.267c-0.524,0.978 -1.279,1.797 -2.171,2.423v4.784c0,0.276 0.224,0.5 0.5,0.5h13c0.276,0 0.5,-0.224 0.5,-0.5v-21c-0.001,-0.276 -0.225,-0.5 -0.501,-0.5Z" transform="translate(10, 1)"></path>
        <path d="M20.854,5.646l-1.5,-1.5c-0.094,-0.093 -0.221,-0.146 -0.354,-0.146h-7.348c-0.839,-2.373 -3.111,-4 -5.652,-4c-3.309,0 -6,2.691 -6,6c0,3.309 2.691,6 6,6c2.54,0 4.812,-1.627 5.652,-4h0.641l0.853,0.854c0.195,0.195 0.512,0.195 0.707,0l0.854,-0.854h0.586l0.853,0.854c0.195,0.195 0.512,0.195 0.707,0l0.854,-0.854h1.293c0.133,0 0.26,-0.053 0.354,-0.146l1.5,-1.5c0.195,-0.195 0.195,-0.512 0,-0.708Zm-16.854,1.854c-0.828,0 -1.5,-0.672 -1.5,-1.5c0,-0.829 0.672,-1.5 1.5,-1.5c0.828,0 1.5,0.671 1.5,1.5c0,0.828 -0.672,1.5 -1.5,1.5Z" transform="translate(0, 6)"></path>
    </g>
    <path fill="none" d="M0,0h24v24h-24Z"></path>
</svg>
