<?xml version="1.0" encoding="UTF-8" standalone="no"?>
<svg version="1.1" viewBox="0 0 24 24" xmlns="http://www.w3.org/2000/svg" xmlns:xlink="http://www.w3.org/1999/xlink">
    <!--Generated by IJSVG (https://github.com/curthard89/IJSVG)-->
    <g fill="none" stroke-linecap="round" stroke-linejoin="round" stroke-width="1">
        <g fill="none" stroke-linecap="round" stroke-linejoin="round" stroke-width="1">
            <path d="M5.5,0c-3.038,0 -5.5,2.463 -5.5,5.5c0,3.037 2.462,5.5 5.5,5.5c2.517,0 4.634,-1.693 5.287,-4h1.213l1,1l1,-1h1l1,1l1,-1h1.5l1.5,-1.5l-1.5,-1.5h-7.713c-0.653,-2.308 -2.77,-4 -5.287,-4Z" transform="translate(0.5, 6.5)"></path>
            <path d="M2.70711,0.585786c0.585786,0.585786 0.585786,1.53553 0,2.12132c-0.585786,0.585786 -1.53553,0.585786 -2.12132,0c-0.585786,-0.585786 -0.585786,-1.53553 -4.44089e-16,-2.12132c0.585786,-0.585786 1.53553,-0.585786 2.12132,0" transform="translate(2.35355, 10.3536)"></path>
        </g>
        <path d="M0,18.021v2.979h13v-21h-13v3.5" transform="translate(10.5, 1.5)"></path>
    </g>
    <path fill="none" d="M0,0h24v24h-24Z"></path>
</svg>
