<?xml version="1.0" encoding="UTF-8" standalone="no"?>
<svg version="1.1" viewBox="0 0 24 24" xmlns="http://www.w3.org/2000/svg" xmlns:xlink="http://www.w3.org/1999/xlink">
    <!--Generated by IJSVG (https://github.com/curthard89/IJSVG)-->
    <g >
        <path d="M11.391,0c-5.841,0 -10.654,4.359 -11.391,10h11.769l-1.447,-1.447c-0.586,-0.584 -0.584,-1.536 0.002,-2.122c0.564,-0.564 1.554,-0.566 2.12,0.002l4.008,4.007c0.585,0.584 0.585,1.536 0,2.121l-4.004,4.004c-0.566,0.566 -1.556,0.581 -2.12,0.017c-0.586,-0.586 -0.587,-1.552 -0.001,-2.137l1.443,-1.445h-11.77c0.737,5.641 5.55,10 11.391,10c6.351,0 11.5,-5.149 11.5,-11.5c0,-6.351 -5.149,-11.5 -11.5,-11.5Z" transform="translate(1.109, 1)"></path>
    </g>
    <path fill="none" d="M0,0h24v24h-24Z"></path>
</svg>
