<?xml version="1.0" encoding="UTF-8" standalone="no"?>
<svg version="1.1" viewBox="0 0 24 24" xmlns="http://www.w3.org/2000/svg" xmlns:xlink="http://www.w3.org/1999/xlink">
    <!--Generated by IJSVG (https://github.com/curthard89/IJSVG)-->
    <g >
        <g >
            <path d="M7.21895,1.5621c1.5621,1.5621 1.5621,4.09476 0,5.65685c-1.5621,1.5621 -4.09476,1.5621 -5.65685,0c-1.5621,-1.5621 -1.5621,-4.09476 -8.88178e-16,-5.65685c1.5621,-1.5621 4.09476,-1.5621 5.65685,-8.88178e-16" transform="translate(2.10948, -0.390524)"></path>
            <path d="M11.5,0h-4.54l0.558,6.689l-1.518,1.518l-1.518,-1.518l0.558,-6.689h-4.54c-0.276,0 -0.5,0.224 -0.5,0.5c0,3.554 1.271,6.369 3.5,7.783v6.217c0,0.276 0.224,0.5 0.5,0.5h4c0.276,0 0.5,-0.224 0.5,-0.5v-6.217c2.229,-1.414 3.5,-4.23 3.5,-7.783c0,-0.276 -0.224,-0.5 -0.5,-0.5Z" transform="translate(0.5, 9)"></path>
        </g>
        <path d="M9.5,0c-0.276,0 -0.5,0.224 -0.5,0.5v0.599l-8.024,1.783c-0.054,-0.218 -0.242,-0.382 -0.476,-0.382c-0.276,0 -0.5,0.224 -0.5,0.5v3c0,0.276 0.224,0.5 0.5,0.5c0.234,0 0.422,-0.164 0.476,-0.382l1.024,0.228v0.654c0,1.102 0.897,2 2,2c1.024,0 1.861,-0.777 1.977,-1.771l3.023,0.672v0.599c0,0.276 0.224,0.5 0.5,0.5c0.276,0 0.5,-0.224 0.5,-0.5v-8c0,-0.276 -0.224,-0.5 -0.5,-0.5Zm-5.5,8c-0.551,0 -1,-0.448 -1,-1v-0.432l1.998,0.443c-0.007,0.547 -0.451,0.989 -0.998,0.989Z" transform="translate(14, 0)"></path>
    </g>
    <path fill="none" d="M0,0h24v24h-24Z"></path>
</svg>
