<?xml version="1.0" encoding="UTF-8" standalone="no"?>
<svg version="1.1" viewBox="0 0 24 24" xmlns="http://www.w3.org/2000/svg" xmlns:xlink="http://www.w3.org/1999/xlink">
    <!--Generated by IJSVG (https://github.com/curthard89/IJSVG)-->
    <g fill="none" stroke-linejoin="round" stroke-width="1">
        <path d="M6.31658,1.36684c1.36684,1.36684 1.36684,3.58291 0,4.94975c-1.36684,1.36684 -3.58291,1.36684 -4.94975,8.88178e-16c-1.36684,-1.36684 -1.36684,-3.58291 -8.88178e-16,-4.94975c1.36684,-1.36684 3.58291,-1.36684 4.94975,-8.88178e-16" transform="translate(2.65829, 0.158291)"></path>
        <path d="M11,0h-11c0,4.069 1.64,6.442 3.5,7.5v6.5h4v-6.5c1.858,-1.058 3.5,-3.431 3.5,-7.5Z" transform="translate(1, 9.5)"></path>
        <g fill="none" stroke-linejoin="round" stroke-width="1">
            <path d="M1.5,0h-1l-0.5,6l1,1l1,-1l-0.5,-6Z" transform="translate(5.5, 9.5)"></path>
        </g>
    </g>
    <g fill="none" stroke-linecap="round" stroke-linejoin="round" stroke-width="1">
        <path d="M0,0v8" transform="translate(23.5, 0.5)"></path>
        <path d="M0,4l9,2v-6l-9,2Z" transform="translate(14.5, 1.5)"></path>
        <path d="M0,0v3" transform="translate(14.5, 3)"></path>
        <path d="M0,0v1.056c0,0.828 0.672,1.5 1.5,1.5c0.828,0 1.5,-0.672 1.5,-1.5v-0.389" transform="translate(16.5, 5.944)"></path>
    </g>
    <path fill="none" d="M0,0h24v24h-24Z"></path>
</svg>
