<?xml version="1.0" encoding="UTF-8" standalone="no"?>
<svg version="1.1" viewBox="0 0 24 24" xmlns="http://www.w3.org/2000/svg" xmlns:xlink="http://www.w3.org/1999/xlink">
    <!--Generated by IJSVG (https://github.com/curthard89/IJSVG)-->
    <g >
        <path d="M17,0h-16.5c-0.276,0 -0.5,0.224 -0.5,0.5v20c0,1.931 1.57,3.5 3.5,3.5h14.94c-0.845,-0.861 -1.44,-2.172 -1.44,-3.5v-20.5Zm-14,6.5c0,-0.276 0.224,-0.5 0.5,-0.5h5c0.276,0 0.5,0.224 0.5,0.5v6c0,0.276 -0.224,0.5 -0.5,0.5h-5c-0.276,0 -0.5,-0.224 -0.5,-0.5v-6Zm11.5,12.5h-11c-0.276,0 -0.5,-0.224 -0.5,-0.5c0,-0.276 0.224,-0.5 0.5,-0.5h11c0.276,0 0.5,0.224 0.5,0.5c0,0.276 -0.224,0.5 -0.5,0.5Zm0,-2h-11c-0.276,0 -0.5,-0.224 -0.5,-0.5c0,-0.276 0.224,-0.5 0.5,-0.5h11c0.276,0 0.5,0.224 0.5,0.5c0,0.276 -0.224,0.5 -0.5,0.5Zm0,-2h-11c-0.276,0 -0.5,-0.224 -0.5,-0.5c0,-0.276 0.224,-0.5 0.5,-0.5h11c0.276,0 0.5,0.224 0.5,0.5c0,0.276 -0.224,0.5 -0.5,0.5Zm0,-2h-4c-0.276,0 -0.5,-0.224 -0.5,-0.5c0,-0.276 0.224,-0.5 0.5,-0.5h4c0.276,0 0.5,0.224 0.5,0.5c0,0.276 -0.224,0.5 -0.5,0.5Zm0,-2h-4c-0.276,0 -0.5,-0.224 -0.5,-0.5c0,-0.276 0.224,-0.5 0.5,-0.5h4c0.276,0 0.5,0.224 0.5,0.5c0,0.276 -0.224,0.5 -0.5,0.5Zm0,-2h-3c-0.276,0 -0.5,-0.224 -0.5,-0.5c0,-0.276 0.224,-0.5 0.5,-0.5h3c0.276,0 0.5,0.224 0.5,0.5c0,0.276 -0.224,0.5 -0.5,0.5Zm0,-5h-11c-0.276,0 -0.5,-0.224 -0.5,-0.5c0,-0.276 0.224,-0.5 0.5,-0.5h11c0.276,0 0.5,0.224 0.5,0.5c0,0.276 -0.224,0.5 -0.5,0.5Z"></path>
        <path d="M5.5,2h-3.5v-1.5c0,-0.276 -0.224,-0.5 -0.5,-0.5h-1.5v19.5c0,1.701 1.285,3.5 2.5,3.5c1.93,0 3.5,-1.569 3.5,-3.5v-17c0,-0.276 -0.224,-0.5 -0.5,-0.5Zm-2.5,17.5c0,0.276 -0.225,0.5 -0.5,0.5c-0.276,0 -0.5,-0.224 -0.5,-0.5v-14.5h1v14.5Z" transform="translate(18, 1)"></path>
    </g>
    <path fill="none" d="M0,0h24v24h-24Z"></path>
</svg>
