<?xml version="1.0" encoding="UTF-8" standalone="no"?>
<svg version="1.1" viewBox="0 0 24 24" xmlns="http://www.w3.org/2000/svg" xmlns:xlink="http://www.w3.org/1999/xlink">
    <!--Generated by IJSVG (https://github.com/curthard89/IJSVG)-->
    <g fill="none" stroke-linecap="round" stroke-linejoin="round" stroke-width="1">
        <use transform="translate(3.5, 3.5)" xlink:href="#path-1"></use>
        <path d="M0,0h5v6h-5Z" transform="translate(3.5, 6.5)"></path>
        <path d="M0,0h3" transform="translate(11.5, 8.5)"></path>
        <path transform="translate(10.5, 10.5)" d="M0,0h4"></path>
        <path transform="translate(10.5, 12.5)" d="M0,0h4"></path>
        <path transform="translate(3.5, 14.5)" d="M0,0h11"></path>
        <path transform="translate(3.5, 16.5)" d="M0,0h11"></path>
        <path transform="translate(3.5, 18.5)" d="M0,0h11"></path>
        <path d="M2,3.5h2v15c0,0.552 -0.447,1 -1,1c-0.552,0 -1,-0.448 -1,-1v-18.5h-2v2" transform="translate(17.5, 2)"></path>
        <path d="M20,23h-17c-1.656,0 -3,-1.343 -3,-3v-20h17v20c0,1.657 1.344,3 3,3c1.657,0 3,-1.343 3,-3v-17h-4" transform="translate(0.5, 0.5)"></path>
    </g>
    <path fill="none" d="M0,0h24v24h-24Z"></path>
</svg>
