<?xml version="1.0" encoding="UTF-8" standalone="no"?>
<svg version="1.1" viewBox="0 0 24 24" xmlns="http://www.w3.org/2000/svg" xmlns:xlink="http://www.w3.org/1999/xlink">
    <!--Generated by IJSVG (https://github.com/curthard89/IJSVG)-->
    <g >
        <path d="M5,24c-2.897,0 -5,-2.314 -5,-5.5v-11.5c0,-3.991 2.794,-7 6.5,-7c3.706,0 6.5,3.009 6.5,7v8.497c0,0.552 -0.448,1 -1,1c-0.552,0 -1,-0.448 -1,-1v-8.496c0,-2.898 -1.893,-5 -4.5,-5c-2.607,0 -4.5,2.101 -4.5,5v11.5c0,1.743 0.928,3.5 3,3.5c2.072,0 3,-1.757 3,-3.5v-9.003c0,-0.602 -0.146,-2 -1.5,-2c-1.354,0 -1.5,1.398 -1.5,2v7.5c0,0.552 -0.448,1 -1,1c-0.552,0 -1,-0.448 -1,-1v-7.5c0,-2.393 1.407,-4 3.5,-4c2.093,0 3.5,1.607 3.5,4v9.002c0,3.187 -2.103,5.5 -5,5.5Z" transform="translate(5, 0)"></path>
    </g>
    <path fill="none" d="M0,0h24v24h-24Z"></path>
</svg>
