<?xml version="1.0" encoding="UTF-8" standalone="no"?>
<svg version="1.1" viewBox="0 0 24 24" xmlns="http://www.w3.org/2000/svg" xmlns:xlink="http://www.w3.org/1999/xlink">
    <!--Generated by IJSVG (https://github.com/curthard89/IJSVG)-->
    <g fill="none" stroke-linejoin="round" stroke-width="1">
        <path d="M4.51184,1.55077c0.976311,1.55077 0.976311,4.06507 0,5.61584c-0.976311,1.55077 -2.55922,1.55077 -3.53553,1.77636e-15c-0.976311,-1.55077 -0.976311,-4.06507 -8.88178e-16,-5.61584c0.976311,-1.55077 2.55922,-1.55077 3.53553,-1.77636e-15" transform="translate(0.255922, 5.87431)"></path>
        <g fill="none" stroke-linejoin="round" stroke-width="1" transform="scale(0.999992) rotate(-2.28096, 8.53758, 4.54936)">
            <path d="M4.10036,1.40901c0.887271,1.40901 0.887271,3.69347 0,5.10248c-0.887271,1.40901 -2.32582,1.40901 -3.21309,8.88178e-16c-0.887271,-1.40901 -0.887271,-3.69347 -8.88178e-16,-5.10248c0.887271,-1.40901 2.32582,-1.40901 3.21309,-4.44089e-16" transform="translate(6.05118, 0.593747)"></path>
        </g>
        <path d="M4.51184,1.55077c0.976311,1.55077 0.976311,4.06507 0,5.61584c-0.976311,1.55077 -2.55922,1.55077 -3.53553,1.77636e-15c-0.976311,-1.55077 -0.976311,-4.06507 0,-5.61584c0.976311,-1.55077 2.55922,-1.55077 3.53553,-1.77636e-15" transform="translate(17.9659, 5.87431)"></path>
        <g fill="none" stroke-linejoin="round" stroke-width="1" transform="scale(-0.999992) rotate(2.28096, 228.75, -761.765)">
            <path d="M4.10036,1.40901c0.887271,1.40901 0.887271,3.69347 0,5.10248c-0.887271,1.40901 -2.32582,1.40901 -3.21309,8.88178e-16c-0.887271,-1.40901 -0.887271,-3.69347 -1.77636e-15,-5.10248c0.887271,-1.40901 2.32582,-1.40901 3.21309,-4.44089e-16" transform="translate(12.6712, 0.593747)"></path>
        </g>
        <path d="M10.236,3.752c-0.342,-1.705 -1.365,-3.752 -3.412,-3.752c-2.047,0 -3.07,2.047 -3.412,3.752c-0.368,1.84 -3.412,3.071 -3.412,5.801c0,5.257 13.648,5.257 13.648,0c-3.55271e-15,-2.73 -3.044,-3.961 -3.412,-5.801Z" transform="translate(5.031, 10.005)"></path>
    </g>
    <path fill="none" d="M0,0h24v24h-24Z"></path>
</svg>
