<?xml version="1.0" encoding="UTF-8" standalone="no"?>
<svg version="1.1" viewBox="0 0 24 24" xmlns="http://www.w3.org/2000/svg" xmlns:xlink="http://www.w3.org/1999/xlink">
    <!--Generated by IJSVG (https://github.com/curthard89/IJSVG)-->
    <g >
        <path d="M6,4.471c0,-2.507 -1.318,-4.471 -3,-4.471c-1.682,0 -3,1.964 -3,4.471c0,2.507 1.318,4.471 3,4.471c1.682,0 3,-1.964 3,-4.471Z" transform="translate(0, 5.765)"></path>
        <path d="M2.895,8.211c0.917,-0.012 1.603,-0.585 2.056,-1.37c0.448,-0.779 0.672,-1.79 0.63,-2.846c-0.088,-2.24 -1.342,-3.995 -2.93,-3.995c-0.001,0 -0.002,0 -0.003,0c-0.784,0.031 -1.486,0.518 -1.976,1.37c-0.449,0.778 -0.672,1.789 -0.63,2.845c0.088,2.241 1.342,3.996 2.853,3.996Z" transform="translate(5.734, 0.452)"></path>
        <path d="M3,0c-1.683,0 -3,1.964 -3,4.471c0,2.507 1.317,4.471 3,4.471c1.682,0 3,-1.964 3,-4.471c0,-2.508 -1.318,-4.471 -3,-4.471Z" transform="translate(17.711, 5.766)"></path>
        <path d="M2.648,8.211c1.817,0.023 2.857,-2.08 2.933,-3.995c0.042,-1.056 -0.182,-2.066 -0.63,-2.845c-0.49,-0.853 -1.192,-1.339 -2.055,-1.371c-1.511,0 -2.765,1.755 -2.854,3.996c-0.042,1.056 0.182,2.066 0.631,2.846c0.49,0.851 1.192,1.338 1.975,1.369Z" transform="translate(12.354, 0.451)"></path>
        <path d="M11.226,4.153c-0.402,-2.008 -1.639,-4.153 -3.902,-4.153c-2.264,0 -3.5,2.146 -3.902,4.154c-0.127,0.635 -0.715,1.256 -1.337,1.915c-0.977,1.034 -2.085,2.206 -2.085,3.983c0,3.053 3.797,4.442 7.325,4.442c3.527,0 7.324,-1.39 7.324,-4.442c0,-1.777 -1.107,-2.949 -2.085,-3.983c-0.623,-0.659 -1.211,-1.28 -1.338,-1.916Z" transform="translate(4.532, 9.508)"></path>
    </g>
    <path fill="none" d="M0,0h24v24h-24Z"></path>
</svg>
