<?xml version="1.0" encoding="UTF-8" standalone="no"?>
<svg version="1.1" viewBox="0 0 24 24" xmlns="http://www.w3.org/2000/svg" xmlns:xlink="http://www.w3.org/1999/xlink">
    <!--Generated by IJSVG (https://github.com/curthard89/IJSVG)-->
    <g fill="none" stroke-linecap="round" stroke-linejoin="round" stroke-width="1">
        <path d="M8.419,6.627c0.902,-0.903 0.902,-2.368 0,-3.271l-2.454,-2.453c-0.903,-0.903 -2.368,-0.903 -3.271,0l-1.345,1.345c-1.168,1.168 -1.349,2.989 -0.439,4.366c3.909,5.91 9.124,11.125 15.034,15.034c1.375,0.909 3.201,0.728 4.365,-0.438l1.346,-1.346c0.903,-0.903 0.903,-2.368 0,-3.271l-2.453,-2.453c-0.902,-0.904 -2.367,-0.904 -3.271,0l-0.817,0.817c-2.69,-2.204 -5.309,-4.823 -7.513,-7.514l0.818,-0.816Z" transform="translate(0.167, 1.275)"></path>
    </g>
    <path fill="none" d="M0,0h24v24h-24Z"></path>
</svg>
