<?xml version="1.0" encoding="UTF-8" standalone="no"?>
<svg version="1.1" viewBox="0 0 24 24" xmlns="http://www.w3.org/2000/svg" xmlns:xlink="http://www.w3.org/1999/xlink">
    <!--Generated by IJSVG (https://github.com/curthard89/IJSVG)-->
    <g >
        <path d="M22.102,16.692l-2.453,-2.453c-1.001,-1.002 -2.622,-1.002 -3.625,0l-0.657,0.657c-2.57,-2.126 -5.038,-4.594 -7.159,-7.16l0.657,-0.657c0.999,-0.999 0.999,-2.625 0,-3.624l-2.453,-2.453c-1.001,-1.002 -2.623,-1.002 -3.625,2.22045e-16l-1.346,1.346c-1.243,1.242 -1.441,3.211 -0.47,4.68c3.934,5.947 9.157,11.17 15.105,15.104c1.45,0.959 3.409,0.803 4.68,-0.47l1.346,-1.346c1.004,-1.001 1,-2.625 0,-3.624Z" transform="translate(-0.103, 0.999)"></path>
    </g>
    <path fill="none" d="M0,0h24v24h-24Z"></path>
</svg>
