<?xml version="1.0" encoding="UTF-8" standalone="no"?>
<svg version="1.1" viewBox="0 0 24 24" xmlns="http://www.w3.org/2000/svg" xmlns:xlink="http://www.w3.org/1999/xlink">
    <!--Generated by IJSVG (https://github.com/curthard89/IJSVG)-->
    <path  d="M23,11h-10v-9.999c0,-0.553 -0.426,-1.001 -0.979,-1.001v0c-0.553,0 -1,0.447 -1,0.999l-0.009,10.001h-10.012c-0.553,0 -1,0.447 -1,1c0,0.552 0.447,1 1,1h10.01l-0.01,9.999c-0.001,0.552 0.446,1 0.998,1.001h0.001c0.552,0 1,-0.447 1.001,-0.999v-10.001h10c0.552,0 1,-0.448 1,-1c0,-0.553 -0.448,-1 -1,-1Z"></path>
    <path fill="none" d="M0,0h24v24h-24Z"></path>
</svg>
