<?xml version="1.0" encoding="UTF-8" standalone="no"?>
<svg version="1.1" viewBox="0 0 24 24" xmlns="http://www.w3.org/2000/svg" xmlns:xlink="http://www.w3.org/1999/xlink">
    <!--Generated by IJSVG (https://github.com/curthard89/IJSVG)-->
    <path  d="M23.5,8h-7.5v-7.5c0,-0.276 -0.224,-0.5 -0.5,-0.5h-7c-0.276,0 -0.5,0.224 -0.5,0.5v7.5h-7.5c-0.276,0 -0.5,0.224 -0.5,0.5v7c0,0.276 0.224,0.5 0.5,0.5h7.5v7.5c0,0.276 0.224,0.5 0.5,0.5h7c0.276,0 0.5,-0.224 0.5,-0.5v-7.5h7.5c0.276,0 0.5,-0.224 0.5,-0.5v-7c0,-0.276 -0.224,-0.5 -0.5,-0.5Z"></path>
    <path fill="none" d="M0,0h24v24h-24Z"></path>
</svg>
