<?xml version="1.0" encoding="UTF-8" standalone="no"?>
<svg version="1.1" viewBox="0 0 24 24" xmlns="http://www.w3.org/2000/svg" xmlns:xlink="http://www.w3.org/1999/xlink">
    <!--Generated by IJSVG (https://github.com/curthard89/IJSVG)-->
            <path  d="M1.23282,10.5h0.0024706c0.681882,0 1.23529,-0.550941 1.23529,-1.23282l0.0172942,-8.02941c0,-0.683118 -0.550941,-1.23653 -1.23406,-1.23776c-0.67447,0.0234706 -1.23653,0.549706 -1.23653,1.23282l-0.0172941,8.02941c0,0.681882 0.550941,1.23653 1.23282,1.23776Z" transform="translate(10.6495, 1)"></path>
            <path  d="M9.26471,17.5424c-5.10918,0 -9.26471,-4.15553 -9.26471,-9.26471c0,-3.26612 1.66888,-6.22835 4.46435,-7.92441c0.584294,-0.353294 1.34276,-0.169235 1.69606,0.415059c0.354529,0.583059 0.169235,1.34276 -0.415059,1.69606c-2.05059,1.24518 -3.27476,3.41929 -3.27476,5.81329c0,3.74541 3.04871,6.79412 6.79412,6.79412c3.74541,0 6.79412,-3.04871 6.79412,-6.79412c0,-2.394 -1.22418,-4.56812 -3.27476,-5.81329c-0.584294,-0.353294 -0.769588,-1.113 -0.415059,-1.69606c0.353294,-0.584294 1.11176,-0.768353 1.69606,-0.415059c2.79547,1.69606 4.46435,4.65829 4.46435,7.92441c0,5.10918 -4.15553,9.26471 -9.26471,9.26471Z" transform="translate(2.61765, 3.83994)"></path>
            <path fill="none" d="M0,0h24v24h-24Z"></path>
</svg>
