<?xml version="1.0" encoding="UTF-8" standalone="no"?>
<svg version="1.1" viewBox="0 0 24 24" xmlns="http://www.w3.org/2000/svg" xmlns:xlink="http://www.w3.org/1999/xlink">
    <!--Generated by IJSVG (https://github.com/curthard89/IJSVG)-->
    <g fill="none" stroke-linejoin="round" stroke-width="1">
        <path d="M0,0h23v4h-23Z" transform="translate(0.5, 7.5)"></path>
        <path d="M0,0h21v12h-21Z" transform="translate(1.5, 11.5)"></path>
        <path d="M0,0v16" transform="translate(8.5, 7.5)"></path>
        <path d="M0,16v-16" transform="translate(15.5, 7.5)"></path>
        <path stroke-linecap="round" d="M5.657,4.512c-0.976,0.977 -5.657,2.121 -5.657,2.121c0,0 1.145,-4.681 2.121,-5.657c0.976,-0.976 2.56,-0.976 3.536,0c0.976,0.976 0.976,2.56 0,3.536Z" transform="translate(12, 0.756)"></path>
        <path stroke-linecap="round" d="M0.977,4.512c0.976,0.977 5.657,2.121 5.657,2.121c0,0 -1.146,-4.681 -2.121,-5.657c-0.977,-0.976 -2.56,-0.976 -3.536,0c-0.976,0.976 -0.977,2.56 0,3.536Z" transform="translate(5.366, 0.756)"></path>
    </g>
    <path fill="none" d="M0,0h24v24h-24Z"></path>
</svg>
