<?xml version="1.0" encoding="UTF-8" standalone="no"?>
<svg version="1.1" viewBox="0 0 24 24" xmlns="http://www.w3.org/2000/svg" xmlns:xlink="http://www.w3.org/1999/xlink">
    <!--Generated by IJSVG (https://github.com/curthard89/IJSVG)-->
    <g >
        <path transform="translate(0, 7)" d="M0,0h8v4h-8Z"></path>
        <path d="M13.191,0.879c-0.567,-0.567 -1.32,-0.879 -2.121,-0.879c-0.801,0 -1.555,0.312 -2.121,0.879c-0.657,0.656 -1.329,2.651 -1.768,4.173c-0.44,-1.522 -1.112,-3.517 -1.768,-4.173c-0.567,-0.567 -1.32,-0.879 -2.122,-0.879c-0.802,0 -1.555,0.312 -2.122,0.879c-1.169,1.17 -1.169,3.073 0,4.242c0.467,0.467 2.923,1.442 3.012,1.474v3.905h6v-3.905c0.088,-0.031 2.544,-1.008 3.011,-1.474c1.169,-1.169 1.169,-3.073 -0.001,-4.242Zm-11.315,3.535c-0.779,-0.779 -0.779,-2.048 0,-2.828c0.379,-0.378 0.881,-0.586 1.415,-0.586c0.534,0 1.036,0.208 1.415,0.586c0.547,0.547 1.303,2.903 1.777,4.698c-1.754,-0.516 -4.056,-1.32 -4.607,-1.87Zm10.608,0c-0.549,0.55 -2.852,1.354 -4.607,1.87c0.476,-1.795 1.231,-4.15 1.779,-4.698c0.377,-0.378 0.88,-0.586 1.414,-0.586c0.534,0 1.037,0.208 1.414,0.586c0.779,0.78 0.779,2.049 0,2.828Z" transform="translate(4.819, 0.5)"></path>
        <path transform="translate(16, 7)" d="M0,0h8v4h-8Z"></path>
        <path transform="translate(16, 12)" d="M0,0h7v12h-7Z"></path>
        <path transform="translate(1, 12)" d="M0,0h7v12h-7Z"></path>
        <path d="M0,0h6v12h-6Z" transform="translate(9, 12)"></path>
    </g>
    <path fill="none" d="M0,0h24v24h-24Z"></path>
</svg>
