<?xml version="1.0" encoding="UTF-8" standalone="no"?>
<svg version="1.1" viewBox="0 0 24 24" xmlns="http://www.w3.org/2000/svg" xmlns:xlink="http://www.w3.org/1999/xlink">
    <!--Generated by IJSVG (https://github.com/curthard89/IJSVG)-->
    <g >
        <path d="M13.514,12.1l10.294,-10.295c0.391,-0.391 0.391,-1.023 0,-1.414c-0.391,-0.391 -1.023,-0.391 -1.414,0l-10.294,10.295l-10.294,-10.294c-0.391,-0.391 -1.023,-0.391 -1.414,3.88578e-16c-0.392,0.392 -0.392,1.024 -0.001,1.415l10.294,10.293l-10.291,10.292c-0.391,0.391 -0.391,1.024 -1.11022e-16,1.414c0.392,0.392 1.024,0.392 1.415,0.001l10.291,-10.293l10.293,10.292c0.391,0.391 1.023,0.391 1.414,0c0.391,-0.391 0.391,-1.023 0,-1.414l-10.293,-10.292Z" transform="translate(-0.1, -0.098)"></path>
    </g>
    <path fill="none" d="M0,0h24v24h-24Z"></path>
</svg>
