<?xml version="1.0" encoding="UTF-8" standalone="no"?>
<svg version="1.1" viewBox="0 0 24 24" xmlns="http://www.w3.org/2000/svg" xmlns:xlink="http://www.w3.org/1999/xlink">
    <!--Generated by IJSVG (https://github.com/curthard89/IJSVG)-->
    <g >
        <path d="M23.903,18.697l-6.646,-6.645l6.649,-6.65c0.196,-0.195 0.196,-0.512 0,-0.707l-4.499,-4.5c-0.195,-0.195 -0.512,-0.195 -0.707,-2.77556e-16l-6.65,6.65l-6.648,-6.646c-0.195,-0.196 -0.512,-0.196 -0.707,3.60822e-16l-4.5,4.499c-0.195,0.195 -0.195,0.512 -2.77556e-16,0.707l6.648,6.647l-6.642,6.643c-0.195,0.195 -0.195,0.512 -2.77556e-16,0.707l4.501,4.5c0.005,0.006 0.009,0.012 0.014,0.014c0.195,0.195 0.497,0.182 0.693,-0.014l6.642,-6.643l6.645,6.646c0.195,0.195 0.512,0.195 0.707,0l4.5,-4.501c0.006,-0.005 0.012,-0.009 0.014,-0.014c0.194,-0.195 0.181,-0.497 -0.014,-0.693Z" transform="translate(-0.049, -0.052)"></path>
    </g>
    <path fill="none" d="M0,0h24v24h-24Z"></path>
</svg>
