<?xml version="1.0" encoding="UTF-8" standalone="no"?>
<svg version="1.1" viewBox="0 0 24 24" xmlns="http://www.w3.org/2000/svg" xmlns:xlink="http://www.w3.org/1999/xlink">
    <!--Generated by IJSVG (https://github.com/curthard89/IJSVG)-->
    <path  d="M9,18c2.131,0 4.089,-0.749 5.633,-1.992l7.658,7.697c0.389,0.392 1.021,0.393 1.414,0.003c0.392,-0.39 0.393,-1.023 0.004,-1.414l-7.668,-7.706c1.223,-1.536 1.959,-3.477 1.959,-5.588c0,-4.963 -4.037,-9 -9,-9c-4.963,0 -9,4.037 -9,9c0,4.962 4.037,9 9,9Zm0,-16c3.859,0 7,3.14 7,7c0,3.859 -3.141,7 -7,7c-3.86,0 -7,-3.141 -7,-7c0,-3.86 3.14,-7 7,-7Z"></path>
    <path fill="none" d="M0,0h24v24h-24Z"></path>
</svg>
