<?xml version="1.0" encoding="UTF-8" standalone="no"?>
<svg version="1.1" viewBox="0 0 24 24" xmlns="http://www.w3.org/2000/svg" xmlns:xlink="http://www.w3.org/1999/xlink">
    <!--Generated by IJSVG (https://github.com/curthard89/IJSVG)-->
    <g >
        <path d="M13.489,0.094c-0.314,0 -0.653,0.046 -1.007,0.136c-0.988,0.25 -2.102,1.182 -3.28,2.167c-0.74,0.62 -1.505,1.26 -2.142,1.623c-0.704,0.4 -1.347,0.388 -1.634,-0.138c-1.344,-2.466 -2.842,-3.882 -4.111,-3.882c-0.407,0 -0.76,0.151 -1.022,0.438c-0.288,0.314 -0.293,0.79 -0.013,1.107c1.37,1.546 1.391,4.081 1.301,5.344l5.508,3.395l8.139,-8.139c0.256,-0.256 0.318,-0.651 0.161,-1.03c-0.205,-0.493 -0.811,-1.021 -1.9,-1.021Z" transform="translate(4.426, 12.78)"></path>
        <path d="M0,3.367h7.993l0.203,-0.202l-5.136,-3.165Z" transform="translate(2.593, 20.627)"></path>
        <path d="M23.417,11h-1.5c0,-5.514 -4.486,-10 -10,-10v-0.5c0,-0.276 -0.224,-0.5 -0.5,-0.5c-0.276,0 -0.5,0.224 -0.5,0.5v0.551c-5.046,0.504 -9,4.773 -9,9.949h-1.417c-0.276,0 -0.5,0.224 -0.5,0.5c0,0.276 0.224,0.5 0.5,0.5h1.942h18.949h2.026c0.276,0 0.5,-0.224 0.5,-0.5c0,-0.276 -0.224,-0.5 -0.5,-0.5Zm-11.5,-6.5c-2.896,0 -5.432,1.852 -6.313,4.607c-0.067,0.213 -0.264,0.348 -0.476,0.348c-0.05,0 -0.102,-0.007 -0.152,-0.023c-0.263,-0.084 -0.408,-0.365 -0.324,-0.629c1.013,-3.172 3.933,-5.303 7.265,-5.303c0.276,4.44089e-16 0.5,0.224 0.5,0.5c0,0.277 -0.224,0.5 -0.5,0.5Z" transform="translate(0.083, -0.006)"></path>
    </g>
    <path fill="none" d="M0,0h24v24h-24Z"></path>
</svg>
