<?xml version="1.0" encoding="UTF-8" standalone="no"?>
<svg version="1.1" viewBox="0 0 24 24" xmlns="http://www.w3.org/2000/svg" xmlns:xlink="http://www.w3.org/1999/xlink">
    <!--Generated by IJSVG (https://github.com/curthard89/IJSVG)-->
    <g fill="none" stroke-linecap="round" stroke-linejoin="round" stroke-width="1">
        <g fill="none" stroke-linejoin="round" stroke-width="1">
            <path d="M1.448,7.75c0,0 0.723,-4.213 -1.336,-6.535c-0.112,-0.127 -0.106,-0.313 0.008,-0.438c0.71,-0.777 2.513,0.021 4.325,3.346c0.474,0.867 1.462,0.822 2.32,0.332c1.632,-0.932 3.801,-3.359 5.297,-3.739c1.969,-0.5 2.648,0.7 2.27,1.079l-8.589,8.588l-4.295,-2.633Z" transform="translate(4.969, 11.785)"></path>
        </g>
        <path d="M6.566,3.965l1.332,-1.333l-4.295,-2.632l-3.603,3.965Z" transform="translate(2.814, 19.535)"></path>
        <path d="M22.92,0h-22.92" transform="translate(0.58, 11.5)"></path>
        <path d="M18.975,10c0.009,-0.167 0.025,-0.331 0.025,-0.5c0,-5.247 -4.253,-9.5 -9.5,-9.5c-5.247,0 -9.5,4.253 -9.5,9.5c0,0.169 0.017,0.333 0.025,0.5h18.95Z" transform="translate(2.5, 1.5)"></path>
        <path d="M6.789,0c-3.179,0 -5.871,2.081 -6.789,4.955" transform="translate(5.211, 4)"></path>
        <path d="M0,1v-1" transform="translate(11.5, 0.5)"></path>
    </g>
    <path fill="none" d="M0,0h24v24h-24Z"></path>
</svg>
