<?xml version="1.0" encoding="UTF-8" standalone="no"?>
<svg version="1.1" viewBox="0 0 24 24" xmlns="http://www.w3.org/2000/svg" xmlns:xlink="http://www.w3.org/1999/xlink">
    <!--Generated by IJSVG (https://github.com/curthard89/IJSVG)-->
    <path  d="M22.5,0h-21c-0.827,0 -1.5,0.673 -1.5,1.5v20c0,0.827 0.673,1.5 1.5,1.5h21c0.827,0 1.5,-0.673 1.5,-1.5v-20c0,-0.827 -0.673,-1.5 -1.5,-1.5Zm-1.979,18h-8.071c-0.232,1.14 -1.242,2 -2.449,2c-1.207,0 -2.217,-0.86 -2.449,-2h-4.032c-0.276,0 -0.5,-0.224 -0.5,-0.5c0,-0.276 0.224,-0.5 0.5,-0.5h4.03c0.232,-1.14 1.242,-2 2.449,-2c1.207,0 2.217,0.86 2.449,2h8.071c0.276,0 0.5,0.224 0.5,0.5c0,0.276 -0.222,0.5 -0.498,0.5Zm0,-6h-10.072c-0.232,1.14 -1.242,2 -2.449,2c-1.207,0 -2.217,-0.86 -2.449,-2h-2.031c-0.276,0 -0.5,-0.224 -0.5,-0.5c0,-0.276 0.224,-0.5 0.5,-0.5h2.03c0.233,-1.14 1.243,-2 2.45,-2c1.207,0 2.217,0.86 2.449,2h10.071c0.276,0 0.5,0.224 0.5,0.5c0,0.276 -0.223,0.5 -0.499,0.5Zm0,-6h-6.071c-0.233,1.14 -1.243,2 -2.45,2c-1.207,0 -2.217,-0.86 -2.449,-2h-6.031c-0.276,0 -0.5,-0.224 -0.5,-0.5c0,-0.276 0.224,-0.5 0.5,-0.5h6.03c0.233,-1.14 1.243,-2 2.45,-2c1.207,0 2.217,0.86 2.449,2h6.071c0.276,0 0.5,0.224 0.5,0.5c0,0.276 -0.223,0.5 -0.499,0.5Z"></path>
    <path fill="none" d="M0,0h24v24h-24Z"></path>
</svg>
