<?xml version="1.0" encoding="UTF-8" standalone="no"?>
<svg version="1.1" viewBox="0 0 24 24" xmlns="http://www.w3.org/2000/svg" xmlns:xlink="http://www.w3.org/1999/xlink">
    <!--Generated by IJSVG (https://github.com/curthard89/IJSVG)-->
    <g fill="none" stroke-linecap="round" stroke-linejoin="round" stroke-width="1">
        <path d="M23,21c0,0.552 -0.447,1 -1,1h-21c-0.553,0 -1,-0.448 -1,-1v-20c0,-0.552 0.447,-1 1,-1h21c0.553,0 1,0.448 1,1v20Z" transform="translate(0.5, 0.5)"></path>
        <path d="M3.60948,0.781049c0.781049,0.781049 0.781049,2.04738 0,2.82843c-0.781049,0.781049 -2.04738,0.781049 -2.82843,0c-0.781049,-0.781049 -0.781049,-2.04738 0,-2.82843c0.781049,-0.781049 2.04738,-0.781049 2.82843,-8.88178e-16" transform="translate(9.80474, 3.30474)"></path>
        <path d="M0,0h6.52" transform="translate(14, 5.5)"></path>
        <path d="M0,0h6.48" transform="translate(3.52, 5.5)"></path>
        <path d="M3.60948,0.781049c0.781049,0.781049 0.781049,2.04738 0,2.82843c-0.781049,0.781049 -2.04738,0.781049 -2.82843,0c-0.781049,-0.781049 -0.781049,-2.04738 -8.88178e-16,-2.82843c0.781049,-0.781049 2.04738,-0.781049 2.82843,0" transform="translate(5.80474, 9.30474)"></path>
        <path d="M0,0h10.52" transform="translate(10, 11.5)"></path>
        <path d="M0,0h2.48" transform="translate(3.52, 11.5)"></path>
        <path d="M3.60948,0.781049c0.781049,0.781049 0.781049,2.04738 0,2.82843c-0.781049,0.781049 -2.04738,0.781049 -2.82843,0c-0.781049,-0.781049 -0.781049,-2.04738 0,-2.82843c0.781049,-0.781049 2.04738,-0.781049 2.82843,0" transform="translate(7.80474, 15.3047)"></path>
        <path d="M0,0h8.52" transform="translate(12, 17.5)"></path>
        <path d="M0,0h4.48" transform="translate(3.52, 17.5)"></path>
    </g>
</svg>
