<?xml version="1.0" encoding="UTF-8" standalone="no"?>
<svg version="1.1" viewBox="0 0 24 24" xmlns="http://www.w3.org/2000/svg" xmlns:xlink="http://www.w3.org/1999/xlink">
    <!--Generated by IJSVG (https://github.com/curthard89/IJSVG)-->
    <g fill="none" stroke-linecap="round" stroke-linejoin="round" stroke-width="1">
        <path d="M12.6332,2.73367c2.73367,2.73367 2.73367,7.16582 0,9.89949c-2.73367,2.73367 -7.16582,2.73367 -9.89949,1.77636e-15c-2.73367,-2.73367 -2.73367,-7.16582 -1.77636e-15,-9.89949c2.73367,-2.73367 7.16582,-2.73367 9.89949,-1.77636e-15" transform="translate(8.81658, -0.182418)"></path>
        <path d="M0,0v3l3.5,3" transform="translate(16.5, 4.501)"></path>
        <g fill="none" stroke-linejoin="round" stroke-width="1">
            <path d="M0,0h4v7h-4Z" transform="translate(0.5, 16.5)"></path>
            <path stroke-linecap="round" d="M0,3h17c0,-1.5 -3.5,-3 -7.5,-3h-7" transform="translate(4.5, 19.5)"></path>
            <path d="M0,0h3.5c2.353,0 3.5,1.5 4,2" transform="translate(4.5, 17.5)"></path>
        </g>
    </g>
    <path fill="none" d="M0,0h24v24h-24Z"></path>
</svg>
