<?xml version="1.0" encoding="UTF-8" standalone="no"?>
<svg version="1.1" viewBox="0 0 24 24" xmlns="http://www.w3.org/2000/svg" xmlns:xlink="http://www.w3.org/1999/xlink">
    <!--Generated by IJSVG (https://github.com/curthard89/IJSVG)-->
    <g >
        <path d="M5.5,2h-2c-0.276,0 -0.5,0.224 -0.5,0.5c0,0.276 0.224,0.5 0.5,0.5h8.442c2.28,0.59 4.058,1.162 4.058,2.5c0,0.276 -0.225,0.5 -0.5,0.5h-15c-0.276,0 -0.5,-0.224 -0.5,-0.5v-5c0,-0.276 0.224,-0.5 0.5,-0.5h1.688c1.516,0 3.096,1.151 3.297,1.297c0.201,0.146 0.953,0.75 0.015,0.703Z" transform="translate(6, 17)"></path>
        <path d="M4.5,0h-4c-0.276,0 -0.5,0.224 -0.5,0.5v7c0,0.276 0.224,0.5 0.5,0.5h4c0.275,0 0.5,-0.224 0.5,-0.5v-7c0,-0.276 -0.225,-0.5 -0.5,-0.5Z" transform="translate(0, 16)"></path>
        <path d="M7.5,0c-4.136,0 -7.5,3.364 -7.5,7.5c0,4.136 3.364,7.5 7.5,7.5c4.136,0 7.5,-3.364 7.5,-7.5c0,-4.136 -3.364,-7.5 -7.5,-7.5Zm3.879,10.824c-0.18,0.21 -0.495,0.234 -0.705,0.054l-3.5,-3c-0.11,-0.094 -0.174,-0.233 -0.174,-0.379v-3c0,-0.276 0.224,-0.5 0.5,-0.5c0.276,0 0.5,0.224 0.5,0.5v2.77l3.325,2.851c0.211,0.18 0.234,0.495 0.054,0.704Z" transform="translate(9, 0.001)"></path>
    </g>
    <path fill="none" d="M0,0h24v24h-24Z"></path>
</svg>
