<?xml version="1.0" encoding="UTF-8" standalone="no"?>
<svg version="1.1" viewBox="0 0 24 24" xmlns="http://www.w3.org/2000/svg" xmlns:xlink="http://www.w3.org/1999/xlink">
    <!--Generated by IJSVG (https://github.com/curthard89/IJSVG)-->
    <g fill="none" stroke-linecap="round" stroke-linejoin="round" stroke-width="1">
        <path transform="translate(3.85355, 18.3536)" d="M2.70711,0.585786c0.585786,0.585786 0.585786,1.53553 0,2.12132c-0.585786,0.585786 -1.53553,0.585786 -2.12132,0c-0.585786,-0.585786 -0.585786,-1.53553 0,-2.12132c0.585786,-0.585786 1.53553,-0.585786 2.12132,0"></path>
        <path transform="translate(14.8536, 18.3536)" d="M2.70711,0.585786c0.585786,0.585786 0.585786,1.53553 0,2.12132c-0.585786,0.585786 -1.53553,0.585786 -2.12132,0c-0.585786,-0.585786 -0.585786,-1.53553 0,-2.12132c0.585786,-0.585786 1.53553,-0.585786 2.12132,0"></path>
        <path d="M18,0h-3l-4,17h-11" transform="translate(5.5, 1.5)"></path>
        <path d="M16,9h-13l-3,-9h18.062" transform="translate(1, 7.5)"></path>
        <path d="M0,4l4,-4l4.078,4" transform="translate(11, 3.5)"></path>
        <path d="M5.5,6.689l-3,-6.689l-2.5,1.189l2.5,5.5" transform="translate(0.5, 0.811)"></path>
        <path d="M0,3v-3h4.5" transform="translate(9.5, 4.5)"></path>
    </g>
    <path fill="none" d="M0,0h24v24h-24Z"></path>
</svg>
