<?xml version="1.0" encoding="UTF-8" standalone="no"?>
<svg version="1.1" viewBox="0 0 24 24" xmlns="http://www.w3.org/2000/svg" xmlns:xlink="http://www.w3.org/1999/xlink">
    <!--Generated by IJSVG (https://github.com/curthard89/IJSVG)-->
    <g >
        <path d="M23.569,0.76h-3c-0.232,0 -0.434,0.16 -0.487,0.386l-1.21,5.142l-3.453,-3.384c-0.195,-0.192 -0.51,-0.191 -0.703,0.004l-0.854,0.852h-4.293c-0.276,0 -0.5,0.224 -0.5,0.5v2.5h-2.677l-2.867,-6.394c-0.117,-0.258 -0.421,-0.366 -0.671,-0.247l-2.5,1.189c-0.246,0.117 -0.354,0.41 -0.24,0.659l2.178,4.793h-1.223c-0.344,0 -0.582,0.335 -0.475,0.659l3,9c0.069,0.203 0.259,0.341 0.475,0.341h12.339l-0.235,1h-10.604c-1.103,0 -2,0.898 -2,2c0,1.104 0.897,2 2,2c1.498,0 2.521,-1.625 1.722,-3h7.556c-0.791,1.362 0.211,3 1.723,3c1.103,0 2,-0.896 2,-2c0,-0.89 -0.588,-1.637 -1.394,-1.896l3.789,-16.104h2.604c0.275,-1.55431e-15 0.5,-0.224 0.5,-0.5c0,-0.276 -0.225,-0.5 -0.5,-0.5Zm-20.179,6l-2.163,-4.759l1.595,-0.759l2.474,5.518h-1.906Zm6.679,0v-2h2.793l-2,2h-0.793Zm2.207,0l2.796,-2.796l2.854,2.796h-5.65Z" transform="translate(-0.069, 0.24)"></path>
    </g>
    <path fill="none" d="M0,0h24v24h-24Z"></path>
</svg>
