<?xml version="1.0" encoding="UTF-8" standalone="no"?>
<svg version="1.1" viewBox="0 0 24 24" xmlns="http://www.w3.org/2000/svg" xmlns:xlink="http://www.w3.org/1999/xlink">
    <!--Generated by IJSVG (https://github.com/curthard89/IJSVG)-->
    <g fill="none" stroke-linecap="round" stroke-linejoin="round" stroke-width="1">
        <path d="M15,21c0,1.104 -0.896,2 -2,2h-11c-1.104,0 -2,-0.896 -2,-2v-19c0,-1.104 0.896,-2 2,-2h11c1.104,0 2,0.896 2,2v19Z" transform="translate(4.5, 0.5)"></path>
        <path transform="translate(4.5, 4.5)" d="M15,0h-15"></path>
        <path transform="translate(4.5, 19.5)" d="M15,0h-15"></path>
        <path d="M0,0h5" transform="translate(9.5, 2.5)"></path>
        <path d="M0.902369,0.195262c0.195262,0.195262 0.195262,0.511845 0,0.707107c-0.195262,0.195262 -0.511845,0.195262 -0.707107,0c-0.195262,-0.195262 -0.195262,-0.511845 0,-0.707107c0.195262,-0.195262 0.511845,-0.195262 0.707107,0" transform="translate(11.4512, 20.9512)"></path>
    </g>
    <path fill="none" d="M0,0h24v24h-24Z"></path>
</svg>
