<?xml version="1.0" encoding="UTF-8" standalone="no"?>
<svg version="1.1" viewBox="0 0 24 24" xmlns="http://www.w3.org/2000/svg" xmlns:xlink="http://www.w3.org/1999/xlink">
    <!--Generated by IJSVG (https://github.com/curthard89/IJSVG)-->
    <g >
        <path d="M11.5,0h-9c-1.379,0 -2.5,1.122 -2.5,2.5v19c0,1.378 1.121,2.5 2.5,2.5h9c1.378,0 2.5,-1.122 2.5,-2.5v-19c0,-1.378 -1.122,-2.5 -2.5,-2.5Zm-7,2h5c0.276,0 0.5,0.224 0.5,0.5c0,0.276 -0.224,0.5 -0.5,0.5h-5c-0.276,0 -0.5,-0.224 -0.5,-0.5c0,-0.276 0.224,-0.5 0.5,-0.5Zm2.5,20.5c-0.552,0 -1,-0.448 -1,-1c0,-0.553 0.448,-1 1,-1c0.553,0 1,0.447 1,1c0,0.552 -0.447,1 -1,1Zm6,-3.5h-12v-14h12v14Z" transform="translate(5, 0)"></path>
    </g>
    <path fill="none" d="M0,0h24v24h-24Z"></path>
</svg>
