<?xml version="1.0" encoding="UTF-8" standalone="no"?>
<svg version="1.1" viewBox="0 0 24 24" xmlns="http://www.w3.org/2000/svg" xmlns:xlink="http://www.w3.org/1999/xlink">
    <!--Generated by IJSVG (https://github.com/curthard89/IJSVG)-->
    <g >
        <path d="M13.639,0c-5.245,0 -9.591,3.869 -10.365,8.9l-1.303,-1.955c-0.306,-0.46 -0.926,-0.584 -1.387,-0.277c-0.46,0.307 -0.584,0.927 -0.277,1.387l3.08,4.604c0.363,0.416 0.995,0.458 1.41,0.094l3.595,-4.094c0.363,-0.415 0.321,-1.047 -0.095,-1.411c-0.414,-0.365 -1.047,-0.324 -1.411,0.094l-1.64,1.873c0.624,-4.077 4.144,-7.215 8.393,-7.215c4.687,0 8.5,3.813 8.5,8.5c0,4.687 -3.813,8.5 -8.5,8.5c-3.298,0 -6.326,-1.934 -7.715,-4.926c-0.233,-0.5 -0.826,-0.719 -1.328,-0.486c-0.501,0.232 -0.719,0.827 -0.486,1.328c1.716,3.696 5.456,6.084 9.529,6.084c5.79,0 10.5,-4.71 10.5,-10.5c0,-5.79 -4.71,-10.5 -10.5,-10.5Z" transform="translate(-0.139, 1)"></path>
    </g>
    <path fill="none" d="M0,0h24v24h-24Z"></path>
</svg>
