<?xml version="1.0" encoding="UTF-8" standalone="no"?>
<svg version="1.1" viewBox="0 0 24 24" xmlns="http://www.w3.org/2000/svg" xmlns:xlink="http://www.w3.org/1999/xlink">
    <!--Generated by IJSVG (https://github.com/curthard89/IJSVG)-->
    <g fill="none" stroke-linecap="round" stroke-linejoin="round" stroke-width="1">
        <path d="M23,10.5c-1.657,0 -3,-1.343 -3,-3c0,-1.656 1.343,-3 3,-3v-4.5h-23v4.5c1.656,0 3,1.344 3,3c0,1.657 -1.344,3 -3,3v4.5h23v-4.5Z" transform="translate(0.5, 4.5)"></path>
        <g >
            <path transform="translate(18, 6)" d="M1,0h-1v1h1v-1Z"></path>
            <path transform="translate(18, 8)" d="M1,0h-1v1h1v-1Z"></path>
            <path transform="translate(18, 10)" d="M1,0h-1v1h1v-1Z"></path>
            <path transform="translate(18, 12)" d="M1,0h-1v1h1v-1Z"></path>
            <path transform="translate(18, 14)" d="M1,0h-1v1h1v-1Z"></path>
            <path transform="translate(18, 16)" d="M1,0h-1v1h1v-1Z"></path>
            <path transform="translate(18, 18)" d="M1,0h-1v1h1v-1Z"></path>
        </g>
        <path d="M0,0h9v9h-9Z" transform="translate(6.5, 7.5)"></path>
        <path transform="translate(9.5, 10.5)" d="M0,0h3"></path>
        <path transform="translate(9.5, 13.5)" d="M0,0h3"></path>
    </g>
    <path fill="none" d="M0,0h24v24h-24Z"></path>
</svg>
