<?xml version="1.0" encoding="UTF-8" standalone="no"?>
<svg version="1.1" viewBox="0 0 24 24" xmlns="http://www.w3.org/2000/svg" xmlns:xlink="http://www.w3.org/1999/xlink">
    <!--Generated by IJSVG (https://github.com/curthard89/IJSVG)-->
    <g >
        <path d="M0,8h8v-8h-8v8Zm2.5,-6h3c0.275,0 0.5,0.224 0.5,0.5c0,0.276 -0.225,0.5 -0.5,0.5h-3c-0.276,0 -0.5,-0.224 -0.5,-0.5c0,-0.276 0.224,-0.5 0.5,-0.5Zm0,3h3c0.275,0 0.5,0.224 0.5,0.5c0,0.276 -0.225,0.5 -0.5,0.5h-3c-0.276,0 -0.5,-0.224 -0.5,-0.5c0,-0.276 0.224,-0.5 0.5,-0.5Z" transform="translate(7, 8)"></path>
        <path d="M23.5,5.5c0.275,0 0.5,-0.224 0.5,-0.5v-4.5c0,-0.276 -0.225,-0.5 -0.5,-0.5h-23c-0.276,0 -0.5,0.224 -0.5,0.5v4.5c0,0.276 0.224,0.5 0.5,0.5c1.378,0 2.5,1.121 2.5,2.5c0,1.378 -1.122,2.5 -2.5,2.5c-0.276,0 -0.5,0.224 -0.5,0.5v4.5c0,0.276 0.224,0.5 0.5,0.5h23c0.275,0 0.5,-0.224 0.5,-0.5v-4.5c0,-0.276 -0.225,-0.5 -0.5,-0.5c-1.379,0 -2.5,-1.122 -2.5,-2.5c0,-1.379 1.121,-2.5 2.5,-2.5Zm-7.5,7c0,0.276 -0.225,0.5 -0.5,0.5h-9c-0.276,0 -0.5,-0.224 -0.5,-0.5v-9c0,-0.276 0.224,-0.5 0.5,-0.5h9c0.275,0 0.5,0.224 0.5,0.5v9Zm3,2.5h-1v-1h1v1Zm0,-2h-1v-1h1v1Zm0,-2h-1v-1h1v1Zm0,-2h-1v-1h1v1Zm0,-2h-1v-1h1v1Zm0,-2h-1v-1h1v1Zm0,-2h-1v-1h1v1Z" transform="translate(0, 4)"></path>
    </g>
    <path fill="none" d="M0,0h24v24h-24Z"></path>
</svg>
