<?xml version="1.0" encoding="UTF-8" standalone="no"?>
<svg version="1.1" viewBox="0 0 24 24" xmlns="http://www.w3.org/2000/svg" xmlns:xlink="http://www.w3.org/1999/xlink">
    <!--Generated by IJSVG (https://github.com/curthard89/IJSVG)-->
    <g >
            <rect x="0" y="0" width="4.61538462" height="4.61538462" rx="1"></rect>
            <rect x="6.46153846" y="0" width="4.61538462" height="4.61538462" rx="1"></rect>
            <rect x="12.9230769" y="0" width="4.61538462" height="4.61538462" rx="1"></rect>
            <rect x="19.3846154" y="0" width="4.61538462" height="4.61538462" rx="1"></rect>
            <rect x="0" y="6.46153846" width="4.61538462" height="4.61538462" rx="1"></rect>
            <rect x="6.46153846" y="6.46153846" width="4.61538462" height="4.61538462" rx="1"></rect>
            <rect x="12.9230769" y="6.46153846" width="4.61538462" height="4.61538462" rx="1"></rect>
            <rect x="19.3846154" y="6.46153846" width="4.61538462" height="4.61538462" rx="1"></rect>
            <rect x="0" y="12.9230769" width="4.61538462" height="4.61538462" rx="1"></rect>
            <rect x="6.46153846" y="12.9230769" width="4.61538462" height="4.61538462" rx="1"></rect>
            <rect x="12.9230769" y="12.9230769" width="4.61538462" height="4.61538462" rx="1"></rect>
            <rect x="19.3846154" y="12.9230769" width="4.61538462" height="4.61538462" rx="1"></rect>
            <rect x="0" y="19.3846154" width="4.61538462" height="4.61538462" rx="1"></rect>
            <rect x="6.46153846" y="19.3846154" width="4.61538462" height="4.61538462" rx="1"></rect>
            <rect x="12.9230769" y="19.3846154" width="4.61538462" height="4.61538462" rx="1"></rect>
            <rect x="19.3846154" y="19.3846154" width="4.61538462" height="4.61538462" rx="1"></rect>
    </g>
    <path fill="none" d="M0,0h24v24h-24Z"></path>
</svg>
