<?xml version="1.0" encoding="UTF-8" standalone="no"?>
<svg version="1.1" viewBox="0 0 24 24" xmlns="http://www.w3.org/2000/svg" xmlns:xlink="http://www.w3.org/1999/xlink">
    <!--Generated by IJSVG (https://github.com/curthard89/IJSVG)-->
    <g >
        <path d="M22.5,3h-7v-2.5c0,-0.275 -0.224,-0.5 -0.5,-0.5h-8c-0.276,0 -0.5,0.225 -0.5,0.5v2.5h-6c-0.276,0 -0.5,0.225 -0.5,0.5c0,0.276 0.224,0.5 0.5,0.5h2v19.5c0,0.277 0.224,0.5 0.5,0.5h16c0.276,0 0.5,-0.224 0.5,-0.5v-19.5h3c0.276,0 0.5,-0.224 0.5,-0.5c0,-0.275 -0.224,-0.5 -0.5,-0.5Zm-15,15.5c0,0.277 -0.224,0.5 -0.5,0.5c-0.276,0 -0.5,-0.223 -0.5,-0.5v-11c0,-0.275 0.224,-0.5 0.5,-0.5c0.276,0 0.5,0.225 0.5,0.501v10.999Zm0,-17.5h7v2h-7v-2Zm4,17.5c0,0.276 -0.224,0.5 -0.5,0.5c-0.276,0 -0.5,-0.223 -0.5,-0.5v-11c0,-0.275 0.224,-0.5 0.5,-0.5c0.276,0 0.5,0.225 0.5,0.5v11Zm4,0c0,0.276 -0.224,0.5 -0.5,0.5c-0.276,0 -0.5,-0.223 -0.5,-0.5v-11c0,-0.275 0.224,-0.5 0.5,-0.5c0.276,0 0.5,0.225 0.5,0.5v11Z" transform="translate(0.5, 0)"></path>
    </g>
    <path fill="none" d="M0,0h24v24h-24Z"></path>
</svg>
