<?xml version="1.0" encoding="UTF-8" standalone="no"?>
<svg version="1.1" viewBox="0 0 24 24" xmlns="http://www.w3.org/2000/svg" xmlns:xlink="http://www.w3.org/1999/xlink">
    <!--Generated by IJSVG (https://github.com/curthard89/IJSVG)-->
    <g >
        <path d="M23.115,7.134c0,-0.552 -0.447,-1 -1,-1c-0.553,0 -1,0.448 -1,1v3.334l-5.251,-6.016c-0.359,-0.407 -0.974,-0.453 -1.391,-0.106l-5.256,4.38l-7.356,-8.277c-0.367,-0.412 -0.999,-0.449 -1.411,-0.082c-0.413,0.367 -0.45,0.999 -0.083,1.412l8,9c0.358,0.403 0.972,0.448 1.388,0.103l5.253,-4.377l4.828,5.609h-4.722c-0.553,0 -1,0.448 -1,1c0,0.552 0.447,1 1,1h7.001c0.543,0 0.98,-0.463 0.994,-0.97c0,-0.011 0.006,-0.02 0.006,-0.03v-5.98Z" transform="translate(-0.115, 3.89)"></path>
    </g>
    <path fill="none" d="M0,0h24v24h-24Z"></path>
</svg>
