<?xml version="1.0" encoding="UTF-8" standalone="no"?>
<svg version="1.1" viewBox="0 0 24 24" xmlns="http://www.w3.org/2000/svg" xmlns:xlink="http://www.w3.org/1999/xlink">
    <!--Generated by IJSVG (https://github.com/curthard89/IJSVG)-->
    <g >
        <path d="M23.108,0.97c-0.015,-0.58 -0.535,-0.97 -0.994,-0.97h-6.97c-0.553,0 -1,0.448 -1,1c0,0.552 0.447,1 1,1h4.722l-4.859,5.578l-5.253,-4.377c-0.416,-0.345 -1.029,-0.3 -1.388,0.103l-7.999,8.997c-0.367,0.413 -0.33,1.045 0.083,1.413c0.412,0.366 1.041,0.329 1.408,-0.081l7.358,-8.275l5.256,4.379c0.416,0.347 1.032,0.302 1.391,-0.105l5.251,-5.987v3.334c0,0.553 0.447,1 1,1c0.553,0 1,-0.447 1,-1v-5.979c0,-0.011 -0.006,-0.019 -0.006,-0.03Z" transform="translate(-0.114, 6.035)"></path>
    </g>
    <path fill="none" d="M0,0h24v24h-24Z"></path>
</svg>
