<?xml version="1.0" encoding="UTF-8" standalone="no"?>
<svg version="1.1" viewBox="0 0 24 24" xmlns="http://www.w3.org/2000/svg" xmlns:xlink="http://www.w3.org/1999/xlink">
    <!--Generated by IJSVG (https://github.com/curthard89/IJSVG)-->
    <g fill="none" stroke-linejoin="round" stroke-width="1">
        <path stroke-linecap="round" d="M0,0h6" transform="translate(8.5, 21.5)"></path>
        <path stroke-linecap="round" d="M0,0v2" transform="translate(11.5, 19.5)"></path>
        <path d="M0,0h16" transform="translate(3.5, 17.5)"></path>
        <path stroke-linecap="round" d="M0,0v12" transform="translate(11.5, 0.5)"></path>
        <path stroke-linecap="round" d="M8,4l-4,-4l-4,4" transform="translate(7.5, 0.5)"></path>
        <path stroke-linecap="round" d="M11,0h3.5c0.827,0 1.5,0.672 1.5,1.5v7c0,0.828 -0.673,1.5 -1.5,1.5h-13c-0.83,0 -1.5,-0.672 -1.5,-1.5v-7c0,-0.828 0.67,-1.5 1.5,-1.5h3.5" transform="translate(3.5, 9.5)"></path>
    </g>
    <path fill="none" d="M0,0h24v24h-24Z"></path>
</svg>
