<?xml version="1.0" encoding="UTF-8" standalone="no"?>
<svg version="1.1" viewBox="0 0 24 24" xmlns="http://www.w3.org/2000/svg" xmlns:xlink="http://www.w3.org/1999/xlink">
    <!--Generated by IJSVG (https://github.com/curthard89/IJSVG)-->
    <g >
        <path d="M11.533,0h-6c-3.162,0 -5.533,2.899 -4.898,6.006c2.27,0.048 4.201,1.693 4.977,3.994h0.921v2.5c0,0.448 0.543,0.665 0.854,0.354l2.853,-2.854h1.293c2.762,0 5,-2.238 5,-5c0,-2.762 -2.238,-5 -5,-5Zm-5,6h-1v-1h1v1Zm3,0h-1v-1h1v1Zm3,0h-1v-1h1v1Z" transform="translate(7.467, 0)"></path>
        <g >
            <path d="M1.854,4.344c0.981,0 2.186,-0.599 2.528,-1.256c0.19,-0.367 0.692,-0.34 0.878,-0.018c0.87,1.521 1.715,1.562 3.307,1.025c-0.444,-2.339 -2.215,-4.095 -4.334,-4.095c-1.999,0 -3.675,1.572 -4.233,3.714c0.957,0.613 1.372,0.63 1.854,0.63Z" transform="translate(3.767, 7)"></path>
            <path d="M14.11,8.134l-3.61,-1.293v-1.46c1.186,-0.964 1.966,-2.593 1.936,-4.441c-0.554,0.229 -1.309,0.295 -1.553,0.295c-0.948,0 -1.694,-0.398 -2.327,-1.235c-0.707,0.683 -1.871,1.17 -2.935,1.17c-0.642,0 -1.191,-0.105 -2.028,-0.58c-0.178,2.037 0.653,3.781 1.907,4.789v1.463l-3.61,1.293c-1.13,0.404 -1.89,1.49 -1.89,2.702v1.488c0,0.276 0.224,0.5 0.5,0.5h15c0.276,0 0.5,-0.224 0.5,-0.5v-1.488c0,-1.212 -0.759,-2.298 -1.89,-2.703Z" transform="translate(0, 11.175)"></path>
        </g>
    </g>
    <path fill="none" d="M0,0h24v24h-24Z"></path>
</svg>
