<?xml version="1.0" encoding="UTF-8" standalone="no"?>
<svg version="1.1" viewBox="0 0 24 24" xmlns="http://www.w3.org/2000/svg" xmlns:xlink="http://www.w3.org/1999/xlink">
    <!--Generated by IJSVG (https://github.com/curthard89/IJSVG)-->
    <g >
        <path d="M2.182,5.5c1.308,0 2.861,-0.776 3.322,-1.661c0.084,-0.162 0.251,-0.265 0.434,-0.269c0.226,0.014 0.353,0.093 0.444,0.252c0.853,1.494 1.755,1.967 3.206,1.687c0.032,-0.007 0.543,-0.134 1.113,-0.275c-0.5,-2.98 -2.728,-5.234 -5.394,-5.234c-2.54,0 -4.678,2.049 -5.307,4.819c0.903,0.556 1.546,0.681 2.182,0.681Z" transform="translate(6.693, 1.5)"></path>
        <path d="M4.527,0.921c-0.183,2.784 0.97,4.907 2.473,6.069v2.206l-4.678,1.671c-1.389,0.497 -2.322,1.822 -2.322,3.296v1.886c0,0.276 0.224,0.5 0.5,0.5h19c0.276,0 0.5,-0.224 0.5,-0.5v-1.886c0,-1.475 -0.934,-2.8 -2.323,-3.296l-4.677,-1.67v-2.206c1.503,-1.162 2.594,-3.348 2.489,-5.704c-0.839,0.294 -1.655,0.348 -1.948,0.348c-1.194,0 -2.134,-0.525 -2.931,-1.635c-0.854,0.896 -2.361,1.549 -3.735,1.549c-0.783,0 -1.434,-0.141 -2.348,-0.628Z" transform="translate(2, 6.451)"></path>
    </g>
    <path fill="none" d="M0,0h24v24h-24Z"></path>
</svg>
