<?xml version="1.0" encoding="UTF-8" standalone="no"?>
<svg version="1.1" viewBox="0 0 24 24" xmlns="http://www.w3.org/2000/svg" xmlns:xlink="http://www.w3.org/1999/xlink">
    <!--Generated by IJSVG (https://github.com/curthard89/IJSVG)-->
    <g fill="none" stroke-linecap="round" stroke-linejoin="round" stroke-width="1">
        <path d="M0,8c0,0.552 0.447,1 1,1h1l3,3v-3h7c0.552,0 1,-0.448 1,-1v-7c0,-0.552 -0.448,-1 -1,-1h-11c-0.553,0 -1,0.448 -1,1v7Z" transform="translate(5.5, 0.493)"></path>
        <path transform="translate(16.7559, 11.2639)" d="M4.51184,0.976311c0.976311,0.976311 0.976311,2.55922 0,3.53553c-0.976311,0.976311 -2.55922,0.976311 -3.53553,0c-0.976311,-0.976311 -0.976311,-2.55922 0,-3.53553c0.976311,-0.976311 2.55922,-0.976311 3.53553,0"></path>
        <path transform="translate(15.5, 16.508)" d="M8,4h-8c0,-2.209 1.79,-4 4,-4c2.21,0 4,1.791 4,4Z"></path>
        <path d="M4.51184,0.976311c0.976311,0.976311 0.976311,2.55922 0,3.53553c-0.976311,0.976311 -2.55922,0.976311 -3.53553,0c-0.976311,-0.976311 -0.976311,-2.55922 -4.44089e-16,-3.53553c0.976311,-0.976311 2.55922,-0.976311 3.53553,0" transform="translate(1.75592, 11.2639)"></path>
        <path transform="translate(0.5, 16.508)" d="M8,4h-8c0,-2.209 1.79,-4 4,-4c2.21,0 4,1.791 4,4Z"></path>
        <path transform="translate(9.25592, 14.2639)" d="M4.51184,0.976311c0.976311,0.976311 0.976311,2.55922 0,3.53553c-0.976311,0.976311 -2.55922,0.976311 -3.53553,0c-0.976311,-0.976311 -0.976311,-2.55922 0,-3.53553c0.976311,-0.976311 2.55922,-0.976311 3.53553,0"></path>
        <path transform="translate(8, 19.508)" d="M8,4h-8c0,-2.209 1.79,-4 4,-4c2.21,0 4,1.791 4,4Z"></path>
        <path transform="translate(8.5, 2.49)" d="M0,0h6.97"></path>
        <path transform="translate(8.5, 4.49)" d="M0,0h6.97"></path>
        <path transform="translate(8.5, 6.49)" d="M0,0h6.97"></path>
    </g>
    <path fill="none" d="M0,0h24v24h-24Z"></path>
</svg>
