<?xml version="1.0" encoding="UTF-8" standalone="no"?>
<svg version="1.1" viewBox="0 0 24 24" xmlns="http://www.w3.org/2000/svg" xmlns:xlink="http://www.w3.org/1999/xlink">
    <!--Generated by IJSVG (https://github.com/curthard89/IJSVG)-->
    <g >
        <path d="M9.675,4.891l-2.175,-0.622v-0.761c0.906,-0.682 1.5,-1.812 1.5,-3.09c-0.925,0.234 -2.326,0.185 -3.066,-0.418c-1.069,0.661 -2.745,0.603 -3.917,0.074c-0.01,0.113 -0.017,0.227 -0.017,0.344c0,1.278 0.595,2.408 1.5,3.091v0.761l-2.176,0.622c-0.742,0.211 -1.324,0.983 -1.324,1.754v1h11v-1c0,-0.773 -0.582,-1.543 -1.325,-1.755Z" transform="translate(13, 3.354)"></path>
        <path d="M3.413,2.317c0.112,-0.112 0.271,-0.165 0.426,-0.142c0.156,0.023 0.293,0.119 0.368,0.258c0.303,0.563 1.816,0.519 2.43,0.335c-0.409,-1.593 -1.763,-2.768 -3.37,-2.768c-1.491,0 -2.763,1.011 -3.267,2.429c0.991,0.562 2.749,0.552 3.413,-0.112Z" transform="translate(15.233, 0)"></path>
        <path d="M0,2.429c0.991,0.562 2.748,0.553 3.413,-0.111c0.112,-0.112 0.271,-0.165 0.426,-0.142c0.156,0.023 0.293,0.119 0.368,0.258c0.303,0.562 1.817,0.519 2.43,0.335c-0.409,-1.594 -1.763,-2.769 -3.37,-2.769c-1.491,0 -2.763,1.011 -3.267,2.429Z" transform="translate(8.733, 13)"></path>
        <path d="M9.675,4.892l-2.175,-0.622v-0.761c0.906,-0.683 1.5,-1.812 1.5,-3.091c-0.925,0.234 -2.326,0.185 -3.066,-0.418c-1.069,0.661 -2.745,0.603 -3.918,0.074c-0.009,0.114 -0.016,0.228 -0.016,0.344c0,1.278 0.595,2.408 1.5,3.091v0.761l-2.176,0.622c-0.742,0.212 -1.324,0.984 -1.324,1.755v1h11v-1c0,-0.772 -0.582,-1.543 -1.325,-1.755Z" transform="translate(6.5, 16.353)"></path>
        <path d="M11,6.647c0,-0.773 -0.582,-1.543 -1.325,-1.755l-2.175,-0.622v-0.761c0.906,-0.682 1.5,-1.812 1.5,-3.09c-0.925,0.234 -2.326,0.185 -3.066,-0.419c-1.069,0.662 -2.745,0.604 -3.918,0.075c-0.009,0.113 -0.016,0.227 -0.016,0.344c0,1.278 0.595,2.408 1.5,3.09v0.761l-2.176,0.622c-0.743,0.212 -1.324,0.984 -1.324,1.755v1h11v-1Z" transform="translate(0, 3.353)"></path>
        <path d="M3.414,2.317c0.112,-0.112 0.27,-0.165 0.426,-0.142c0.156,0.024 0.293,0.12 0.367,0.259c0.303,0.563 1.816,0.519 2.43,0.335c-0.409,-1.594 -1.763,-2.769 -3.37,-2.769c-1.491,0 -2.763,1.011 -3.267,2.429c0.991,0.562 2.749,0.552 3.414,-0.112Z" transform="translate(2.233, 0)"></path>
        <path d="M3.403,3.402v0c-0.196,0.196 -0.513,0.195 -0.708,0l-2.5,-2.501c-0.195,-0.195 -0.194,-0.512 0,-0.707v0c0.195,-0.194 0.512,-0.194 0.707,0l2.501,2.501c0.196,0.195 0.195,0.512 0,0.707Z" transform="translate(3.45, 11.952)"></path>
        <path d="M0.195,3.402v0c0.196,0.196 0.513,0.195 0.708,0l2.5,-2.501c0.195,-0.195 0.194,-0.512 0,-0.707v0c-0.195,-0.194 -0.512,-0.194 -0.707,0l-2.501,2.501c-0.195,0.195 -0.194,0.512 3.55271e-15,0.707Z" transform="translate(16.951, 11.952)"></path>
    </g>
    <path fill="none" d="M0,0h24v24h-24Z"></path>
</svg>
