<?xml version="1.0" encoding="UTF-8" standalone="no"?>
<svg version="1.1" viewBox="0 0 24 24" xmlns="http://www.w3.org/2000/svg" xmlns:xlink="http://www.w3.org/1999/xlink">
    <!--Generated by IJSVG (https://github.com/curthard89/IJSVG)-->
    <g >
        <path d="M8.763,8.063c-0.407,-1.2 -1.31,-2.172 -2.462,-2.679c0.724,-0.548 1.2,-1.408 1.2,-2.384c0,-1.655 -1.346,-3 -3,-3c-1.654,0 -3,1.345 -3,3c0,0.975 0.475,1.834 1.197,2.383c-1.586,0.696 -2.698,2.277 -2.698,4.116c0,0.276 0.224,0.5 0.5,0.493h6.607c0.395,-0.761 0.964,-1.423 1.656,-1.929Z" transform="translate(0, 11.008)"></path>
        <path d="M0,8.063c0.407,-1.2 1.31,-2.172 2.462,-2.679c-0.724,-0.548 -1.2,-1.408 -1.2,-2.384c0,-1.655 1.346,-3 3,-3c1.654,0 3,1.345 3,3c0,0.975 -0.475,1.834 -1.197,2.383c1.586,0.696 2.698,2.277 2.698,4.116c0,0.276 -0.224,0.5 -0.5,0.493h-6.607c-0.394,-0.761 -0.964,-1.423 -1.656,-1.929Z" transform="translate(15.237, 11.008)"></path>
        <path d="M8.5,9.993c0.276,0 0.5,-0.216 0.5,-0.493c0,-1.839 -1.112,-3.42 -2.697,-4.117c0.722,-0.548 1.197,-1.408 1.197,-2.383c0,-1.655 -1.346,-3 -3,-3c-1.654,0 -3,1.345 -3,3c0,0.975 0.475,1.835 1.197,2.383c-1.585,0.697 -2.697,2.278 -2.697,4.117c0,0.277 0.224,0.493 0.5,0.493h8Z" transform="translate(7.5, 14.007)"></path>
        <path d="M12.5,0h-11c-0.827,0 -1.5,0.666 -1.5,1.493v7c0,0.827 0.673,1.5 1.5,1.5h0.793l2.853,2.853c0.096,0.096 0.224,0.147 0.354,0.147c0.276,0 0.5,-0.224 0.5,-0.5v-2.5h6.5c0.827,0 1.5,-0.673 1.5,-1.5v-7c0,-0.827 -0.673,-1.493 -1.5,-1.493Zm-2.031,7h-6.969c-0.276,0 -0.5,-0.231 -0.5,-0.507c0,-0.276 0.224,-0.5 0.5,-0.5h6.969c0.276,0 0.5,0.224 0.5,0.5c-1.77636e-15,0.276 -0.224,0.507 -0.5,0.507Zm0,-2h-6.969c-0.276,0 -0.5,-0.231 -0.5,-0.507c0,-0.276 0.224,-0.5 0.5,-0.5h6.969c0.276,0 0.5,0.224 0.5,0.5c-1.77636e-15,0.276 -0.224,0.507 -0.5,0.507Zm0,-2h-6.969c-0.276,0 -0.5,-0.23 -0.5,-0.507c0,-0.276 0.224,-0.5 0.5,-0.5h6.969c0.276,0 0.5,0.224 0.5,0.5c-1.77636e-15,0.277 -0.224,0.507 -0.5,0.507Z" transform="translate(5, 0)"></path>
    </g>
    <path fill="none" d="M0,0h24v24h-24Z"></path>
</svg>
