<?xml version="1.0" encoding="UTF-8" standalone="no"?>
<svg version="1.1" viewBox="0 0 24 24" xmlns="http://www.w3.org/2000/svg" xmlns:xlink="http://www.w3.org/1999/xlink">
    <!--Generated by IJSVG (https://github.com/curthard89/IJSVG)-->
    <g fill="none" stroke-linejoin="round" stroke-width="1">
        <path d="M4.492,9h1.5v2l2.5,-2h2c2.485,0 4.5,-2.015 4.5,-4.5c0,-2.485 -2.015,-4.5 -4.5,-4.5h-6c-2.485,0 -4.492,2.015 -4.492,4.5" transform="translate(8.508, 0.5)"></path>
        <g fill="none" stroke-linejoin="round" stroke-width="1">
            <path d="M5.5,0.141v2.182l-3.941,1.412c-0.944,0.335 -1.559,1.229 -1.559,2.23v1.488h15v-1.488c0,-1.001 -0.615,-1.895 -1.559,-2.23l-3.941,-1.413v-2.322" transform="translate(0.5, 16.047)"></path>
            <path d="M7.1233,1.84991c1.5414,1.84991 1.5414,4.84922 0,6.69913c-1.5414,1.84991 -4.0405,1.84991 -5.5819,0c-1.5414,-1.84991 -1.5414,-4.84922 -8.88178e-16,-6.69913c1.5414,-1.84991 4.0405,-1.84991 5.5819,-1.77636e-15" transform="translate(3.56865, 6.85252)"></path>
            <path d="M7.836,1.49c-0.133,0.017 -0.24,0.008 -0.374,0.033c-1.345,0.259 -2.208,-0.229 -2.948,-1.523c-0.444,0.851 -1.832,1.523 -2.973,1.523c-0.562,0 -1.057,-0.103 -1.541,-0.356" transform="translate(3.992, 10.135)"></path>
        </g>
        <g >
            <path transform="translate(19, 5)" d="M1,0h-1v1h1v-1Z"></path>
            <path transform="translate(16, 5)" d="M1,0h-1v1h1v-1Z"></path>
            <path transform="translate(13, 5)" d="M1,0h-1v1h1v-1Z"></path>
        </g>
    </g>
    <path fill="none" d="M0,0h24v24h-24Z"></path>
</svg>
