<?xml version="1.0" encoding="UTF-8" standalone="no"?>
<svg version="1.1" viewBox="0 0 24 24" xmlns="http://www.w3.org/2000/svg" xmlns:xlink="http://www.w3.org/1999/xlink">
    <!--Generated by IJSVG (https://github.com/curthard89/IJSVG)-->
    <g fill="none" stroke-linejoin="round" stroke-width="1">
        <path transform="translate(0.5, 6.609)" d="M3.5,0v1.391l-2.539,0.726c-0.528,0.151 -0.961,0.724 -0.961,1.274v0.5h5.5"></path>
        <path d="M2,0v1.422l2.538,0.726c0.529,0.151 0.962,0.724 0.962,1.274v0.5h-5.5" transform="translate(5, 6.578)"></path>
        <path transform="translate(2.20711, 0.180649)" d="M5.41421,1.2774c1.17157,1.2774 1.17157,3.34849 0,4.62589c-1.17157,1.2774 -3.07107,1.2774 -4.24264,1.77636e-15c-1.17157,-1.2774 -1.17157,-3.34849 0,-4.62589c1.17157,-1.2774 3.07107,-1.2774 4.24264,-4.44089e-16"></path>
        <path d="M5.903,0.528c-0.5,0.5 -1.93,0.476 -2.469,-0.528c-1,1 -2.625,1 -3.434,0.43" transform="translate(2.566, 2.67)"></path>
        <path transform="translate(13.5, 6.609)" d="M3.5,0v1.391l-2.539,0.726c-0.528,0.151 -0.961,0.724 -0.961,1.274v0.5h5.5"></path>
        <path d="M2,0v1.406l2.538,0.726c0.529,0.151 0.962,0.724 0.962,1.274v0.5h-5.5" transform="translate(18, 6.594)"></path>
        <path transform="translate(15.20711, 0.180649)" d="M5.41421,1.2774c1.17157,1.2774 1.17157,3.34849 0,4.62589c-1.17157,1.2774 -3.07107,1.2774 -4.24264,1.77636e-15c-1.17157,-1.2774 -1.17157,-3.34849 0,-4.62589c1.17157,-1.2774 3.07107,-1.2774 4.24264,-4.44089e-16"></path>
        <path d="M5.887,0.525c-0.5,0.5 -1.914,0.479 -2.453,-0.525c-1,1 -2.625,1 -3.434,0.43" transform="translate(15.566, 2.67)"></path>
        <path transform="translate(7, 19.609)" d="M3.5,0v1.391l-2.539,0.726c-0.528,0.151 -0.961,0.724 -0.961,1.274v0.5h5.5"></path>
        <path d="M2,0v1.391l2.538,0.726c0.529,0.151 0.962,0.724 0.962,1.274v0.5h-5.5" transform="translate(11.5, 19.609)"></path>
        <path d="M5.41421,1.2774c1.17157,1.2774 1.17157,3.34849 0,4.62589c-1.17157,1.2774 -3.07107,1.2774 -4.24264,0c-1.17157,-1.2774 -1.17157,-3.34849 0,-4.62589c1.17157,-1.2774 3.07107,-1.2774 4.24264,0" transform="translate(8.70711, 13.1806)"></path>
        <path d="M5.887,0.5c-0.5,0.5 -1.914,0.504 -2.453,-0.5c-1,1 -2.625,1 -3.434,0.43" transform="translate(9.066, 15.67)"></path>
        <path stroke-linecap="round" d="M0,0l2.5,2.5" transform="translate(4, 12.5)"></path>
        <path stroke-linecap="round" d="M2.5,0l-2.5,2.5" transform="translate(17.5, 12.5)"></path>
    </g>
    <path fill="none" d="M0,0h24v24h-24Z"></path>
</svg>
