<?xml version="1.0" encoding="UTF-8" standalone="no"?>
<svg version="1.1" viewBox="0 0 24 24" xmlns="http://www.w3.org/2000/svg" xmlns:xlink="http://www.w3.org/1999/xlink">
    <!--Generated by IJSVG (https://github.com/curthard89/IJSVG)-->
    <g fill="none" stroke-linejoin="round" stroke-width="1">
        <path d="M7,0v2.804l-5.009,1.789c-1.194,0.427 -1.991,1.558 -1.991,2.825v1.886h19v-1.886c0,-1.267 -0.797,-2.398 -1.991,-2.825l-5.009,-1.789v-2.804" transform="translate(2.5, 13.196)"></path>
        <path d="M9.02369,2.34315c1.95262,2.34315 1.95262,6.14214 0,8.48528c-1.95262,2.34315 -5.11845,2.34315 -7.07107,3.55271e-15c-1.95262,-2.34315 -1.95262,-6.14214 0,-8.48528c1.95262,-2.34315 5.11845,-2.34315 7.07107,0" transform="translate(6.51184, 1.41421)"></path>
        <path d="M9.889,1.883c-0.168,0.021 -0.284,0.014 -0.453,0.047c-1.703,0.328 -2.797,-0.289 -3.734,-1.93c-0.563,1.078 -2.322,1.93 -3.766,1.93c-0.711,0 -1.323,-0.146 -1.936,-0.466" transform="translate(7.064, 5.57)"></path>
    </g>
    <path fill="none" d="M0,0h24v24h-24Z"></path>
</svg>
