<?xml version="1.0" encoding="UTF-8" standalone="no"?>
<svg version="1.1" viewBox="0 0 24 24" xmlns="http://www.w3.org/2000/svg" xmlns:xlink="http://www.w3.org/1999/xlink">
    <!--Generated by IJSVG (https://github.com/curthard89/IJSVG)-->
    <g >
        <path d="M3.5,7c1.93,0 3.5,-1.57 3.5,-3.5c0,-1.931 -1.57,-3.5 -3.5,-3.5c-1.931,0 -3.5,1.569 -3.5,3.5c0,1.93 1.569,3.5 3.5,3.5Zm-2,-4c0.275,0 0.5,0.224 0.5,0.5c0,0.827 0.672,1.5 1.5,1.5c0.826,0 1.5,-0.673 1.5,-1.5c0,-0.828 -0.674,-1.5 -1.5,-1.5c-0.276,0 -0.5,-0.225 -0.5,-0.5c0,-0.277 0.224,-0.5 0.5,-0.5c1.378,0 2.5,1.121 2.5,2.5c0,1.378 -1.122,2.5 -2.5,2.5c-1.379,0 -2.5,-1.122 -2.5,-2.5c0,-0.276 0.224,-0.5 0.5,-0.5Z" transform="translate(8.501, 8.5)"></path>
        <path d="M0.144,7.31c0.217,0.273 5.374,6.69 11.893,6.69c6.518,0 11.675,-6.417 11.892,-6.69c0.144,-0.182 0.144,-0.439 0,-0.62c-0.217,-0.275 -5.374,-6.69 -11.892,-6.69c-6.519,0 -11.676,6.415 -11.893,6.69c-0.144,0.181 -0.144,0.438 -1.38778e-16,0.62Zm11.893,-4.81c2.48,0 4.5,2.018 4.5,4.5c0,2.482 -2.02,4.5 -4.5,4.5c-2.482,0 -4.5,-2.018 -4.5,-4.5c0,-2.482 2.018,-4.5 4.5,-4.5Z" transform="translate(-0.036, 5)"></path>
    </g>
    <path fill="none" d="M0,0h24v24h-24Z"></path>
</svg>
