<?xml version="1.0" encoding="UTF-8" standalone="no"?>
<svg version="1.1" viewBox="0 0 24 24" xmlns="http://www.w3.org/2000/svg" xmlns:xlink="http://www.w3.org/1999/xlink">
    <!--Generated by IJSVG (https://github.com/curthard89/IJSVG)-->
    <g fill="none" stroke-linecap="round" stroke-linejoin="round" stroke-width="1">
        <path d="M23,6.5c0,0 -5.148,6.5 -11.5,6.5c-6.352,0 -11.5,-6.5 -11.5,-6.5c0,0 5.148,-6.5 11.5,-6.5c6.352,0 11.5,6.5 11.5,6.5Z" transform="translate(0.5, 5.5)"></path>
        <path d="M7.21895,1.5621c1.5621,1.5621 1.5621,4.09476 0,5.65685c-1.5621,1.5621 -4.09476,1.5621 -5.65685,0c-1.5621,-1.5621 -1.5621,-4.09476 -1.77636e-15,-5.65685c1.5621,-1.5621 4.09476,-1.5621 5.65685,-1.77636e-15" transform="translate(7.60948, 7.60948)"></path>
        <path d="M2,0c1.104,0 2,0.896 2,2c0,1.104 -0.896,2 -2,2c-1.104,0 -2,-0.896 -2,-2" transform="translate(10, 10)"></path>
    </g>
    <path fill="none" d="M0,0h24v24h-24Z"></path>
</svg>
