<?xml version="1.0" encoding="UTF-8" standalone="no"?>
<svg version="1.1" viewBox="0 0 24 24" xmlns="http://www.w3.org/2000/svg" xmlns:xlink="http://www.w3.org/1999/xlink">
    <!--Generated by IJSVG (https://github.com/curthard89/IJSVG)-->
    <g fill="none" stroke-linejoin="round" stroke-width="1">
        <g fill="none" stroke-linejoin="round" stroke-width="1">
            <path d="M2.707,8.692c-0.586,0.587 -1.537,0.587 -2.121,0c-0.586,-0.585 -0.586,-1.534 1.11022e-16,-2.12l6.57,-6.572l2.121,2.121l-6.57,6.571Z" transform="translate(0.854, 13.868)"></path>
            <path stroke-linecap="round" d="M0,0l4.24,4.24" transform="translate(6.95, 12.81)"></path>
            <path d="M10.69,0l-10.69,10.69" transform="translate(9.06, 4.25)"></path>
            <path d="M2.475,4.933l-2.475,-2.473l3.541,-2.46l1.5,1.5Z" transform="translate(18.459, 0.5)"></path>
        </g>
        <path d="M11.725,9.602l-3.745,-3.744c0.616,-1.456 0.334,-3.203 -0.854,-4.39c-1.187,-1.185 -2.857,-1.468 -4.314,-0.853l2.023,2.109v2.066h-2.154l-2.065,-1.98c-0.616,1.458 -0.333,3.166 0.854,4.352c1.186,1.188 2.933,1.451 4.388,0.835l3.746,3.738" transform="translate(0.165, 0.21)"></path>
        <path d="M0,2.121l3.747,3.748c-0.616,1.456 -0.334,3.202 0.854,4.389c1.187,1.186 2.933,1.468 4.39,0.853l-2.034,-2.11v-2h2l2.153,1.988c0.616,-1.456 0.333,-3.202 -0.854,-4.388c-1.187,-1.188 -2.933,-1.471 -4.389,-0.854l-3.745,-3.747" transform="translate(11.89, 11.934)"></path>
    </g>
    <path fill="none" d="M0,0h24v24h-24Z"></path>
</svg>
