<?xml version="1.0" encoding="UTF-8" standalone="no"?>
<svg version="1.1" viewBox="0 0 24 24" xmlns="http://www.w3.org/2000/svg" xmlns:xlink="http://www.w3.org/1999/xlink">
    <!--Generated by IJSVG (https://github.com/curthard89/IJSVG)-->
    <g >
        <g >
            <path d="M6.29,9.123l3.599,3.591l2.833,-2.832l-3.604,-3.605c0.547,-1.618 0.139,-3.397 -1.082,-4.618c-1.283,-1.282 -3.211,-1.659 -4.863,-0.961c-0.148,0.062 -0.258,0.193 -0.293,0.35c-0.036,0.157 0.006,0.322 0.113,0.442l1.744,1.967v1.31h-1.304l-1.921,-1.781c-0.12,-0.11 -0.284,-0.154 -0.445,-0.122c-0.159,0.036 -0.292,0.145 -0.356,0.295c-0.711,1.682 -0.334,3.606 0.961,4.9c1.191,1.192 3.024,1.603 4.618,1.064Z" transform="translate(-0.391, -0.327)"></path>
            <path d="M6.262,3.431l-3.431,-3.431l-2.831,2.832l3.434,3.427c-0.546,1.617 -0.139,3.398 1.082,4.619c0.849,0.848 1.978,1.314 3.179,1.314c0.608,0 1.2,-0.119 1.759,-0.356c0.152,-0.064 0.263,-0.198 0.296,-0.36c0.032,-0.161 -0.016,-0.329 -0.13,-0.447l-1.895,-1.964v-1.3h1.305l2.011,1.856c0.119,0.111 0.283,0.155 0.444,0.122c0.159,-0.033 0.292,-0.144 0.355,-0.294c0.718,-1.697 0.341,-3.635 -0.961,-4.936c-1.197,-1.198 -3.026,-1.618 -4.617,-1.082Z" transform="translate(11.621, 11.675)"></path>
        </g>
        <path d="M23.354,1.695l-1.5,-1.5c-0.172,-0.171 -0.442,-0.195 -0.639,-0.057l-3.541,2.459c-0.122,0.085 -0.199,0.219 -0.213,0.367c-0.013,0.147 0.04,0.293 0.145,0.398l0.938,0.936l-9.971,9.971l-1.768,-1.767c-0.195,-0.196 -0.512,-0.196 -0.707,0c-0.195,0.194 -0.195,0.511 0,0.707l0.706,0.706l-6.218,6.22c-0.378,0.378 -0.586,0.88 -0.586,1.413c0,0.535 0.208,1.038 0.585,1.413c0.377,0.379 0.879,0.587 1.414,0.587c0.535,0 1.037,-0.208 1.415,-0.586l6.217,-6.218l0.707,0.707c0.098,0.098 0.226,0.146 0.353,0.146c0.128,0 0.256,-0.048 0.354,-0.146c0.195,-0.196 0.195,-0.512 0,-0.707l-1.767,-1.767l9.972,-9.972l0.83,0.831c0.094,0.094 0.222,0.147 0.354,0.147c0.012,0 0.023,0 0.036,-0.002c0.145,-0.009 0.277,-0.082 0.364,-0.199l2.566,-3.434c0.149,-0.2 0.129,-0.477 -0.046,-0.653Z" transform="translate(0.5, -0.042)"></path>
    </g>
    <path fill="none" d="M0,0h24v24h-24Z"></path>
</svg>
