<?xml version="1.0" encoding="UTF-8" standalone="no"?>
<svg width="1401px" height="962px" viewBox="0 0 1401 962" version="1.1" xmlns="http://www.w3.org/2000/svg" xmlns:xlink="http://www.w3.org/1999/xlink">
    <!-- Generator: Sketch 46.2 (44496) - http://www.bohemiancoding.com/sketch -->
    <title>iPadLandscape2</title>
    <desc>Created with Sketch.</desc>
    <defs>
        <filter x="-5.8%" y="-8.7%" width="111.5%" height="117.4%" filterUnits="objectBoundingBox" id="filter-1">
            <feOffset dx="0" dy="0" in="SourceAlpha" result="shadowOffsetOuter1"></feOffset>
            <feGaussianBlur stdDeviation="25" in="shadowOffsetOuter1" result="shadowBlurOuter1"></feGaussianBlur>
            <feColorMatrix values="0 0 0 0 0.137254902   0 0 0 0 0.137254902   0 0 0 0 0.137254902  0 0 0 0.2 0" type="matrix" in="shadowBlurOuter1" result="shadowMatrixOuter1"></feColorMatrix>
            <feMerge>
                <feMergeNode in="shadowMatrixOuter1"></feMergeNode>
                <feMergeNode in="SourceGraphic"></feMergeNode>
            </feMerge>
        </filter>
        <path d="M0,30.791822 C0,13.7849389 13.7835392,0 30.791822,0 C47.7987052,0 61.583644,13.7835392 61.583644,30.791822 C61.583644,47.8001048 47.8001048,61.583644 30.791822,61.583644 C13.7849389,61.583644 0,47.8001048 0,30.791822 Z" id="path-2"></path>
        <path d="M0,6.27240819 C0,2.80725113 2.80725113,0 6.27240819,0 C9.73617138,0 12.5448164,2.80725113 12.5448164,6.27240819 C12.5448164,9.73617138 9.73617138,12.5448164 6.27240819,12.5448164 C2.80725113,12.5448164 0,9.73617138 0,6.27240819 Z" id="path-4"></path>
    </defs>
    <g id="Page-1" stroke="none" stroke-width="1" fill="none" fill-rule="evenodd">
        <g id="iPadLandscape2">
            <g id="Group" transform="translate(700.500000, 480.500000) rotate(-90.000000) translate(-700.500000, -480.500000) translate(270.000000, -170.000000)">
                <g id="Page-1" filter="url(#filter-1)" transform="translate(430.500000, 650.500000) rotate(90.000000) translate(-430.500000, -650.500000) translate(-220.000000, 220.000000)">
                    <g id="Group-3" transform="translate(0.140438, 0.140438)" fill="#FFFFFF">
                        <path d="M56.1792097,859.307644 C25.3193543,859.307644 0.301776562,834.295903 0.301776562,803.44292 L0.301776562,56.1663445 C0.301776562,25.3133623 25.3109722,0.30162112 56.1792097,0.30162112 L1243.63963,0.30162112 C1274.49948,0.30162112 1299.51706,25.3133623 1299.51706,56.1663445 L1299.51706,803.44292 C1299.51706,834.295903 1274.50786,859.307644 1243.63963,859.307644 L56.1792097,859.307644 Z M127.987358,46.7317666 L127.987358,814.731767 L1151.98736,814.731767 L1151.98736,46.7317666 L127.987358,46.7317666 Z" id="Combined-Shape"></path>
                    </g>
                    <g id="Group-9" transform="translate(1192.897994, 396.872373)">
                        <mask id="mask-3" fill="white">
                            <use xlink:href="#path-2"></use>
                        </mask>
                        <g id="Clip-8"></g>
                    </g>
                    <path d="M1223.1196,458.456017 C1205.79939,458.456017 1191.75756,444.418367 1191.75756,427.093976 C1191.75756,409.773766 1205.79521,395.731935 1223.1196,395.731935 C1240.43981,395.731935 1254.48164,409.769584 1254.48164,427.093976 C1254.48164,444.414186 1240.44399,458.456017 1223.1196,458.456017 Z" id="Stroke-10" stroke="#E0E0E0" stroke-width="2"></path>
                    <g id="Group-14" transform="translate(68.426271, 421.962005)">
                        <mask id="mask-5" fill="white">
                            <use xlink:href="#path-4"></use>
                        </mask>
                        <g id="Clip-13"></g>
                        <path d="M13.2417506,6.27240819 C13.2417506,2.4239373 10.1208791,-0.696934243 6.27240819,-0.696934243 C2.4239373,-0.696934243 -0.696934243,2.4239373 -0.696934243,6.27240819 C-0.696934243,10.1208791 2.4239373,13.2417506 6.27240819,13.2417506 C10.1208791,13.2417506 13.2417506,10.1208791 13.2417506,6.27240819" id="Fill-12" fill="#E0E0E0" mask="url(#mask-5)"></path>
                    </g>
                    <path d="M80.9710875,427.664195 C80.9710875,423.885696 77.9069591,420.821568 74.1284604,420.821568 C70.3499617,420.821568 67.2858333,423.885696 67.2858333,427.664195 C67.2858333,431.442693 70.3499617,434.506822 74.1284604,434.506822 C77.9069591,434.506822 80.9710875,431.442693 80.9710875,427.664195 Z" id="Stroke-15" stroke="#F9F9F9" stroke-width="2"></path>
                </g>
            </g>
        </g>
    </g>
</svg>