<?xml version="1.0" encoding="UTF-8" standalone="no"?>
<svg width="847px" height="466px" viewBox="0 0 847 466" version="1.1" xmlns="http://www.w3.org/2000/svg" xmlns:xlink="http://www.w3.org/1999/xlink">
    <!-- Generator: Sketch 46.2 (44496) - http://www.bohemiancoding.com/sketch -->
    <title>iPhoneLandscape2</title>
    <desc>Created with Sketch.</desc>
    <defs>
        <filter x="-20.5%" y="-10.0%" width="141.0%" height="120.1%" filterUnits="objectBoundingBox" id="filter-1">
            <feOffset dx="0" dy="0" in="SourceAlpha" result="shadowOffsetOuter1"></feOffset>
            <feGaussianBlur stdDeviation="25" in="shadowOffsetOuter1" result="shadowBlurOuter1"></feGaussianBlur>
            <feColorMatrix values="0 0 0 0 0.137254902   0 0 0 0 0.137254902   0 0 0 0 0.137254902  0 0 0 0.2 0" type="matrix" in="shadowBlurOuter1" result="shadowMatrixOuter1"></feColorMatrix>
            <feMerge>
                <feMergeNode in="shadowMatrixOuter1"></feMergeNode>
                <feMergeNode in="SourceGraphic"></feMergeNode>
            </feMerge>
        </filter>
    </defs>
    <g id="Page-1" stroke="none" stroke-width="1" fill="none" fill-rule="evenodd">
        <g id="iPhoneLandscape2">
            <g id="Iphone-Copy" filter="url(#filter-1)" transform="translate(423.500000, 233.000000) rotate(-90.000000) translate(-423.500000, -233.000000) translate(240.500000, -140.500000)">
                <g id="Group-3" transform="translate(0.000000, 0.003780)" fill="#FEFEFE">
                    <path d="M365.523124,42.0976794 L365.523124,704.054234 C365.523124,726.803038 346.959392,745.31012 324.141545,745.31012 L41.6403493,745.31012 C18.8225024,745.31012 0.257,726.803038 0.257,704.054234 L0.257,42.0976794 C0.257,19.3081579 18.8225024,0.767440191 41.6403493,0.767440191 L324.141545,0.767440191 C346.959392,0.767440191 365.523124,19.3081579 365.523124,42.0976794 Z M24.4384002,654.537158 L340.902711,654.537158 C341.875055,654.537158 342.670609,653.74552 342.670609,652.777963 L342.670609,88.2963526 C342.670609,87.3287955 341.875055,86.5371579 340.902711,86.5371579 L24.4384002,86.5371579 C23.4660564,86.5371579 22.6705024,87.3287955 22.6705024,88.2963526 L22.6705024,652.777963 C22.6705024,653.74552 23.4660564,654.537158 24.4384002,654.537158 Z" id="Combined-Shape"></path>
                </g>
                <path d="M182.890947,722.357967 C169.154919,722.357967 157.978794,711.183612 157.978794,697.445813 C157.978794,683.709785 169.154919,672.535431 182.890947,672.535431 C196.626976,672.535431 207.80133,683.709785 207.80133,697.445813 C207.80133,711.183612 196.626976,722.357967 182.890947,722.357967 L182.890947,722.357967 Z M157.074153,697.445813 C157.074153,711.681077 168.655684,723.262608 182.890947,723.262608 C197.126211,723.262608 208.707742,711.681077 208.707742,697.445813 C208.707742,683.212321 197.126211,671.630789 182.890947,671.630789 C168.655684,671.630789 157.074153,683.212321 157.074153,697.445813 Z" id="Fill-8" fill="#E6E9EB"></path>
                <path d="M204.133019,51.7336746 L161.648522,51.7336746 C159.462158,51.7336746 157.682971,49.954488 157.682971,47.7698947 C157.682971,45.5835311 159.462158,43.8043445 161.648522,43.8043445 L204.133019,43.8043445 C206.319383,43.8043445 208.098569,45.5835311 208.098569,47.7698947 C208.098569,49.954488 206.319383,51.7336746 204.133019,51.7336746 L204.133019,51.7336746 Z" id="Fill-10" fill="#EEF2F5"></path>
                <path d="M133.958536,53.7677895 C130.65155,53.7677895 127.960641,51.0768804 127.960641,47.7698947 C127.960641,44.4611388 130.65155,41.7702297 133.958536,41.7702297 C137.265522,41.7702297 139.956431,44.4611388 139.956431,47.7698947 C139.956431,51.0768804 137.265522,53.7677895 133.958536,53.7677895" id="Fill-12" fill="#EEF2F5"></path>
                <path d="M182.89077,32.2056411 C180.208713,32.2056411 178.02589,30.0228182 178.02589,27.3407608 C178.02589,24.6587033 180.208713,22.4776507 182.89077,22.4776507 C185.572828,22.4776507 187.755651,24.6587033 187.755651,27.3407608 C187.755651,30.0228182 185.572828,32.2056411 182.89077,32.2056411" id="Fill-14" fill="#EEF2F5"></path>
            </g>
        </g>
    </g>
</svg>