<?xml version="1.0" encoding="UTF-8" standalone="no"?>
<svg width="1794px" height="1079px" viewBox="0 0 1794 1079" version="1.1" xmlns="http://www.w3.org/2000/svg" xmlns:xlink="http://www.w3.org/1999/xlink">
    <!-- Generator: Sketch 46.2 (44496) - http://www.bohemiancoding.com/sketch -->
    <title>MBP</title>
    <desc>Created with Sketch.</desc>
    <defs>
        <filter x="-7.0%" y="-7.7%" width="113.9%" height="119.6%" filterUnits="objectBoundingBox" id="filter-1">
            <feOffset dx="0" dy="0" in="SourceAlpha" result="shadowOffsetOuter1"></feOffset>
            <feGaussianBlur stdDeviation="25" in="shadowOffsetOuter1" result="shadowBlurOuter1"></feGaussianBlur>
            <feColorMatrix values="0 0 0 0 0.137254902   0 0 0 0 0.137254902   0 0 0 0 0.137254902  0 0 0 0.2 0" type="matrix" in="shadowBlurOuter1" result="shadowMatrixOuter1"></feColorMatrix>
            <feMerge>
                <feMergeNode in="shadowMatrixOuter1"></feMergeNode>
                <feMergeNode in="SourceGraphic"></feMergeNode>
            </feMerge>
        </filter>
        <path d="M1692.96137,950.343348 C1692.96137,950.343348 1637.05973,973.243294 1497.31626,973.243294 C1497.31626,973.243294 1029.32052,977.347639 846.480687,977.347639 C663.640858,977.347639 195.645117,973.243294 195.645117,973.243294 C55.9016477,973.243294 0,950.343348 0,950.343348 L1692.96137,950.343348 Z" id="path-2"></path>
        <filter x="-2.5%" y="-153.7%" width="105.0%" height="414.8%" filterUnits="objectBoundingBox" id="filter-3">
            <feGaussianBlur stdDeviation="12.5 0" in="SourceGraphic"></feGaussianBlur>
        </filter>
        <filter x="-2.7%" y="-164.8%" width="105.4%" height="437.0%" filterUnits="objectBoundingBox" id="filter-4">
            <feOffset dx="0" dy="1" in="SourceAlpha" result="shadowOffsetOuter1"></feOffset>
            <feGaussianBlur stdDeviation="2.5" in="shadowOffsetOuter1" result="shadowBlurOuter1"></feGaussianBlur>
            <feColorMatrix values="0 0 0 0 0   0 0 0 0 0   0 0 0 0 0  0 0 0 1 0" type="matrix" in="shadowBlurOuter1"></feColorMatrix>
        </filter>
        <path d="M202.448855,0 L1488.43527,0 C1514.92017,0 1537.16738,22.280064 1537.16738,48.7772009 L1537.16738,907.797906 C1537.16738,934.295043 1537.0049,956.575107 1510.09398,956.575107 L183.497476,956.575107 C156.24544,956.575107 153.716738,934.295043 153.716738,907.797906 L153.716738,48.7772009 C153.716738,22.280064 175.96395,0 202.448855,0 Z M203.570815,70.6266094 L203.570815,870.369099 L1484.19742,870.369099 L1484.19742,70.6266094 L203.570815,70.6266094 Z" id="path-5"></path>
        <rect id="path-6" x="1.03862661" y="940.995708" width="1692.96137" height="5.19313305"></rect>
        <filter x="-0.0%" y="-9.6%" width="100.1%" height="119.3%" filterUnits="objectBoundingBox" id="filter-7">
            <feOffset dx="0" dy="1" in="SourceAlpha" result="shadowOffsetInner1"></feOffset>
            <feComposite in="shadowOffsetInner1" in2="SourceAlpha" operator="arithmetic" k2="-1" k3="1" result="shadowInnerInner1"></feComposite>
            <feColorMatrix values="0 0 0 0 1   0 0 0 0 1   0 0 0 0 1  0 0 0 0.300000012 0" type="matrix" in="shadowInnerInner1"></feColorMatrix>
        </filter>
    </defs>
    <g id="Page-1" stroke="none" stroke-width="1" fill="none" fill-rule="evenodd">
        <g id="MBP">
            <g id="macbook" filter="url(#filter-1)" transform="translate(50.000000, 50.000000)">
                <g id="shadow" opacity="0.1" filter="url(#filter-3)" fill-opacity="1" fill="black">
                    <use filter="url(#filter-4)" xlink:href="#path-2"></use>
                </g>
                <g id="Combined-Shape">
                    <use fill="#FFFFFF" fill-rule="evenodd" xlink:href="#path-5"></use>
                    <path stroke-opacity="0.25" stroke="#FFFFFF" stroke-width="3.75" d="M202.448855,1.875 C177.004152,1.875 155.591738,23.3109252 155.591738,48.7772009 L155.591738,907.797906 C155.591738,924.112294 156.707204,933.897397 160.094434,941.34684 C164.135128,950.233428 171.397722,954.700107 183.497476,954.700107 L1510.09398,954.700107 C1521.94335,954.700107 1528.5654,950.33818 1531.97148,941.451862 C1534.71742,934.287808 1535.29238,926.614623 1535.29238,907.797906 L1535.29238,48.7772009 C1535.29238,23.3109252 1513.87997,1.875 1488.43527,1.875 L202.448855,1.875 Z M201.695815,68.7516094 L1486.07242,68.7516094 L1486.07242,872.244099 L201.695815,872.244099 L201.695815,68.7516094 Z"></path>
                </g>
                <path d="M1694,946.188841 C1694,946.188841 1638.09835,973.492623 1498.97085,971.946781 C1498.35488,973.492623 1030.35914,978.386266 848.873682,978.386266 C664.679485,978.386266 196.683743,973.492623 196.067777,971.946781 C56.9402743,973.492623 1.03862661,946.188841 1.03862661,946.188841 L1694,946.188841 Z" id="bottom" fill="#FFFFFF"></path>
                <g id="bottomfront">
                    <use fill="#ECF0F1" fill-rule="evenodd" xlink:href="#path-6"></use>
                    <use fill="black" fill-opacity="1" filter="url(#filter-7)" xlink:href="#path-6"></use>
                </g>
                <path d="M845.961373,954.497854 C784.415184,954.497854 699.501498,952.997616 683.416309,949.997139 L683.416309,940.995708 L1008.50644,940.995708 L1008.50644,949.997139 C992.421249,952.997616 907.507563,954.497854 845.961373,954.497854 Z" id="shadows" fill="#ECF0F1"></path>
                <circle id="Oval" fill="#ECF0F1" cx="844.403433" cy="35.3133047" r="5.19313305"></circle>
            </g>
        </g>
    </g>
</svg>