<?xml version="1.0" encoding="UTF-8"?>
<svg width="316px" height="316px" viewBox="0 0 316 316" version="1.1" xmlns="http://www.w3.org/2000/svg" xmlns:xlink="http://www.w3.org/1999/xlink">
    <!-- Generator: Sketch 46.2 (44496) - http://www.bohemiancoding.com/sketch -->
    <title>booking</title>
    <desc>Created with Sketch.</desc>
    <defs>
        <filter x="-10.2%" y="-10.2%" width="120.4%" height="120.4%" filterUnits="objectBoundingBox" id="filter-1">
            <feOffset dx="0" dy="0" in="SourceAlpha" result="shadowOffsetOuter1"></feOffset>
            <feGaussianBlur stdDeviation="7" in="shadowOffsetOuter1" result="shadowBlurOuter1"></feGaussianBlur>
            <feColorMatrix values="0 0 0 0 0   0 0 0 0 0   0 0 0 0 0  0 0 0 0.15 0" type="matrix" in="shadowBlurOuter1" result="shadowMatrixOuter1"></feColorMatrix>
            <feMerge>
                <feMergeNode in="shadowMatrixOuter1"></feMergeNode>
                <feMergeNode in="SourceGraphic"></feMergeNode>
            </feMerge>
        </filter>
    </defs>
    <g id="Page-1" stroke="none" stroke-width="1" fill="none" fill-rule="evenodd">
        <g id="booking" filter="url(#filter-1)" transform="translate(21.000000, 21.000000)">
            <g id="shadow">
                <g id="path-1-link" transform="translate(8.000000, 8.000000)" fill-rule="nonzero" fill="#000000">
                    <path d="M129,258 C57.7572692,258 0,200.242731 0,129 C0,57.7572692 57.7572692,0 129,0 C200.242731,0 258,57.7572692 258,129 C258,200.242731 200.242731,258 129,258 Z" id="path-1"></path>
                </g>
                <g id="path-1-link" transform="translate(8.000000, 8.000000)" fill="#E3F2EF">
                    <path d="M129,258 C57.7572692,258 0,200.242731 0,129 C0,57.7572692 57.7572692,0 129,0 C200.242731,0 258,57.7572692 258,129 C258,200.242731 200.242731,258 129,258 Z" id="path-1"></path>
                </g>
                <path d="M137,273.5 C61.6151336,273.5 0.5,212.384866 0.5,137 C0.5,61.6151336 61.6151336,0.5 137,0.5 C212.384866,0.5 273.5,61.6151336 273.5,137 C273.5,212.384866 212.384866,273.5 137,273.5 Z" id="Shape" stroke="#FFFFFF" stroke-width="15"></path>
            </g>
            <g id="background" transform="translate(6.000000, 8.000000)" fill-rule="nonzero">
                <path d="M258.540478,128.828799 C258.540478,57.6508875 200.88959,0 129.711679,0 C58.5337674,0 0.882879894,57.6508875 0.882879894,128.828799 C0.882879894,147.831047 5.06981586,165.867079 12.4774718,181.970679 L247.267958,181.970679 C254.353542,165.867079 258.540478,147.831047 258.540478,128.828799 Z" id="top" fill="#BDFBFC"></path>
                <path d="M12.4774718,181.970679 C32.7680076,226.738686 77.5360153,257.657598 129.711679,257.657598 C181.887342,257.657598 226.977422,226.738686 246.945886,181.970679 L12.4774718,181.970679 Z" id="bottom" fill="#FFEF9E"></path>
                <path d="M241.14859,193.243198 C243.403094,189.700406 245.335526,185.835542 246.945886,181.970679 L12.1553998,181.970679 C13.7657598,185.835542 16.0202638,189.700406 17.9526958,193.243198 L241.14859,193.243198 Z" id="mid" fill="#FFFACF"></path>
            </g>
            <g id="illustration" transform="translate(62.635119, 48.648640)">
                <g id="desktop">
                    <g id="computer" transform="translate(0.000000, 36.000000)">
                        <path d="M135.880599,85.997719 C135.880599,92.4391589 130.727447,97.5923109 124.286007,97.5923109 L12.2049519,97.5923109 C5.76351194,97.5923109 0.610359987,92.4391589 0.610359987,85.997719 L0.610359987,12.5653036 C0.610359987,6.12386364 5.76351194,0.970711679 12.2049519,0.970711679 L124.286007,0.970711679 C130.727447,0.970711679 135.880599,6.12386364 135.880599,12.5653036 L135.880599,85.997719 Z" id="Shape" fill="#00B8F0" fill-rule="nonzero"></path>
                        <path d="M82.4166473,0.648639681 L12.2049519,0.648639681 C5.76351194,0.648639681 0.610359987,5.80179164 0.610359987,12.2432316 L0.610359987,82.454927 L82.4166473,0.648639681 Z" id="Shape" fill="#4ACFFF" fill-rule="nonzero"></path>
                        <path d="M135.880599,85.997719 C135.880599,92.4391589 130.727447,97.5923109 124.286007,97.5923109 L12.2049519,97.5923109 C5.76351194,97.5923109 0.610359987,92.4391589 0.610359987,85.997719 L0.610359987,12.5653036 C0.610359987,6.12386364 5.76351194,0.970711679 12.2049519,0.970711679 L124.286007,0.970711679 C130.727447,0.970711679 135.880599,6.12386364 135.880599,12.5653036 L135.880599,85.997719 Z" id="Shape" stroke="#45413C" stroke-linecap="round" stroke-linejoin="round"></path>
                        <path d="M124.286007,97.2702389 C130.727447,97.2702389 135.880599,92.1170869 135.880599,85.675647 L135.880599,81.810783 L0.610359987,81.810783 L0.610359987,85.675647 C0.610359987,92.1170869 5.76351194,97.2702389 12.2049519,97.2702389 L124.286007,97.2702389 Z" id="Shape" stroke="#45413C" fill="#FFFFFF" fill-rule="nonzero" stroke-linecap="round" stroke-linejoin="round"></path>
                        <polygon id="Shape" fill="#E0E0E0" fill-rule="nonzero" points="79.8400713 113.051767 56.6508875 113.051767 58.5833195 97.2702389 77.9076393 97.2702389"></polygon>
                        <polygon id="Shape" fill="#87898C" fill-rule="nonzero" points="78.5517833 103.389607 57.9391755 103.389607 58.5833195 97.2702389 77.9076393 97.2702389"></polygon>
                        <polygon id="Shape" stroke="#45413C" stroke-linecap="round" stroke-linejoin="round" points="79.8400713 113.051767 56.6508875 113.051767 58.5833195 97.2702389 77.9076393 97.2702389"></polygon>
                        <path d="M93.3670952,120.459423 L43.1238636,120.459423 C43.1238636,116.272487 46.6666556,112.729695 50.8535916,112.729695 L85.6373673,112.729695 C89.8243033,113.051767 93.3670952,116.272487 93.3670952,120.459423 Z" id="Shape" stroke="#45413C" fill="#FFFFFF" fill-rule="nonzero" stroke-linecap="round" stroke-linejoin="round"></path>
                        <circle id="Oval" stroke="#45413C" fill="#DAEDF7" fill-rule="nonzero" stroke-linecap="round" stroke-linejoin="round" cx="68.2454794" cy="89.5405109" r="1.61035999"></circle>
                    </g>
                    <g id="browser" transform="translate(23.000000, 0.000000)">
                        <path d="M16.2589997,96.5540312 C12.0720637,96.5540312 8.52927173,93.0112392 8.52927173,88.8243033 L8.52927173,87.5360153 L0.799543796,95.2657432 L0.799543796,96.5540312 C0.799543796,100.740967 4.34233577,104.283759 8.52927173,104.283759 L105.150871,104.283759 C109.337807,104.283759 112.880599,100.740967 112.880599,96.5540312 L16.2589997,96.5540312 Z" id="Shape" fill="#009FD9" fill-rule="nonzero"></path>
                        <polygon id="Shape" fill="#009FD9" fill-rule="nonzero" points="8.52927173 36.6486397 0.799543796 36.6486397 0.799543796 95.5878152 8.52927173 87.8580873"></polygon>
                        <path d="M120.610327,89.4684472 C120.610327,93.6553832 117.067535,97.1981752 112.880599,97.1981752 L16.2589997,97.1981752 C12.0720637,97.1981752 8.52927173,93.6553832 8.52927173,89.4684472 L8.52927173,23.7657598 L120.610327,23.7657598 L120.610327,89.4684472 Z" id="Shape" stroke="#45413C" fill="#DAEDF7" fill-rule="nonzero" stroke-linecap="round" stroke-linejoin="round"></path>
                        <path d="M120.610327,23.7657598 L8.52927173,23.7657598 L8.52927173,8.30630392 C8.52927173,4.11936795 12.0720637,0.576575979 16.2589997,0.576575979 L112.880599,0.576575979 C117.067535,0.576575979 120.610327,4.11936795 120.610327,8.30630392 L120.610327,23.7657598 Z" id="Shape" stroke="#45413C" fill="#FFFFFF" fill-rule="nonzero" stroke-linecap="round" stroke-linejoin="round"></path>
                        <circle id="Oval" stroke="#45413C" fill="#FF6242" fill-rule="nonzero" stroke-linecap="round" stroke-linejoin="round" cx="20.1238636" cy="12.1711679" r="3.86486397"></circle>
                        <circle id="Oval" stroke="#45413C" fill="#FFF48C" fill-rule="nonzero" stroke-linecap="round" stroke-linejoin="round" cx="35.5833195" cy="12.1711679" r="3.86486397"></circle>
                        <circle id="Oval" stroke="#45413C" fill="#6DD627" fill-rule="nonzero" stroke-linecap="round" stroke-linejoin="round" cx="51.0427754" cy="12.1711679" r="3.86486397"></circle>
                        <path d="M58.7725033,59.1936795 C58.7725033,61.1261115 57.4842153,62.4143995 55.5517833,62.4143995 L46.5337674,62.4143995 C44.6013354,62.4143995 43.3130474,61.1261115 43.3130474,59.1936795 L43.3130474,50.1756636 C43.3130474,48.2432316 44.6013354,46.9549436 46.5337674,46.9549436 L55.5517833,46.9549436 C57.4842153,46.9549436 58.7725033,48.2432316 58.7725033,50.1756636 L58.7725033,59.1936795 Z" id="Shape" stroke="#45413C" fill="#6DD627" fill-rule="nonzero" stroke-linecap="round" stroke-linejoin="round"></path>
                        <path d="M83.8941191,59.1936795 C83.8941191,61.1261115 82.6058311,62.4143995 80.6733991,62.4143995 L71.6553832,62.4143995 C69.7229512,62.4143995 68.4346632,61.1261115 68.4346632,59.1936795 L68.4346632,50.1756636 C68.4346632,48.2432316 69.7229512,46.9549436 71.6553832,46.9549436 L80.6733991,46.9549436 C82.6058311,46.9549436 83.8941191,48.2432316 83.8941191,50.1756636 L83.8941191,59.1936795 Z" id="Shape" stroke="#45413C" fill="#FF6242" fill-rule="nonzero" stroke-linecap="round" stroke-linejoin="round"></path>
                        <path d="M109.015735,59.1936795 C109.015735,61.1261115 107.727447,62.4143995 105.795015,62.4143995 L96.776999,62.4143995 C94.844567,62.4143995 93.556279,61.1261115 93.556279,59.1936795 L93.556279,50.1756636 C93.556279,48.2432316 94.844567,46.9549436 96.776999,46.9549436 L105.795015,46.9549436 C107.727447,46.9549436 109.015735,48.2432316 109.015735,50.1756636 L109.015735,59.1936795 Z" id="Shape" stroke="#45413C" fill="#6DD627" fill-rule="nonzero" stroke-linecap="round" stroke-linejoin="round"></path>
                        <path d="M58.7725033,82.0607913 C58.7725033,83.9932233 57.4842153,85.2815113 55.5517833,85.2815113 L46.5337674,85.2815113 C44.6013354,85.2815113 43.3130474,83.9932233 43.3130474,82.0607913 L43.3130474,73.0427754 C43.3130474,71.1103434 44.6013354,69.8220554 46.5337674,69.8220554 L55.5517833,69.8220554 C57.4842153,69.8220554 58.7725033,71.1103434 58.7725033,73.0427754 L58.7725033,82.0607913 Z" id="Shape" stroke="#45413C" fill="#FF6242" fill-rule="nonzero" stroke-linecap="round" stroke-linejoin="round"></path>
                        <path d="M83.8941191,82.0607913 C83.8941191,83.9932233 82.6058311,85.2815113 80.6733991,85.2815113 L71.6553832,85.2815113 C69.7229512,85.2815113 68.4346632,83.9932233 68.4346632,82.0607913 L68.4346632,73.0427754 C68.4346632,71.1103434 69.7229512,69.8220554 71.6553832,69.8220554 L80.6733991,69.8220554 C82.6058311,69.8220554 83.8941191,71.1103434 83.8941191,73.0427754 L83.8941191,82.0607913 Z" id="Shape" stroke="#45413C" fill="#6DD627" fill-rule="nonzero" stroke-linecap="round" stroke-linejoin="round"></path>
                        <path d="M109.015735,82.0607913 C109.015735,83.9932233 107.727447,85.2815113 105.795015,85.2815113 L96.776999,85.2815113 C94.844567,85.2815113 93.556279,83.9932233 93.556279,82.0607913 L93.556279,73.0427754 C93.556279,71.1103434 94.844567,69.8220554 96.776999,69.8220554 L105.795015,69.8220554 C107.727447,69.8220554 109.015735,71.1103434 109.015735,73.0427754 L109.015735,82.0607913 Z" id="Shape" stroke="#45413C" fill="#FFE500" fill-rule="nonzero" stroke-linecap="round" stroke-linejoin="round"></path>
                        <path d="M35.5833195,36.0044957 C35.5833195,37.9369277 34.2950315,39.2252157 32.3625995,39.2252157 L23.3445836,39.2252157 C21.4121516,39.2252157 20.1238636,37.9369277 20.1238636,36.0044957 L20.1238636,34.7162077 C20.1238636,32.7837757 21.4121516,31.4954877 23.3445836,31.4954877 L32.3625995,31.4954877 C34.2950315,31.4954877 35.5833195,32.7837757 35.5833195,34.7162077 L35.5833195,36.0044957 Z" id="Shape" stroke="#45413C" fill="#00B8F0" fill-rule="nonzero" stroke-linecap="round" stroke-linejoin="round"></path>
                        <path d="M109.015735,36.0044957 C109.015735,37.9369277 107.727447,39.2252157 105.795015,39.2252157 L46.5337674,39.2252157 C44.6013354,39.2252157 43.3130474,37.9369277 43.3130474,36.0044957 L43.3130474,34.7162077 C43.3130474,32.7837757 44.6013354,31.4954877 46.5337674,31.4954877 L105.795015,31.4954877 C107.727447,31.4954877 109.015735,32.7837757 109.015735,34.7162077 L109.015735,36.0044957 Z" id="Shape" stroke="#45413C" fill="#00B8F0" fill-rule="nonzero" stroke-linejoin="round"></path>
                        <path d="M20.1238636,46.6328716 L35.5833195,46.6328716" id="Shape" stroke="#45413C" stroke-linecap="round" stroke-linejoin="round"></path>
                        <path d="M20.1238636,54.3625995 L35.5833195,54.3625995" id="Shape" stroke="#45413C" stroke-linecap="round" stroke-linejoin="round"></path>
                        <path d="M20.1238636,62.4143995 L35.5833195,62.4143995" id="Shape" stroke="#45413C" stroke-linecap="round" stroke-linejoin="round"></path>
                        <path d="M20.1238636,70.1441274 L35.5833195,70.1441274" id="Shape" stroke="#45413C" stroke-linecap="round" stroke-linejoin="round"></path>
                        <path d="M20.1238636,77.8738553 L35.5833195,77.8738553" id="Shape" stroke="#45413C" stroke-linecap="round" stroke-linejoin="round"></path>
                        <path d="M20.1238636,85.2815113 L29.7860236,85.2815113" id="Shape" stroke="#45413C" stroke-linecap="round" stroke-linejoin="round"></path>
                    </g>
                    <path d="M168.731943,127.472943 C168.087799,129.405375 167.121583,129.727447 166.155367,127.795015 L153.594559,97.5202472 C152.628343,95.5878152 153.594559,94.6215992 155.526991,95.5878152 L185.801758,108.148623 C187.73419,109.114839 187.73419,110.081055 185.479686,110.725199 L175.817527,113.301775 C173.885095,113.945919 171.630591,115.878351 170.986447,118.132855 L168.731943,127.472943 Z" id="mouse" stroke="#45413C" fill="#FFFFFF" fill-rule="nonzero" stroke-linejoin="round"></path>
                </g>
                <ellipse id="shadow" fill="#45413C" fill-rule="nonzero" opacity="0.15" cx="68.2454794" cy="159.035999" rx="48.9549436" ry="4.83107996"></ellipse>
            </g>
        </g>
    </g>
</svg>