<?xml version="1.0" encoding="UTF-8"?>
<svg width="316px" height="316px" viewBox="0 0 316 316" version="1.1" xmlns="http://www.w3.org/2000/svg" xmlns:xlink="http://www.w3.org/1999/xlink">
    <!-- Generator: Sketch 46.2 (44496) - http://www.bohemiancoding.com/sketch -->
    <title>branchenbuch1 copy</title>
    <desc>Created with Sketch.</desc>
    <defs>
        <filter x="-10.2%" y="-10.2%" width="120.4%" height="120.4%" filterUnits="objectBoundingBox" id="filter-1">
            <feOffset dx="0" dy="0" in="SourceAlpha" result="shadowOffsetOuter1"></feOffset>
            <feGaussianBlur stdDeviation="7" in="shadowOffsetOuter1" result="shadowBlurOuter1"></feGaussianBlur>
            <feColorMatrix values="0 0 0 0 0   0 0 0 0 0   0 0 0 0 0  0 0 0 0.15 0" type="matrix" in="shadowBlurOuter1" result="shadowMatrixOuter1"></feColorMatrix>
            <feMerge>
                <feMergeNode in="shadowMatrixOuter1"></feMergeNode>
                <feMergeNode in="SourceGraphic"></feMergeNode>
            </feMerge>
        </filter>
    </defs>
    <g id="Page-1" stroke="none" stroke-width="1" fill="none" fill-rule="evenodd">
        <g id="branchenbuch1-copy" filter="url(#filter-1)" transform="translate(21.000000, 21.000000)">
            <g id="shadow">
                <g id="path-1-link" transform="translate(8.000000, 8.000000)" fill-rule="nonzero" fill="#000000">
                    <path d="M129,258 C57.7572692,258 0,200.242731 0,129 C0,57.7572692 57.7572692,0 129,0 C200.242731,0 258,57.7572692 258,129 C258,200.242731 200.242731,258 129,258 Z" id="path-1"></path>
                </g>
                <g id="path-1-link" transform="translate(8.000000, 8.000000)" fill="#E3F2EF">
                    <path d="M129,258 C57.7572692,258 0,200.242731 0,129 C0,57.7572692 57.7572692,0 129,0 C200.242731,0 258,57.7572692 258,129 C258,200.242731 200.242731,258 129,258 Z" id="path-1"></path>
                </g>
                <path d="M137,273.5 C61.6151336,273.5 0.5,212.384866 0.5,137 C0.5,61.6151336 61.6151336,0.5 137,0.5 C212.384866,0.5 273.5,61.6151336 273.5,137 C273.5,212.384866 212.384866,273.5 137,273.5 Z" id="Shape" stroke="#FFFFFF" stroke-width="15"></path>
            </g>
            <g id="background" transform="translate(6.000000, 8.000000)" fill-rule="nonzero">
                <path d="M258.540478,128.828799 C258.540478,57.6508875 200.88959,0 129.711679,0 C58.5337674,0 0.882879894,57.6508875 0.882879894,128.828799 C0.882879894,147.831047 5.06981586,165.867079 12.4774718,181.970679 L247.267958,181.970679 C254.353542,165.867079 258.540478,147.831047 258.540478,128.828799 Z" id="top" fill="#BDFBFC"></path>
                <path d="M12.4774718,181.970679 C32.7680076,226.738686 77.5360153,257.657598 129.711679,257.657598 C181.887342,257.657598 226.977422,226.738686 246.945886,181.970679 L12.4774718,181.970679 Z" id="bottom" fill="#FCEFD9"></path>
                <path d="M241.14859,193.243198 C243.403094,189.700406 245.335526,185.835542 246.945886,181.970679 L12.1553998,181.970679 C13.7657598,185.835542 16.0202638,189.700406 17.9526958,193.243198 L241.14859,193.243198 Z" id="mid" fill="#FFF5E3"></path>
            </g>
            <g id="Illustration" transform="translate(15.000000, 73.000000)">
                <g id="Group">
                    <path d="M67.5236111,50.7272727 L40.5763889,50.7272727 C39.6680556,50.7272727 39.0625,51.3347107 39.0625,52.2458678 L39.0625,116.02686 C39.0625,116.938017 39.6680556,117.545455 40.5763889,117.545455 L67.5236111,117.545455 C68.4319444,117.545455 69.0375,116.938017 69.0375,116.02686 L69.0375,52.2458678 C69.0375,51.3347107 68.4319444,50.7272727 67.5236111,50.7272727 Z" id="Shape" stroke="#45413C" fill="#DAEDF7" fill-rule="nonzero" stroke-linecap="round" stroke-linejoin="round"></path>
                    <path d="M127.477904,50.7272727 L82.584596,50.7272727 C81.0713384,50.7272727 80.0625,51.3347107 80.0625,52.2458678 L80.0625,116.02686 C80.0625,116.938017 81.0713384,117.545455 82.584596,117.545455 L127.477904,117.545455 C128.991162,117.545455 130,116.938017 130,116.02686 L130,52.2458678 C130,51.3347107 128.991162,50.7272727 127.477904,50.7272727 Z" id="Shape" stroke="#45413C" fill="#DAEDF7" fill-rule="nonzero" stroke-linecap="round" stroke-linejoin="round"></path>
                    <path d="M188.270262,9.96548371 C188.270262,8.18619349 187.017736,7 185.138948,7 L129.401575,7 C127.522787,7 126.270262,8.18619349 126.270262,9.96548371 L126.270262,114.943607 C126.270262,116.722897 127.522787,117.909091 129.401575,117.909091 L185.138948,117.909091 C187.017736,117.909091 188.270262,116.722897 188.270262,114.943607 L188.270262,9.96548371 Z" id="Shape" stroke="#45413C" fill="#DAEDF7" fill-rule="nonzero" stroke-linecap="round" stroke-linejoin="round"></path>
                    <ellipse id="Oval" fill="#45413C" fill-rule="nonzero" opacity="0.15" cx="102.925" cy="160" rx="55.8625" ry="5"></ellipse>
                    <g transform="translate(0.000000, 60.958042)" stroke="#45413C" fill-rule="nonzero" id="Shape" stroke-linejoin="round">
                        <polygon fill="#DAEDF7" stroke-linecap="round" points="56.2910678 57.4712473 5.84298197 57.4712473 5.84298197 29.4853908 31.0670249 7.88227345 56.2910678 29.4853908"></polygon>
                        <path d="M56.7761456,32.9222504 C55.3209123,32.9222504 54.3507568,32.4312704 53.3806013,31.4493105 L31.5521027,12.7920728 L9.72360396,31.4493105 C7.29821522,33.4132303 3.90267098,32.9222504 1.96235998,30.9583306 C0.0220489886,28.5034309 0.507126737,25.0665713 2.44743773,23.1026516 L27.6714807,1.49953424 C29.6117917,-0.464385521 32.5222582,-0.464385521 34.4625691,1.49953424 L59.6866121,23.1026516 C62.1120008,25.0665713 62.1120008,28.5034309 60.1716898,30.9583306 C59.6866121,32.4312704 58.2313788,32.9222504 56.7761456,32.9222504 Z" fill="#E8F4FA"></path>
                        <path d="M37.8581134,57.4712473 L24.2759364,57.4712473 L24.2759364,45.1967488 C24.2759364,41.2689093 27.1864029,38.3230297 31.0670249,38.3230297 C34.9476469,38.3230297 37.8581134,41.2689093 37.8581134,45.1967488 L37.8581134,57.4712473 L37.8581134,57.4712473 Z" fill="#E8F4FA"></path>
                    </g>
                    <g transform="translate(36.875000, 0.067857)">
                        <rect id="Rectangle-path" stroke="#45413C" stroke-width="0.99999041" fill="#ADC4D9" fill-rule="nonzero" stroke-linecap="round" stroke-linejoin="round" transform="translate(107.307779, 108.816012) rotate(-45.000000) translate(-107.307779, -108.816012) " x="98.7627245" y="98.7617167" width="17.0901093" height="20.1085908"></rect>
                        <path d="M148.664052,133.986869 C153.066092,138.42647 153.066092,145.738755 148.664052,150.178357 C144.262012,154.617958 137.011593,154.617958 132.609553,150.178357 L108.527805,125.891125 C107.49203,124.846513 107.49203,123.018441 108.527805,121.712676 L120.698151,109.438483 C121.733925,108.393871 123.54653,108.393871 124.841247,109.438483 L148.664052,133.986869 Z" id="Shape" fill="#BF8256" fill-rule="nonzero"></path>
                        <path d="M120.439207,109.699637 L114.483506,115.706156 C115.51928,114.661544 117.331885,114.661544 118.626602,115.706156 L142.708351,139.993389 C146.074617,143.388378 146.851448,148.350286 145.038843,152.528734 C146.333561,152.006428 147.628278,151.222969 148.664052,150.178357 C153.066092,145.738755 153.066092,138.42647 148.664052,133.986869 L124.582304,109.699637 C123.287586,108.655024 121.474981,108.655024 120.439207,109.699637 Z" id="Shape" fill="#DEA47A" fill-rule="nonzero"></path>
                        <path d="M148.664052,133.986869 C153.066092,138.42647 153.066092,145.738755 148.664052,150.178357 C144.262012,154.617958 137.011593,154.617958 132.609553,150.178357 L108.527805,125.891125 C107.49203,124.846513 107.49203,123.018441 108.527805,121.712676 L120.698151,109.438483 C121.733925,108.393871 123.54653,108.393871 124.841247,109.438483 L148.664052,133.986869 Z" id="Shape" stroke="#45413C" stroke-linecap="round" stroke-linejoin="round"></path>
                        <ellipse id="Oval" fill="#DAEDF7" fill-rule="nonzero" cx="59.8464203" cy="60.864019" rx="59.8159563" ry="60.326351"></ellipse>
                        <path d="M59.8464203,12.0284015 C90.9196443,12.0284015 116.555054,36.0544807 119.403433,66.6093858 C119.662377,64.7813145 119.662377,62.6920903 119.662377,60.864019 C119.662377,27.4364306 92.9911926,0.537668013 59.8464203,0.537668013 C26.7016479,0.537668013 0.0304639452,27.4364306 0.0304639452,60.864019 C0.0304639452,62.6920903 0.0304639452,64.7813145 0.289407479,66.6093858 C3.39672988,36.0544807 28.7731962,12.0284015 59.8464203,12.0284015 Z" id="Shape" fill="#FFFFFF" fill-rule="nonzero"></path>
                        <ellipse id="Oval" stroke="#45413C" stroke-linecap="round" stroke-linejoin="round" cx="59.8464203" cy="60.864019" rx="59.8159563" ry="60.326351"></ellipse>
                        <ellipse id="Oval" fill="#00B8F0" fill-rule="nonzero" cx="59.8464203" cy="60.864019" rx="46.8687796" ry="47.2686993"></ellipse>
                        <path d="M26.7016479,94.5527605 C8.31665703,76.010895 8.31665703,45.978296 26.7016479,27.4364306 C45.0866388,8.89456512 74.8651452,8.89456512 93.2501361,27.4364306 L26.7016479,94.5527605 Z" id="Shape" fill="#4ACFFF" fill-rule="nonzero"></path>
                        <ellipse id="Oval" stroke="#45413C" stroke-linecap="round" stroke-linejoin="round" cx="59.8464203" cy="60.864019" rx="46.8687796" ry="47.2686993"></ellipse>
                    </g>
                    <g transform="translate(72.025706, 28.211875)" id="Shape">
                        <path d="M2.87227337,0 C1.31534014,0 0.277384656,1.04405228 0.277384656,2.61013071 L0.277384656,73.6056861 C7.28358419,77.7818952 15.5872281,80.3920259 24.4098497,80.3920259 C30.8970715,80.3920259 37.3842933,79.0869606 43.0930485,76.4768298 L43.0930485,2.61013071 C43.0930485,1.04405228 42.055093,0 40.4981597,0 L2.87227337,0 Z" fill="#80DDFF" fill-rule="nonzero"></path>
                        <path d="M43.0930485,2.61013071 C43.0930485,1.04405228 42.055093,0 40.4981597,0 L2.87227337,0 C1.31534014,0 0.277384656,1.04405228 0.277384656,2.61013071 L0.277384656,57.4228757 L43.0930485,14.3557189 L43.0930485,2.61013071 Z" fill="#B8ECFF" fill-rule="nonzero"></path>
                        <path d="M0.277384656,8.61343135 L20.2580278,8.61343135" stroke="#45413C" stroke-linecap="round" stroke-linejoin="round"></path>
                        <path d="M0.277384656,17.2268627 L11.694895,17.2268627" stroke="#45413C" stroke-linecap="round" stroke-linejoin="round"></path>
                        <path d="M2.87227337,0 C1.31534014,0 0.277384656,1.04405228 0.277384656,2.61013071 L0.277384656,73.6056861 C7.28358419,77.7818952 15.5872281,80.3920259 24.4098497,80.3920259 C30.8970715,80.3920259 37.3842933,79.0869606 43.0930485,76.4768298 L43.0930485,2.61013071 C43.0930485,1.04405228 42.055093,0 40.4981597,0 L2.87227337,0 Z" stroke="#45413C" stroke-linecap="round" stroke-linejoin="round"></path>
                    </g>
                    <g transform="translate(96.631200, 62.219230)" id="Shape">
                        <path d="M20.9977475,34.4254078 C20.9977475,32.8492633 22.3101067,31.5358096 23.8849378,31.5358096 L29.6593184,31.5358096 C30.7092057,31.5358096 31.4966213,32.0611911 32.0215649,32.8492633 C36.7460581,28.3835205 40.420664,23.1297055 43.0453824,17.0878181 L3.67460581,17.0878181 L3.67460581,45.7211102 C9.97393007,45.1957287 15.7483106,43.3568934 20.9977475,40.7299859 L20.9977475,34.4254078 Z" fill="#F7E5C6" fill-rule="nonzero"></path>
                        <path d="M45.407629,9.99516782 L29.1343747,1.06368223 C27.5595436,0.27560997 25.7222407,0.27560997 24.1474096,1.06368223 L0.262471844,14.1982199 L0.262471844,17.0878181 L43.0453824,17.0878181 C44.0952698,14.7236014 44.8826853,12.3593846 45.407629,9.99516782 Z" fill="#FF6242" fill-rule="nonzero"></path>
                        <path d="M45.407629,9.99516782 L29.1343747,1.06368223 C27.5595436,0.27560997 25.7222407,0.27560997 24.1474096,1.06368223 L0.262471844,14.1982199 L0.262471844,17.0878181 L4.1995495,17.0878181 L24.6723533,6.05480653 C25.9847125,5.26673427 27.5595436,5.26673427 28.8719028,6.05480653 L44.0952698,14.4609106 C44.6202135,12.8847661 45.1451571,11.3086216 45.407629,9.99516782 Z" fill="#FF866E" fill-rule="nonzero"></path>
                        <path d="M45.407629,9.99516782 L29.1343747,1.06368223 C27.5595436,0.27560997 25.7222407,0.27560997 24.1474096,1.06368223 L0.262471844,14.1982199 L0.262471844,17.0878181 L43.0453824,17.0878181 C44.0952698,14.7236014 44.8826853,12.3593846 45.407629,9.99516782 Z" stroke="#45413C" stroke-linecap="round" stroke-linejoin="round"></path>
                        <path d="M3.67460581,17.0878181 L3.67460581,22.8670147 L40.1581921,22.8670147 C41.2080795,21.0281794 42.2579669,19.1893442 43.0453824,17.0878181 L3.67460581,17.0878181 Z" fill="#F0D5A8" fill-rule="nonzero"></path>
                        <path d="M29.6593184,31.5358096 L23.8849378,31.5358096 C22.3101067,31.5358096 20.9977475,32.8492633 20.9977475,34.4254078 L20.9977475,40.7299859 C24.9348252,38.6284599 28.8719028,36.0015524 32.0215649,32.8492633 C31.4966213,32.0611911 30.7092057,31.5358096 29.6593184,31.5358096 Z" stroke="#45413C" fill="#915E3A" fill-rule="nonzero" stroke-linecap="round" stroke-linejoin="round"></path>
                        <path d="M20.9977475,34.4254078 C20.9977475,32.8492633 22.3101067,31.5358096 23.8849378,31.5358096 L29.6593184,31.5358096 C30.7092057,31.5358096 31.4966213,32.0611911 32.0215649,32.8492633 C36.7460581,28.3835205 40.420664,23.1297055 43.0453824,17.0878181 L3.67460581,17.0878181 L3.67460581,45.7211102 C9.97393007,45.1957287 15.7483106,43.3568934 20.9977475,40.7299859 L20.9977475,34.4254078 Z" stroke="#45413C" stroke-linecap="round" stroke-linejoin="round"></path>
                    </g>
                    <g transform="translate(57.965424, 56.355893)" id="Shape">
                        <path d="M2.70269872,0 C1.10920005,0 0.0468676079,1.04734953 0.0468676079,2.61837382 L0.0468676079,31.6823233 C8.01436096,42.6794933 20.4967672,50.5346148 35.1038383,51.5819643 L35.1038383,2.61837382 C35.1038383,1.04734953 34.0415059,0 32.4480072,0 L2.70269872,0 Z" fill="#BDBEC0" fill-rule="nonzero"></path>
                        <path d="M35.1038383,2.61837382 C35.1038383,1.04734953 34.0415059,0 32.4480072,0 L2.70269872,0 C1.10920005,0 0.0468676079,1.04734953 0.0468676079,2.61837382 L0.0468676079,31.6823233 C1.64036628,34.0388597 3.49944806,36.1335588 5.35852984,37.9664204 L35.1038383,8.64063362 L35.1038383,2.61837382 Z" fill="#E0E0E0" fill-rule="nonzero"></path>
                        <path d="M0.0468676079,8.64063362 L35.1038383,8.64063362" stroke="#45413C" stroke-linecap="round" stroke-linejoin="round"></path>
                        <path d="M0.0468676079,17.2812672 L35.1038383,17.2812672" stroke="#45413C" stroke-linecap="round" stroke-linejoin="round"></path>
                        <path d="M0.0468676079,25.9219009 L35.1038383,25.9219009" stroke="#45413C" stroke-linecap="round" stroke-linejoin="round"></path>
                        <path d="M8.81111029,5.76042241 L8.81111029,8.64063362" stroke="#45413C" stroke-linecap="round" stroke-linejoin="round"></path>
                        <path d="M17.575353,5.76042241 L17.575353,8.64063362" stroke="#45413C" stroke-linecap="round" stroke-linejoin="round"></path>
                        <path d="M26.3395957,5.76042241 L26.3395957,8.64063362" stroke="#45413C" stroke-linecap="round" stroke-linejoin="round"></path>
                        <path d="M8.81111029,14.401056 L8.81111029,17.2812672" stroke="#45413C" stroke-linecap="round" stroke-linejoin="round"></path>
                        <path d="M17.575353,14.401056 L17.575353,17.2812672" stroke="#45413C" stroke-linecap="round" stroke-linejoin="round"></path>
                        <path d="M26.3395957,14.401056 L26.3395957,17.2812672" stroke="#45413C" stroke-linecap="round" stroke-linejoin="round"></path>
                        <path d="M8.81111029,23.0416896 L8.81111029,25.9219009" stroke="#45413C" stroke-linecap="round" stroke-linejoin="round"></path>
                        <path d="M17.575353,23.0416896 L17.575353,25.9219009" stroke="#45413C" stroke-linecap="round" stroke-linejoin="round"></path>
                        <path d="M26.3395957,23.0416896 L26.3395957,25.9219009" stroke="#45413C" stroke-linecap="round" stroke-linejoin="round"></path>
                        <path d="M8.81111029,31.6823233 L8.81111029,34.5625345" stroke="#45413C" stroke-linecap="round" stroke-linejoin="round"></path>
                        <path d="M17.575353,31.6823233 L17.575353,34.5625345" stroke="#45413C" stroke-linecap="round" stroke-linejoin="round"></path>
                        <path d="M26.3395957,31.6823233 L26.3395957,34.5625345" stroke="#45413C" stroke-linecap="round" stroke-linejoin="round"></path>
                        <path d="M17.575353,40.3229569 L17.575353,43.2031681" stroke="#45413C" stroke-linecap="round" stroke-linejoin="round"></path>
                        <path d="M26.3395957,40.3229569 L26.3395957,43.2031681" stroke="#45413C" stroke-linecap="round" stroke-linejoin="round"></path>
                        <path d="M26.3395957,48.9635905 L26.3395957,50.01094" stroke="#45413C" stroke-linecap="round" stroke-linejoin="round"></path>
                        <g stroke="#45413C" stroke-linecap="round" stroke-linejoin="round">
                            <path d="M11.7325245,43.2031681 C18.3721023,47.916241 26.3395957,50.7964522 35.1038383,51.5819643 L35.1038383,43.2031681 L11.7325245,43.2031681 Z"></path>
                            <path d="M11.7325245,43.2031681 L35.1038383,43.2031681 L35.1038383,34.5625345 L2.1715325,34.5625345 C5.09294673,37.7045831 8.27994407,40.5847943 11.7325245,43.2031681 Z"></path>
                            <path d="M35.1038383,34.5625345 L35.1038383,2.61837382 C35.1038383,1.04734953 34.0415059,0 32.4480072,0 L2.70269872,0 C1.10920005,0 0.0468676079,1.04734953 0.0468676079,2.61837382 L0.0468676079,31.6823233 C0.843616943,32.7296728 1.37478317,33.7770223 2.1715325,34.5625345 L35.1038383,34.5625345 L35.1038383,34.5625345 Z"></path>
                        </g>
                    </g>
                </g>
            </g>
            <path d="M85.3435721,208.48603 C82.8959819,208.48603 80.4430709,207.487946 78.5754531,205.480371 L65.8054173,191.792362 C62.0648609,187.782916 62.0648609,181.286815 65.8054173,177.277369 C69.5459736,173.267923 75.6117406,173.267923 79.352297,177.277369 L85.348893,183.70503 L100.928337,167.011362 C104.668893,162.996213 110.729339,162.996213 114.469896,167.011362 C118.210452,171.020808 118.210452,177.516909 114.469896,181.526355 L92.1223329,205.480371 C90.2440734,207.482243 87.7964832,208.48603 85.3435721,208.48603 Z" id="Shape" fill="#6DD627" fill-rule="nonzero"></path>
            <path d="M85.3435721,208.48603 C82.8959819,208.48603 80.4430709,207.487946 78.5754531,205.480371 L65.8054173,191.792362 C62.0648609,187.782916 62.0648609,181.286815 65.8054173,177.277369 C69.5459736,173.267923 75.6117406,173.267923 79.352297,177.277369 L85.348893,183.70503 L100.928337,167.011362 C104.668893,162.996213 110.729339,162.996213 114.469896,167.011362 C118.210452,171.020808 118.210452,177.516909 114.469896,181.526355 L92.1223329,205.480371 C90.2440734,207.482243 87.7964832,208.48603 85.3435721,208.48603 Z" id="Shape" stroke="#45413C" stroke-linecap="round" stroke-linejoin="round"></path>
        </g>
    </g>
</svg>