<?xml version="1.0" encoding="UTF-8"?>
<svg width="316px" height="316px" viewBox="0 0 316 316" version="1.1" xmlns="http://www.w3.org/2000/svg" xmlns:xlink="http://www.w3.org/1999/xlink">
    <!-- Generator: Sketch 46.2 (44496) - http://www.bohemiancoding.com/sketch -->
    <title>Energy Copy</title>
    <desc>Created with Sketch.</desc>
    <defs>
        <filter x="-10.2%" y="-10.2%" width="120.4%" height="120.4%" filterUnits="objectBoundingBox" id="filter-1">
            <feOffset dx="0" dy="0" in="SourceAlpha" result="shadowOffsetOuter1"></feOffset>
            <feGaussianBlur stdDeviation="7" in="shadowOffsetOuter1" result="shadowBlurOuter1"></feGaussianBlur>
            <feColorMatrix values="0 0 0 0 0   0 0 0 0 0   0 0 0 0 0  0 0 0 0.15 0" type="matrix" in="shadowBlurOuter1" result="shadowMatrixOuter1"></feColorMatrix>
            <feMerge>
                <feMergeNode in="shadowMatrixOuter1"></feMergeNode>
                <feMergeNode in="SourceGraphic"></feMergeNode>
            </feMerge>
        </filter>
    </defs>
    <g id="Page-1" stroke="none" stroke-width="1" fill="none" fill-rule="evenodd">
        <g id="Energy-Copy" filter="url(#filter-1)" transform="translate(21.000000, 21.000000)">
            <g id="shadow">
                <g id="path-1-link" transform="translate(8.000000, 8.000000)" fill-rule="nonzero" fill="#000000">
                    <path d="M129,258 C57.7572692,258 0,200.242731 0,129 C0,57.7572692 57.7572692,0 129,0 C200.242731,0 258,57.7572692 258,129 C258,200.242731 200.242731,258 129,258 Z" id="path-1"></path>
                </g>
                <g id="path-1-link" transform="translate(8.000000, 8.000000)" fill="#E3F2EF">
                    <path d="M129,258 C57.7572692,258 0,200.242731 0,129 C0,57.7572692 57.7572692,0 129,0 C200.242731,0 258,57.7572692 258,129 C258,200.242731 200.242731,258 129,258 Z" id="path-1"></path>
                </g>
                <path d="M137,273.5 C61.6151336,273.5 0.5,212.384866 0.5,137 C0.5,61.6151336 61.6151336,0.5 137,0.5 C212.384866,0.5 273.5,61.6151336 273.5,137 C273.5,212.384866 212.384866,273.5 137,273.5 Z" id="Shape" stroke="#FFFFFF" stroke-width="15"></path>
            </g>
            <g id="background" transform="translate(6.000000, 8.000000)" fill-rule="nonzero">
                <path d="M258.540478,128.828799 C258.540478,57.6508875 200.88959,0 129.711679,0 C58.5337674,0 0.882879894,57.6508875 0.882879894,128.828799 C0.882879894,147.831047 5.06981586,165.867079 12.4774718,181.970679 L247.267958,181.970679 C254.353542,165.867079 258.540478,147.831047 258.540478,128.828799 Z" id="top" fill="#BDFBFC"></path>
                <path d="M12.4774718,181.970679 C32.7680076,226.738686 77.5360153,257.657598 129.711679,257.657598 C181.887342,257.657598 226.977422,226.738686 246.945886,181.970679 L12.4774718,181.970679 Z" id="bottom" fill="#FFEF9E"></path>
                <path d="M241.14859,193.243198 C243.403094,189.700406 245.335526,185.835542 246.945886,181.970679 L12.1553998,181.970679 C13.7657598,185.835542 16.0202638,189.700406 17.9526958,193.243198 L241.14859,193.243198 Z" id="mid" fill="#FFFACF"></path>
            </g>
            <g id="Group" transform="translate(59.165250, 64.993677) rotate(-15.000000) translate(-59.165250, -64.993677) translate(29.665250, 31.493677)">
                <path d="M47,29.2093023 C47,19.4418605 38.9594595,12 29.5,12 C20.0405405,12 12,19.9069767 12,29.2093023 C12,33.3953488 13.4189189,37.5813953 16.2567568,40.372093 C18.6216216,43.1627907 20.0405405,46.8837209 20.0405405,50.1395349 L20.0405405,52 L39.4324324,52 L39.4324324,50.1395349 C39.4324324,46.4186047 40.8513514,43.1627907 43.2162162,40.372093 C45.5810811,37.5813953 47,33.3953488 47,29.2093023 Z" id="Shape" fill="#FFE500" fill-rule="nonzero"></path>
                <path d="M29.5,19.4666667 C38.0135135,19.4666667 44.6351351,25.0666667 46.527027,33 C47,31.6 47,30.6666667 47,29.2666667 C47,19.4666667 38.9594595,12 29.5,12 C20.0405405,12 12,19.9333333 12,29.2666667 C12,30.6666667 12,32.0666667 12.472973,33 C14.3648649,25.5333333 20.9864865,19.4666667 29.5,19.4666667 Z" id="Shape" fill="#FFF48C" fill-rule="nonzero"></path>
                <path d="M47,29.2093023 C47,19.4418605 38.9594595,12 29.5,12 C20.0405405,12 12,19.9069767 12,29.2093023 C12,33.3953488 13.4189189,37.5813953 16.2567568,40.372093 C18.6216216,43.1627907 20.0405405,46.8837209 20.0405405,50.1395349 L20.0405405,52 L39.4324324,52 L39.4324324,50.1395349 C39.4324324,46.4186047 40.8513514,43.1627907 43.2162162,40.372093 C45.5810811,37.5813953 47,33.3953488 47,29.2093023 Z" id="Shape" stroke="#45413C" stroke-linejoin="round"></path>
                <path d="M35.2353604,60 L23.6934207,60 C21.3850328,60 20,58.25 20,56.5 L20,53 L36.8076923,53 L39,53 L39,56.5 C39,58.6 37.5437483,60 35.2353604,60 Z" id="Shape" stroke="#45413C" fill="#8CA4B8" fill-rule="nonzero" stroke-linejoin="round"></path>
                <path d="M29.5,67 C26.75,67 24,64.375 24,61.75 L24,60 L35,60 L35,61.75 C35,64.8125 32.25,67 29.5,67 Z" id="Shape" stroke="#45413C" fill="#8CA4B8" fill-rule="nonzero" stroke-linejoin="round"></path>
                <path d="M29,3.2 L29,0" id="Shape" stroke="#45413C" stroke-linecap="round" stroke-linejoin="round"></path>
                <path d="M47,11.4 L49.4,9" id="Shape" stroke="#45413C" stroke-linecap="round" stroke-linejoin="round"></path>
                <path d="M55,29 L58.2,29" id="Shape" stroke="#45413C" stroke-linecap="round" stroke-linejoin="round"></path>
                <path d="M11.4,11.4 L9,9" id="Shape" stroke="#45413C" stroke-linecap="round" stroke-linejoin="round"></path>
                <path d="M3.2,29 L0,29" id="Shape" stroke="#45413C" stroke-linecap="round" stroke-linejoin="round"></path>
            </g>
            <g id="Group" transform="translate(41.000000, 105.000000)">
                <ellipse id="Oval" fill="#45413C" fill-rule="nonzero" opacity="0.15" cx="98" cy="118.923387" rx="95.764" ry="6.0483871"></ellipse>
                <path d="M178,94.0403226 L18,94.0403226 C15.792,94.0403226 14,95.8467742 14,98.0725806 L14,106.903226 L182,106.903226 L182,98.0725806 C182,95.8467742 180.208,94.0403226 178,94.0403226 Z" id="Shape" stroke="#45413C" fill="#F0F0F0" fill-rule="nonzero" stroke-linecap="round" stroke-linejoin="round"></path>
                <path d="M182,106.903226 L14,106.903226 C16.608,112.16129 21.936,115.479839 27.768,115.479839 L168.3,115.479839 C174.08,115.479839 179.384,112.181452 181.968,106.967742 C181.988,106.927419 182,106.903226 182,106.903226 Z" id="Shape" stroke="#45413C" fill="#BDBEC0" fill-rule="nonzero" stroke-linecap="round" stroke-linejoin="round"></path>
                <path d="M169.24,12.0685484 C169.24,7.61290323 165.66,4.00403226 161.24,4.00403226 L34.76,4.00403226 C30.34,4.00403226 26.76,7.61290323 26.76,12.0685484 L26.76,94.0403226 L169.24,94.0403226 L169.24,12.0685484 Z" id="Shape" fill="#00B8F0" fill-rule="nonzero"></path>
                <path d="M34.76,4.00403226 C30.34,4.00403226 26.76,7.61290323 26.76,12.0685484 L26.76,94.0403226 L27.568,94.0403226 L116.884,4.00403226 L34.76,4.00403226 Z" id="Shape" fill="#4ACFFF" fill-rule="nonzero"></path>
                <path d="M169.24,12.0685484 C169.24,7.61290323 165.656,4.00403226 161.24,4.00403226 L34.76,4.00403226 C30.344,4.00403226 26.76,7.61290323 26.76,12.0685484 L26.76,94.0403226 L169.24,94.0403226 L169.24,12.0685484 Z" id="Shape" stroke="#45413C"></path>
            </g>
            <g id="Group-12" transform="translate(77.000000, 128.000000)">
                <path d="M55.6893204,40.0075472 L34.5664837,40.0075472 C30.144618,40.0075472 30.0582524,43.5712604 30.0582524,47.9622642 C30.0582524,52.3532679 30.144618,55.9169811 34.5664837,55.9169811 L55.6893204,55.9169811 L55.6893204,40.0075472 Z" id="Shape-Copy-2" fill="#6DD627" fill-rule="nonzero" transform="translate(42.873786, 47.962264) rotate(90.000000) translate(-42.873786, -47.962264) "></path>
                <path d="M28.8932039,37.4339623 L0.780075981,37.4339623 C-3.64178978,37.4339623 -3.72815534,40.9976755 -3.72815534,45.3886792 C-3.72815534,49.779683 -3.64178978,53.3433962 0.780075981,53.3433962 L28.8932039,53.3433962 L28.8932039,37.4339623 Z" id="Shape-Copy-7" fill="#6DD627" fill-rule="nonzero" transform="translate(12.582524, 45.388679) rotate(90.000000) translate(-12.582524, -45.388679) "></path>
                <path d="M105.039054,22.8797801 L48.129371,22.8797801 C43.7075053,22.8797801 43.6211397,26.4434934 43.6211397,30.8344971 C43.6211397,35.2255009 43.7075053,38.7892141 48.129371,38.7892141 L105.039054,38.7892141 L105.039054,22.8797801 Z" id="Shape-Copy-3" fill="#FF6242" fill-rule="nonzero" transform="translate(74.330097, 30.834497) rotate(90.000000) translate(-74.330097, -30.834497) "></path>
                <path d="M129.505074,28.7288368 L84.2458759,28.7288368 C79.8240101,28.7288368 79.7376446,32.29255 79.7376446,36.6835537 C79.7376446,41.0745575 79.8240101,44.6382707 84.2458759,44.6382707 L129.505074,44.6382707 L129.505074,28.7288368 Z" id="Shape-Copy-5" fill="#FFE500" fill-rule="nonzero" transform="translate(104.621359, 36.683554) rotate(90.000000) translate(-104.621359, -36.683554) "></path>
                <path d="M59.7911524,52.0323429 L59.9758379,44.0776259 L38.6683157,44.0776259 C34.24645,44.0776259 34.1600844,47.6413391 34.1600844,52.0323429 L59.7911524,52.0323429 Z" id="Shape-Copy-2" fill="#9CEB60" fill-rule="nonzero" transform="translate(47.067961, 48.054984) rotate(90.000000) translate(-47.067961, -48.054984) "></path>
                <path d="M32.9950359,49.458758 L33.1797214,41.504041 L4.88190798,41.504041 C0.460042212,41.504041 0.373676657,45.0677542 0.373676657,49.458758 L32.9950359,49.458758 Z" id="Shape-Copy-8" fill="#9CEB60" fill-rule="nonzero" transform="translate(16.776699, 45.481400) rotate(90.000000) translate(-16.776699, -45.481400) "></path>
                <path d="M109.048544,34.8118556 L109.233229,26.8571386 L52.3235458,26.8571386 C47.90168,26.8571386 47.8153145,30.4208518 47.8153145,34.8118556 L109.048544,34.8118556 Z" id="Shape-Copy-4" fill="#FF866E" fill-rule="nonzero" transform="translate(78.524272, 30.834497) rotate(90.000000) translate(-78.524272, -30.834497) "></path>
                <path d="M133.514563,40.6609122 L133.699249,32.7061952 L88.4400507,32.7061952 C84.0181849,32.7061952 83.9318193,36.2699084 83.9318193,40.6609122 L133.514563,40.6609122 Z" id="Shape-Copy-6" fill="#FFF48C" fill-rule="nonzero" transform="translate(108.815534, 36.683554) rotate(90.000000) translate(-108.815534, -36.683554) "></path>
                <path d="M0.582524272,61.4150943 L119.440318,61.4150943" id="Line-2" stroke="#45413C" stroke-linecap="round" stroke-linejoin="round"></path>
            </g>
        </g>
    </g>
</svg>