<?xml version="1.0" encoding="UTF-8"?>
<svg width="316px" height="316px" viewBox="0 0 316 316" version="1.1" xmlns="http://www.w3.org/2000/svg" xmlns:xlink="http://www.w3.org/1999/xlink">
    <!-- Generator: Sketch 46.2 (44496) - http://www.bohemiancoding.com/sketch -->
    <title>documents</title>
    <desc>Created with Sketch.</desc>
    <defs>
        <filter x="-7.6%" y="-10.2%" width="115.1%" height="120.4%" filterUnits="objectBoundingBox" id="filter-1">
            <feOffset dx="0" dy="0" in="SourceAlpha" result="shadowOffsetOuter1"></feOffset>
            <feGaussianBlur stdDeviation="7" in="shadowOffsetOuter1" result="shadowBlurOuter1"></feGaussianBlur>
            <feColorMatrix values="0 0 0 0 0   0 0 0 0 0   0 0 0 0 0  0 0 0 0.15 0" type="matrix" in="shadowBlurOuter1" result="shadowMatrixOuter1"></feColorMatrix>
            <feMerge>
                <feMergeNode in="shadowMatrixOuter1"></feMergeNode>
                <feMergeNode in="SourceGraphic"></feMergeNode>
            </feMerge>
        </filter>
    </defs>
    <g id="Page-1" stroke="none" stroke-width="1" fill="none" fill-rule="evenodd">
        <g id="documents" filter="url(#filter-1)" transform="translate(12.000000, 21.000000)">
            <g id="shadow" transform="translate(9.000000, 0.000000)">
                <g id="path-1-link" transform="translate(8.000000, 8.000000)" fill-rule="nonzero" fill="#000000">
                    <path d="M129,258 C57.7572692,258 0,200.242731 0,129 C0,57.7572692 57.7572692,0 129,0 C200.242731,0 258,57.7572692 258,129 C258,200.242731 200.242731,258 129,258 Z" id="path-1"></path>
                </g>
                <g id="path-1-link" transform="translate(8.000000, 8.000000)" fill="#E3F2EF">
                    <path d="M129,258 C57.7572692,258 0,200.242731 0,129 C0,57.7572692 57.7572692,0 129,0 C200.242731,0 258,57.7572692 258,129 C258,200.242731 200.242731,258 129,258 Z" id="path-1"></path>
                </g>
                <path d="M137,273.5 C61.6151336,273.5 0.5,212.384866 0.5,137 C0.5,61.6151336 61.6151336,0.5 137,0.5 C212.384866,0.5 273.5,61.6151336 273.5,137 C273.5,212.384866 212.384866,273.5 137,273.5 Z" id="Shape" stroke="#FFFFFF" stroke-width="15"></path>
            </g>
            <g id="background" transform="translate(15.000000, 8.000000)" fill-rule="nonzero">
                <path d="M258.540478,128.828799 C258.540478,57.6508875 200.88959,0 129.711679,0 C58.5337674,0 0.882879894,57.6508875 0.882879894,128.828799 C0.882879894,147.831047 5.06981586,165.867079 12.4774718,181.970679 L247.267958,181.970679 C254.353542,165.867079 258.540478,147.831047 258.540478,128.828799 Z" id="top" fill="#BDFBFC"></path>
                <path d="M12.4774718,181.970679 C32.7680076,226.738686 77.5360153,257.657598 129.711679,257.657598 C181.887342,257.657598 226.977422,226.738686 246.945886,181.970679 L12.4774718,181.970679 Z" id="bottom" fill="#FCEFD9"></path>
                <path d="M241.14859,193.243198 C243.403094,189.700406 245.335526,185.835542 246.945886,181.970679 L12.1553998,181.970679 C13.7657598,185.835542 16.0202638,189.700406 17.9526958,193.243198 L241.14859,193.243198 Z" id="mid" fill="#FFF5E3"></path>
            </g>
            <g id="Illustration" transform="translate(0.000000, 66.000000)">
                <g id="Group" transform="translate(39.000000, 0.000000)">
                    <ellipse id="Oval" fill="#45413C" fill-rule="nonzero" opacity="0.15" cx="83.2535882" cy="146.124834" rx="83.1361765" ry="5.02365591"></ellipse>
                    <g id="Group-10" transform="translate(2.000000, 0.000000)">
                        <path d="M101.550647,132.756806 C101.550647,134.789712 99.8976471,136.44082 97.8624118,136.44082 L4.12758824,136.44082 C2.09235294,136.44082 0.439352941,134.789712 0.439352941,132.756806 L0.439352941,3.81630394 C0.439352941,1.78339785 2.09235294,0.132289606 4.12758824,0.132289606 L81.5805294,0.132289606 C82.5595882,0.132289606 83.4950588,0.520785663 84.1891176,1.21070108 L100.467647,17.4706007 C101.158353,18.1638652 101.547294,19.0982652 101.547294,20.0762036 L101.547294,132.756806 L101.550647,132.756806 Z" id="Shape" fill="#F0F0F0" fill-rule="nonzero"></path>
                        <path d="M0.439352941,14.868347 C0.439352941,12.8354409 2.09235294,11.1843326 4.12758824,11.1843326 L94.1741765,11.1843326 L84.1891176,1.21070108 C83.4950588,0.520785663 82.5595882,0.132289606 81.5805294,0.132289606 L4.12758824,0.132289606 C2.09235294,0.132289606 0.439352941,1.78339785 0.439352941,3.81630394 L0.439352941,14.868347 L0.439352941,14.868347 Z" id="Shape" fill="#FFFFFF" fill-rule="nonzero"></path>
                        <path d="M101.550647,132.756806 C101.550647,134.789712 99.8976471,136.44082 97.8624118,136.44082 L4.12758824,136.44082 C2.09235294,136.44082 0.439352941,134.789712 0.439352941,132.756806 L0.439352941,3.81630394 C0.439352941,1.78339785 2.09235294,0.132289606 4.12758824,0.132289606 L81.5805294,0.132289606 C82.5595882,0.132289606 83.4950588,0.520785663 84.1891176,1.21070108 L100.467647,17.4706007 C101.158353,18.1638652 101.547294,19.0982652 101.547294,20.0762036 L101.547294,132.756806 L101.550647,132.756806 Z" id="Shape" stroke="#45413C" stroke-linejoin="round"></path>
                        <ellipse id="Oval" stroke="#46B000" cx="31.2040588" cy="104.284691" rx="18.4411765" ry="18.4200717"></ellipse>
                        <polyline id="Shape" stroke="#46B000" stroke-linecap="round" stroke-linejoin="round" points="21.9834706 104.284691 29.3599412 111.65272 41.3467059 97.8376659"></polyline>
                        <path d="M24.4128824,44.3404616 L81.5805294,44.3404616" id="Shape" stroke="#45413C" stroke-linecap="round" stroke-linejoin="round"></path>
                        <path d="M29.6300588,33.2884186 L54.13,33.2884186" id="Shape" stroke="#45413C" stroke-linecap="round" stroke-linejoin="round"></path>
                        <path d="M24.4128824,55.3925047 L81.5805294,55.3925047" id="Shape" stroke="#45413C" stroke-linecap="round" stroke-linejoin="round"></path>
                        <path d="M24.4128824,66.4445477 L81.5805294,66.4445477" id="Shape" stroke="#45413C" stroke-linecap="round" stroke-linejoin="round"></path>
                        <path d="M83.1094706,15.2032573 C83.1094706,17.0519627 84.6115882,18.5523613 86.4624118,18.5523613 L101.191882,18.5523613 C101.010824,18.1605161 100.782824,17.7854165 100.471,17.4739498 L84.1924706,1.21405018 C83.8806471,0.902583513 83.5051176,0.674844444 83.1128235,0.493992832 L83.1128235,15.2032573 L83.1094706,15.2032573 Z" id="Shape" stroke="#45413C" fill="#FFFFFF" fill-rule="nonzero" stroke-linejoin="round"></path>
                    </g>
                    <g id="Group-11" transform="translate(55.000000, 31.000000)">
                        <path d="M114.915353,100.039673 C114.915353,101.888378 113.413235,103.388777 111.562412,103.388777 L3.933,103.388777 C2.08217647,103.388777 0.580058824,101.888378 0.580058824,100.039673 L0.580058824,90.9970925 C0.580058824,83.5989219 6.58517647,77.6006767 13.9918235,77.6006767 L101.503588,77.6006767 C108.910235,77.6006767 114.915353,83.5989219 114.915353,90.9970925 L114.915353,100.039673 Z" id="Shape" fill="#FF6242" fill-rule="nonzero"></path>
                        <path d="M114.915353,90.9970925 C114.915353,83.5989219 108.910235,77.6006767 101.503588,77.6006767 L13.9918235,77.6006767 C6.58517647,77.6006767 0.580058824,83.5989219 0.580058824,90.9970925 L0.580058824,100.039673 C0.580058824,100.277459 0.667235294,100.485104 0.714176471,100.709494 C1.39817647,93.9510022 7.04452941,88.6527197 13.9918235,88.6527197 L101.503588,88.6527197 C108.450882,88.6527197 114.097235,93.9510022 114.777882,100.709494 C114.824824,100.488453 114.915353,100.277459 114.915353,100.039673 L114.915353,90.9970925 Z" id="Shape" fill="#FF866E" fill-rule="nonzero"></path>
                        <path d="M75.0153529,29.7084903 L40.4800588,29.7084903 C39.6451765,29.7084903 38.8572353,29.537686 38.1195882,29.2597104 C39.9234706,33.017405 44.8388824,46.1391943 44.8388824,77.6006767 L70.6565294,77.6006767 C70.6565294,46.1391943 75.5719412,33.017405 77.3758235,29.2597104 C76.6381765,29.537686 75.8502353,29.7084903 75.0153529,29.7084903 Z" id="Shape" fill="#FF6242" fill-rule="nonzero"></path>
                        <path d="M40.4800588,29.7084903 C39.6451765,29.7084903 38.8572353,29.537686 38.1195882,29.2597104 C38.6091176,30.2811871 39.33,32.0227211 40.1179412,34.6015312 L75.3741176,34.6015312 C76.1620588,32.019372 76.8829412,30.277838 77.3758235,29.2597104 C76.6381765,29.537686 75.8468824,29.7084903 75.0153529,29.7084903 L40.4800588,29.7084903 Z" id="Shape" fill="#E04122" fill-rule="nonzero"></path>
                        <path d="M106.459235,112.150033 C106.003235,113.516467 104.722412,114.44082 103.277294,114.44082 L12.2181176,114.44082 C10.773,114.44082 9.49217647,113.519816 9.03617647,112.150033 L6.11241176,103.385428 L109.383,103.385428 L106.459235,112.150033 Z" id="Shape" fill="#656769" fill-rule="nonzero"></path>
                        <path d="M114.915353,100.039673 C114.915353,101.888378 113.413235,103.388777 111.562412,103.388777 L3.933,103.388777 C2.08217647,103.388777 0.580058824,101.888378 0.580058824,100.039673 L0.580058824,90.9970925 C0.580058824,83.5989219 6.58517647,77.6006767 13.9918235,77.6006767 L101.503588,77.6006767 C108.910235,77.6006767 114.915353,83.5989219 114.915353,90.9970925 L114.915353,100.039673 Z" id="Shape" stroke="#45413C" stroke-linejoin="round"></path>
                        <path d="M75.0153529,29.7084903 L40.4800588,29.7084903 C39.6451765,29.7084903 38.8572353,29.537686 38.1195882,29.2597104 C39.9234706,33.017405 44.8388824,46.1391943 44.8388824,77.6006767 L70.6565294,77.6006767 C70.6565294,46.1391943 75.5719412,33.017405 77.3758235,29.2597104 C76.6381765,29.537686 75.8502353,29.7084903 75.0153529,29.7084903 Z" id="Shape" stroke="#45413C" stroke-linejoin="round"></path>
                        <path d="M106.459235,112.150033 C106.003235,113.516467 104.722412,114.44082 103.277294,114.44082 L12.2181176,114.44082 C10.773,114.44082 9.49217647,113.519816 9.03617647,112.150033 L6.11241176,103.385428 L109.383,103.385428 L106.459235,112.150033 Z" id="Shape" stroke="#45413C" stroke-linejoin="round"></path>
                        <path d="M44.6209412,66.5486337 L70.8744706,66.5486337" id="Shape" stroke="#45413C" stroke-linejoin="round"></path>
                        <path d="M75.0153529,29.7084903 L40.4800588,29.7084903 C36.7750588,29.7084903 33.7741765,26.7110423 33.7741765,23.0102824 L33.7741765,6.93458351 C33.7741765,3.23717276 36.7750588,0.236375627 40.4800588,0.236375627 L75.0153529,0.236375627 C78.717,0.236375627 81.7212353,3.23717276 81.7212353,6.93458351 L81.7212353,23.0102824 C81.7212353,26.7110423 78.7203529,29.7084903 75.0153529,29.7084903 Z" id="Shape" fill="#FF6242" fill-rule="nonzero"></path>
                        <path d="M75.0153529,0.236375627 L40.4800588,0.236375627 C36.7750588,0.236375627 33.7741765,3.23717276 33.7741765,6.93458351 L33.7741765,16.1446194 C33.7741765,12.4472086 36.7750588,9.44641147 40.4800588,9.44641147 L75.0153529,9.44641147 C78.717,9.44641147 81.7212353,12.4472086 81.7212353,16.1446194 L81.7212353,6.93458351 C81.7212353,3.23717276 78.7203529,0.236375627 75.0153529,0.236375627 Z" id="Shape" fill="#FF866E" fill-rule="nonzero"></path>
                        <path d="M75.0153529,29.7084903 L40.4800588,29.7084903 C36.7750588,29.7084903 33.7741765,26.7110423 33.7741765,23.0102824 L33.7741765,6.93458351 C33.7741765,3.23717276 36.7750588,0.236375627 40.4800588,0.236375627 L75.0153529,0.236375627 C78.717,0.236375627 81.7212353,3.23717276 81.7212353,6.93458351 L81.7212353,23.0102824 C81.7212353,26.7110423 78.7203529,29.7084903 75.0153529,29.7084903 Z" id="Shape" stroke="#45413C" stroke-linejoin="round"></path>
                    </g>
                </g>
            </g>
        </g>
    </g>
</svg>