<?xml version="1.0" encoding="UTF-8"?>
<svg width="316px" height="316px" viewBox="0 0 316 316" version="1.1" xmlns="http://www.w3.org/2000/svg" xmlns:xlink="http://www.w3.org/1999/xlink">
    <!-- Generator: Sketch 46.2 (44496) - http://www.bohemiancoding.com/sketch -->
    <title>helpdesk</title>
    <desc>Created with Sketch.</desc>
    <defs>
        <filter x="-7.6%" y="-10.2%" width="115.2%" height="120.4%" filterUnits="objectBoundingBox" id="filter-1">
            <feOffset dx="0" dy="0" in="SourceAlpha" result="shadowOffsetOuter1"></feOffset>
            <feGaussianBlur stdDeviation="7" in="shadowOffsetOuter1" result="shadowBlurOuter1"></feGaussianBlur>
            <feColorMatrix values="0 0 0 0 0   0 0 0 0 0   0 0 0 0 0  0 0 0 0.15 0" type="matrix" in="shadowBlurOuter1" result="shadowMatrixOuter1"></feColorMatrix>
            <feMerge>
                <feMergeNode in="shadowMatrixOuter1"></feMergeNode>
                <feMergeNode in="SourceGraphic"></feMergeNode>
            </feMerge>
        </filter>
    </defs>
    <g id="Page-1" stroke="none" stroke-width="1" fill="none" fill-rule="evenodd">
        <g id="helpdesk" filter="url(#filter-1)" transform="translate(12.000000, 21.000000)">
            <g id="shadow" transform="translate(9.000000, 0.000000)">
                <g id="path-1-link" transform="translate(8.000000, 8.000000)" fill-rule="nonzero" fill="#000000">
                    <path d="M129,258 C57.7572692,258 0,200.242731 0,129 C0,57.7572692 57.7572692,0 129,0 C200.242731,0 258,57.7572692 258,129 C258,200.242731 200.242731,258 129,258 Z" id="path-1"></path>
                </g>
                <g id="path-1-link" transform="translate(8.000000, 8.000000)" fill="#E3F2EF">
                    <path d="M129,258 C57.7572692,258 0,200.242731 0,129 C0,57.7572692 57.7572692,0 129,0 C200.242731,0 258,57.7572692 258,129 C258,200.242731 200.242731,258 129,258 Z" id="path-1"></path>
                </g>
                <path d="M137,273.5 C61.6151336,273.5 0.5,212.384866 0.5,137 C0.5,61.6151336 61.6151336,0.5 137,0.5 C212.384866,0.5 273.5,61.6151336 273.5,137 C273.5,212.384866 212.384866,273.5 137,273.5 Z" id="Shape" stroke="#FFFFFF" stroke-width="15"></path>
            </g>
            <g id="background" transform="translate(15.000000, 8.000000)" fill-rule="nonzero">
                <path d="M258.540478,128.828799 C258.540478,57.6508875 200.88959,0 129.711679,0 C58.5337674,0 0.882879894,57.6508875 0.882879894,128.828799 C0.882879894,147.831047 5.06981586,165.867079 12.4774718,181.970679 L247.267958,181.970679 C254.353542,165.867079 258.540478,147.831047 258.540478,128.828799 Z" id="top" fill="#BDFBFC"></path>
                <path d="M12.4774718,181.970679 C32.7680076,226.738686 77.5360153,257.657598 129.711679,257.657598 C181.887342,257.657598 226.977422,226.738686 246.945886,181.970679 L12.4774718,181.970679 Z" id="bottom" fill="#FCEFD9"></path>
                <path d="M241.14859,193.243198 C243.403094,189.700406 245.335526,185.835542 246.945886,181.970679 L12.1553998,181.970679 C13.7657598,185.835542 16.0202638,189.700406 17.9526958,193.243198 L241.14859,193.243198 Z" id="mid" fill="#FFF5E3"></path>
            </g>
            <g id="Illustration" transform="translate(0.000000, 30.000000)">
                <g id="Group" transform="translate(32.000000, 0.000000)">
                    <path d="M109.5,93 C83.2684295,93 62,114.033684 62,139.982456 L62,163.473684 L138.730769,163.473684 C138.730769,177.222076 128.487821,179.736842 120.689904,179.736842 L113.150801,179.736842 L113.150801,196 L120.689904,196 C135.688942,196 157,192.834708 157,163.470673 L157,139.982456 C157.003045,114.033684 135.73766,93 109.5,93 Z" id="Shape" fill="#FFB0CA" fill-rule="nonzero"></path>
                    <g transform="translate(73.000000, 7.000000)" id="Shape">
                        <path d="M55.2124458,91.3767723 C65.3235758,91.3767723 73.5241814,83.2201048 73.5241814,73.1563683 L73.5241814,36.7155602 C73.5241814,15.7863894 55.7923174,-1.0219333 34.4621973,0.353707209 C14.9998742,1.60787835 0.277238746,18.5528541 0.277238746,37.9636579 L0.277238746,73.1563683 C0.277238746,83.2201048 8.47784437,91.3767723 18.5889744,91.3767723 L55.2124458,91.3767723 Z" fill="#FFDF3D" fill-rule="nonzero"></path>
                        <path d="M34.4652493,0.353707209 C14.9998742,1.60787835 0.277238746,18.5528541 0.277238746,37.9636579 L0.277238746,47.0738599 C0.277238746,27.6630561 14.9968223,10.7180804 34.4621973,9.46390923 C55.7953694,8.08826872 73.5241814,24.8965914 73.5241814,45.8257622 L73.5241814,36.7155602 C73.5241814,15.7863894 55.7953694,-1.0219333 34.4652493,0.353707209 Z" fill="#FFEF9E" fill-rule="nonzero"></path>
                        <path d="M55.2124458,91.3767723 C65.3235758,91.3767723 73.5241814,83.2201048 73.5241814,73.1563683 L73.5241814,36.7155602 C73.5241814,15.7863894 55.7923174,-1.0219333 34.4621973,0.353707209 C14.9998742,1.60787835 0.277238746,18.5528541 0.277238746,37.9636579 L0.277238746,73.1563683 C0.277238746,83.2201048 8.47784437,91.3767723 18.5889744,91.3767723 L55.2124458,91.3767723 Z" stroke="#45413C" stroke-linecap="round" stroke-linejoin="round"></path>
                    </g>
                    <path d="M109.5,93 C83.2653846,93 62,114.162568 62,140.27034 L62,153 C62,126.895258 83.2653846,105.72966 109.5,105.72966 C135.734615,105.72966 157,126.892228 157,153 L157,140.27034 C157.003045,114.162568 135.734615,93 109.5,93 Z" id="Shape" fill="#FFCCDD" fill-rule="nonzero"></path>
                    <path d="M109.5,93 C83.2684295,93 62,114.033684 62,139.982456 L62,163.473684 L138.730769,163.473684 C138.730769,177.222076 128.487821,179.736842 120.689904,179.736842 L113.150801,179.736842 L113.150801,196 L120.689904,196 C135.688942,196 157,192.834708 157,163.470673 L157,139.982456 C157.003045,114.033684 135.73766,93 109.5,93 Z" id="Shape" stroke="#45413C" stroke-linecap="round" stroke-linejoin="round"></path>
                    <path d="M80,142 L80,164" id="Shape" stroke="#45413C" stroke-linecap="round" stroke-linejoin="round"></path>
                    <path d="M139,142 L139,164" id="Shape" stroke="#45413C" stroke-linecap="round" stroke-linejoin="round"></path>
                    <ellipse id="Oval" fill="#45413C" fill-rule="nonzero" opacity="0.15" cx="63.5" cy="198.5" rx="54.5" ry="4.5"></ellipse>
                    <path d="M113,195 L107.428571,195 C103.327381,195 100,191.640625 100,187.5 C100,183.35625 103.327381,180 107.428571,180 L113,180 L113,195 Z" id="Shape" stroke="#45413C" fill="#FFCEBF" fill-rule="nonzero" stroke-linecap="round" stroke-linejoin="round"></path>
                    <path d="M109,116 L109,163" id="Shape" stroke="#45413C" stroke-linecap="round" stroke-linejoin="round"></path>
                    <polygon id="Shape" fill="#FFCEBF" fill-rule="nonzero" points="121 94.1176471 110 116 99 94.1176471 99 85 121 85"></polygon>
                    <path d="M99,93.7737186 C99.2780556,93.8990138 99.5377778,94.0365329 99.8311111,94.1526601 C105.988056,96.61578 114.011944,96.61578 120.168889,94.1526601 C120.462222,94.0365329 120.721944,93.8990138 121,93.7737186 L121,85 L99,85 L99,93.7737186 L99,93.7737186 Z" id="Shape" fill="#FFB59E" fill-rule="nonzero"></path>
                    <polygon id="Shape" stroke="#45413C" stroke-linecap="round" stroke-linejoin="round" points="121 94.1176471 110 116 99 94.1176471 99 85 121 85"></polygon>
                    <path d="M92.3577311,110.844328 C92.9309515,111.587765 93.8249377,112.017241 94.7634746,111.999469 C95.7049817,111.981698 96.5811475,111.522603 97.1276374,110.758433 L102.447004,103.332948 C103.198427,102.281474 103.183577,100.865685 102.405423,99.834944 L98.0156834,94 C92.9695622,95.2291887 88.2471768,97.2847477 84,100.012658 L92.3577311,110.844328 Z" id="Shape" stroke="#45413C" fill="#FFB0CA" fill-rule="nonzero" stroke-linecap="round" stroke-linejoin="round"></path>
                    <path d="M126.642269,110.844328 C126.069049,111.587765 125.175062,112.017241 124.236525,111.999469 C123.295018,111.981698 122.418852,111.522603 121.872363,110.758433 L116.552996,103.332948 C115.801573,102.281474 115.816423,100.865685 116.594577,99.834944 L120.984317,94 C126.030438,95.2291887 130.752823,97.2847477 135,100.012658 L126.642269,110.844328 Z" id="Shape" stroke="#45413C" fill="#FFB0CA" fill-rule="nonzero" stroke-linecap="round" stroke-linejoin="round"></path>
                    <g transform="translate(73.000000, 35.000000)">
                        <path d="M68.0367647,17.7659587 L68.0367647,10.539128 C68.0367647,9.69298663 67.9757255,8.8619011 67.9085825,8.03382675 C63.0834402,10.7619553 57.5105686,12.3458357 51.5500986,12.3458357 C41.4359166,12.3458357 32.3990751,7.83810009 26.3531503,0.761828399 C23.603338,8.62100674 17.0660484,14.1525434 9.43310658,14.1525434 C8.18180465,14.1525434 6.95797031,14.0019844 5.77686336,13.7189335 L5.77686336,17.7659587 C2.74321915,17.7659587 0.283342658,20.1929693 0.283342658,23.1860817 L0.283342658,24.9927894 C0.283342658,27.9859017 2.74321915,30.4129124 5.77686336,30.4129124 C5.95082485,30.4129124 6.11257851,30.3767782 6.28043609,30.3617223 C8.85933887,44.7581712 21.5737873,55.7068197 36.906814,55.7068197 C52.2367887,55.7068197 64.9512372,44.7611824 67.53014,30.3617223 C67.6979975,30.3767782 67.8628032,30.4129124 68.0367647,30.4129124 C71.0704089,30.4129124 73.5302854,27.9859017 73.5302854,24.9927894 L73.5302854,23.1860817 C73.5302854,20.1929693 71.0704089,17.7659587 68.0367647,17.7659587 Z" id="Shape" stroke="#45413C" fill="#FFCEBF" fill-rule="nonzero" stroke-linecap="round" stroke-linejoin="round"></path>
                        <ellipse id="Oval" fill="#FFB59E" fill-rule="nonzero" cx="18.5950783" cy="30.4129124" rx="3.66234713" ry="3.61341533"></ellipse>
                        <ellipse id="Oval" fill="#FFB59E" fill-rule="nonzero" cx="55.2185497" cy="30.4129124" rx="3.66234713" ry="3.61341533"></ellipse>
                        <path d="M27.7509462,37.639743 C33.2932982,42.4576301 40.5172779,42.4576301 46.0626818,37.639743" id="Shape" stroke="#45413C" stroke-linecap="round" stroke-linejoin="round"></path>
                        <g transform="translate(20.128931, 17.493519)" id="Shape" stroke="#45413C" stroke-linecap="round" stroke-linejoin="round">
                            <path d="M33.2584453,3.88585538 C32.3153909,2.11829304 30.6581788,0.874675933 28.6805114,0.874675933 C26.699792,0.874675933 25.0456318,2.11829304 24.1025775,3.88585538"></path>
                            <path d="M9.45318892,3.28361949 C8.51013453,1.51605715 6.85597441,0.272440045 4.875255,0.272440045 C2.89758755,0.272440045 1.24037547,1.51605715 0.297321082,3.28361949"></path>
                        </g>
                    </g>
                    <g transform="translate(65.000000, 0.000000)" stroke="#45413C" stroke-linecap="round" stroke-linejoin="round">
                        <path d="M0.289490428,65.305603 L0.289490428,70.7238466 C0.289490428,79.7000702 7.62232928,86.9785775 16.6723327,86.9785775 L25.7739118,86.9785775" id="Shape"></path>
                        <g transform="translate(-0.000000, 50.825690)" fill-rule="nonzero" id="Shape">
                            <path d="M11.2144191,18.092075 L3.93315591,18.092075 C1.92170694,18.092075 0.292524287,16.4756323 0.292524287,14.4799126 L0.292524287,3.64342531 C0.292524287,1.64770558 1.92170694,0.0312628999 3.93315591,0.0312628999 L11.2144191,0.0312628999 L11.2144191,18.092075 Z" fill="#FFFFFF"></path>
                            <path d="M7.57075366,14.4799126 C7.57075366,16.4756323 9.19993631,18.092075 11.2113853,18.092075 C13.2228343,18.092075 14.8520169,16.4756323 14.8520169,14.4799126 L14.8520169,3.64342531 C14.8520169,1.64770558 13.2228343,0.0312628999 11.2113853,0.0312628999 C9.19993631,0.0312628999 7.57075366,1.64770558 7.57075366,3.64342531 L7.57075366,14.4799126 Z" fill="#656769"></path>
                        </g>
                        <g transform="translate(72.812632, 50.825690)" fill-rule="nonzero" id="Shape">
                            <path d="M3.93012205,18.092075 L11.2113853,18.092075 C13.2228343,18.092075 14.8520169,16.4756323 14.8520169,14.4799126 L14.8520169,3.64342531 C14.8520169,1.64770558 13.2228343,0.0312628999 11.2113853,0.0312628999 L3.93012205,0.0312628999 L3.93012205,18.092075 Z" fill="#FFFFFF"></path>
                            <path d="M7.57075366,14.4799126 C7.57075366,16.4756323 5.94157101,18.092075 3.93012205,18.092075 C1.91867308,18.092075 0.289490428,16.4756323 0.289490428,14.4799126 L0.289490428,3.64342531 C0.289490428,1.64770558 1.91867308,0.0312628999 3.93012205,0.0312628999 C5.94157101,0.0312628999 7.57075366,1.64770558 7.57075366,3.64342531 L7.57075366,14.4799126 Z" fill="#656769"></path>
                        </g>
                        <ellipse id="Oval" fill="#656769" fill-rule="nonzero" cx="31.2348592" cy="86.9785775" rx="5.46094743" ry="5.41824362"></ellipse>
                        <path d="M0.289490428,59.8873594 L0.289490428,43.6326285 C0.289490428,19.6930221 19.8487838,0.286679557 43.9770698,0.286679557 C68.1053559,0.286679557 87.6646493,19.6930221 87.6646493,43.6326285 L87.6646493,59.8873594" id="Shape"></path>
                    </g>
                    <g transform="translate(0.000000, 142.000000)" id="Shape">
                        <path d="M14.2096677,46.8775778 L73.2797997,46.8775778 L58.133612,0.286275284 L3.22565237,0.286275284 C2.25629636,0.286275284 1.3475251,0.746176529 0.774999207,1.52169627 C0.20550255,2.29721602 0.0419237226,3.29817755 0.341818239,4.21196826 L14.2096677,46.8775778 Z" fill="#ADC4D9" fill-rule="nonzero"></path>
                        <path d="M3.22565237,0.286275284 C2.25629636,0.286275284 1.3475251,0.746176529 0.774999207,1.52169627 C0.20550255,2.29721602 0.0449529601,3.29817755 0.341818239,4.21196826 L11.4924416,38.5121846 L50.0152554,0.286275284 L3.22565237,0.286275284 Z" fill="#C0DCEB" fill-rule="nonzero"></path>
                        <g stroke="#45413C" stroke-linejoin="round">
                            <path d="M73.2797997,46.8775778 L79.3382748,46.8775778 L64.8706363,2.36935739 C64.4677477,1.13093051 63.3014912,0.289281175 61.9868021,0.289281175 L58.133612,0.289281175" fill="#E8F4FA" fill-rule="nonzero"></path>
                            <path d="M14.2096677,46.8775778 L76.3090372,46.8775778 L76.3090372,54.392304 L20.2681428,54.392304 C16.9238645,54.392304 14.2096677,51.702032 14.2096677,48.3805231 L14.2096677,46.8775778 Z" fill="#C0DCEB" fill-rule="nonzero"></path>
                            <path d="M76.3090372,46.8775778 L105.086794,46.8775778 C105.922863,46.8775778 106.601413,47.5508973 106.601413,48.3805231 C106.601413,51.702032 103.887216,54.392304 100.542938,54.392304 L76.3090372,54.392304 L76.3090372,46.8775778 Z" fill="#E8F4FA" fill-rule="nonzero"></path>
                            <g transform="translate(29.066806, 12.023562)">
                                <path d="M10.409732,9.89911306 C10.3915566,8.02944918 11.9455554,7.13369381 12.0182571,7.08860545 C11.1428075,5.82011967 9.77965059,5.64577802 9.29497258,5.62473679 C8.13780384,5.50750706 7.03516138,6.30406804 6.44446006,6.30406804 C5.85981722,6.30406804 4.95104595,5.64277213 3.99077765,5.66080747 C2.7275856,5.68184871 1.56132915,6.39123886 0.913072316,7.51243601 C-0.398587538,9.77286566 0.57682695,13.1214277 1.85819443,14.952015 C2.48221736,15.8507762 3.2274098,16.8577495 4.20585352,16.818673 C5.15097563,16.7856082 5.50539642,16.2174949 6.64438974,16.2174949 C7.78338305,16.2174949 8.10448223,16.818673 9.10110138,16.8036435 C10.115896,16.7856082 10.7580943,15.8898528 11.379088,14.9910915 C12.0970173,13.9480475 12.3938826,12.9410742 12.4090288,12.8899741 C12.3847949,12.8749446 10.4309367,12.1324897 10.409732,9.89911306 Z" fill="#FFFFFF" fill-rule="nonzero"></path>
                                <path d="M7.86517247,1.78922053 L9.22832936,0.433563918" stroke-linecap="round"></path>
                            </g>
                            <path d="M14.2096677,46.8775778 L73.2797997,46.8775778 L58.133612,0.286275284 L3.22565237,0.286275284 C2.25629636,0.286275284 1.3475251,0.746176529 0.774999207,1.52169627 C0.20550255,2.29721602 0.0419237226,3.29817755 0.341818239,4.21196826 L14.2096677,46.8775778 Z"></path>
                        </g>
                    </g>
                </g>
            </g>
        </g>
    </g>
</svg>