<?xml version="1.0" encoding="UTF-8"?>
<svg width="316px" height="316px" viewBox="0 0 316 316" version="1.1" xmlns="http://www.w3.org/2000/svg" xmlns:xlink="http://www.w3.org/1999/xlink">
    <!-- Generator: Sketch 46.2 (44496) - http://www.bohemiancoding.com/sketch -->
    <title>marketplace copy</title>
    <desc>Created with Sketch.</desc>
    <defs>
        <filter x="-8.2%" y="-10.2%" width="118.3%" height="120.4%" filterUnits="objectBoundingBox" id="filter-1">
            <feOffset dx="0" dy="0" in="SourceAlpha" result="shadowOffsetOuter1"></feOffset>
            <feGaussianBlur stdDeviation="7" in="shadowOffsetOuter1" result="shadowBlurOuter1"></feGaussianBlur>
            <feColorMatrix values="0 0 0 0 0   0 0 0 0 0   0 0 0 0 0  0 0 0 0.15 0" type="matrix" in="shadowBlurOuter1" result="shadowMatrixOuter1"></feColorMatrix>
            <feMerge>
                <feMergeNode in="shadowMatrixOuter1"></feMergeNode>
                <feMergeNode in="SourceGraphic"></feMergeNode>
            </feMerge>
        </filter>
    </defs>
    <g id="Page-1" stroke="none" stroke-width="1" fill="none" fill-rule="evenodd">
        <g id="marketplace-copy" filter="url(#filter-1)" transform="translate(16.000000, 21.000000)">
            <g id="shadow" transform="translate(5.000000, 0.000000)">
                <g id="path-1-link" transform="translate(8.000000, 8.000000)" fill-rule="nonzero" fill="#000000">
                    <path d="M129,258 C57.7572692,258 0,200.242731 0,129 C0,57.7572692 57.7572692,0 129,0 C200.242731,0 258,57.7572692 258,129 C258,200.242731 200.242731,258 129,258 Z" id="path-1"></path>
                </g>
                <g id="path-1-link" transform="translate(8.000000, 8.000000)" fill="#E3F2EF">
                    <path d="M129,258 C57.7572692,258 0,200.242731 0,129 C0,57.7572692 57.7572692,0 129,0 C200.242731,0 258,57.7572692 258,129 C258,200.242731 200.242731,258 129,258 Z" id="path-1"></path>
                </g>
                <path d="M137,273.5 C61.6151336,273.5 0.5,212.384866 0.5,137 C0.5,61.6151336 61.6151336,0.5 137,0.5 C212.384866,0.5 273.5,61.6151336 273.5,137 C273.5,212.384866 212.384866,273.5 137,273.5 Z" id="Shape" stroke="#FFFFFF" stroke-width="15"></path>
            </g>
            <g id="background" transform="translate(11.000000, 8.000000)" fill-rule="nonzero">
                <path d="M258.540478,128.828799 C258.540478,57.6508875 200.88959,0 129.711679,0 C58.5337674,0 0.882879894,57.6508875 0.882879894,128.828799 C0.882879894,147.831047 5.06981586,165.867079 12.4774718,181.970679 L247.267958,181.970679 C254.353542,165.867079 258.540478,147.831047 258.540478,128.828799 Z" id="top" fill="#BDFBFC"></path>
                <path d="M12.4774718,181.970679 C32.7680076,226.738686 77.5360153,257.657598 129.711679,257.657598 C181.887342,257.657598 226.977422,226.738686 246.945886,181.970679 L12.4774718,181.970679 Z" id="bottom" fill="#FFEF9E"></path>
                <path d="M241.14859,193.243198 C243.403094,189.700406 245.335526,185.835542 246.945886,181.970679 L12.1553998,181.970679 C13.7657598,185.835542 16.0202638,189.700406 17.9526958,193.243198 L241.14859,193.243198 Z" id="mid" fill="#FFFACF"></path>
            </g>
            <g id="Illustration" transform="translate(0.000000, 39.000000)">
                <g id="Group">
                    <g id="Group-3" transform="translate(76.000000, 62.007125)">
                        <ellipse id="Oval" fill="#45413C" fill-rule="nonzero" opacity="0.15" cx="63.3376987" cy="118.759087" rx="50.9810442" ry="5.10735418"></ellipse>
                        <path d="M126.554194,73.8143702 L126.540599,8.44023669 C126.540599,3.92874049 122.890356,0.268469992 118.383632,0.268469992 L8.27817093,0.268469992 C3.77484536,0.268469992 0.124602594,3.92874049 0.124602594,8.44023669 L0.138197539,73.8143702 L126.554194,73.8143702 Z" id="Shape" fill="#00B8F0" fill-rule="nonzero"></path>
                        <path d="M16.435138,73.8143702 L89.8478417,0.268469992 L8.27817093,0.268469992 C3.77484536,0.268469992 0.124602594,3.92874049 0.124602594,8.44023669 L0.138197539,73.8143702 L16.435138,73.8143702 Z" id="Shape" fill="#4ACFFF" fill-rule="nonzero"></path>
                        <path d="M126.540599,73.8143702 L126.540599,90.1579036 C126.540599,94.6728047 122.890356,98.3296703 118.383632,98.3296703 L8.27817093,98.3296703 C3.77484536,98.3296703 0.124602594,94.6693998 0.124602594,90.1579036 L0.124602594,73.8143702 L126.540599,73.8143702 Z" id="Shape" stroke="#45413C" fill="#FFFFFF" fill-rule="nonzero" stroke-linecap="round" stroke-linejoin="round"></path>
                        <ellipse id="Oval" stroke="#45413C" fill="#525252" fill-rule="nonzero" stroke-linecap="round" stroke-linejoin="round" cx="63.3376987" cy="86.0720203" rx="4.07848354" ry="4.08588335"></ellipse>
                        <polygon id="Shape" stroke="#45413C" fill="#DAEDF7" fill-rule="nonzero" stroke-linecap="round" stroke-linejoin="round" points="83.7301164 114.673204 42.945281 114.673204 44.9845228 98.3296703 81.6908746 98.3296703"></polygon>
                        <path d="M30.7098304,114.673204 L95.965567,114.673204" id="Shape" stroke="#45413C" stroke-linecap="round" stroke-linejoin="round"></path>
                        <path d="M126.554194,73.8143702 L126.540599,8.44023669 C126.540599,3.92874049 122.890356,0.268469992 118.383632,0.268469992 L8.27817093,0.268469992 C3.77484536,0.268469992 0.124602594,3.92874049 0.124602594,8.44023669 L0.138197539,73.8143702 L126.554194,73.8143702 Z" id="Shape" stroke="#45413C" stroke-linecap="round" stroke-linejoin="round"></path>
                        <ellipse id="Oval" fill="#FFFFFF" fill-rule="nonzero" cx="63.3376987" cy="37.0414201" rx="24.4709012" ry="24.5153001"></ellipse>
                        <path d="M74.7710476,15.3726188 C71.3553176,13.5612105 67.470562,12.52612 63.3376987,12.52612 C49.8209245,12.52612 38.8667975,23.5035266 38.8667975,37.0414201 C38.8667975,41.1817819 39.903412,45.0735858 41.708141,48.4955131 L74.7710476,15.3726188 Z" id="Shape" fill="#F0FFE5" fill-rule="nonzero"></path>
                        <ellipse id="Oval" stroke="#45413C" stroke-linecap="round" stroke-linejoin="round" cx="63.3376987" cy="37.0414201" rx="24.4709012" ry="24.5153001"></ellipse>
                        <path d="M59.2592152,51.3420118 C57.6957965,51.3420118 56.128979,50.7461538 54.9360226,49.5476281 L46.7790555,41.3758614 C44.3897439,38.9822147 44.3897439,35.1040304 46.7790555,32.7103838 C49.1683671,30.3167371 53.0429265,30.3167371 55.4322381,32.7103838 L59.2626139,36.5477092 L69.2141137,26.5815587 C71.6034253,24.1845072 75.474586,24.1845072 77.8638976,26.5815587 C80.2532092,28.9752054 80.2532092,32.8533897 77.8638976,35.2470363 L63.5892052,49.5476281 C62.3894513,50.7427489 60.8260326,51.3420118 59.2592152,51.3420118 Z" id="Shape" fill="#6DD627" fill-rule="nonzero"></path>
                        <path d="M47.7986764,42.3939273 L56.4484603,33.7284497 L55.4288394,32.7069789 C53.0395278,30.3133322 49.1649684,30.3133322 46.7756568,32.7069789 C44.3863452,35.1006255 44.3863452,38.9788098 46.7756568,41.3724565 L47.7986764,42.3939273 Z" id="Shape" fill="#9CEB60" fill-rule="nonzero"></path>
                        <path d="M59.2592152,51.3420118 C57.6957965,51.3420118 56.128979,50.7461538 54.9360226,49.5476281 L46.7790555,41.3758614 C44.3897439,38.9822147 44.3897439,35.1040304 46.7790555,32.7103838 C49.1683671,30.3167371 53.0429265,30.3167371 55.4322381,32.7103838 L59.2626139,36.5477092 L69.2141137,26.5815587 C71.6034253,24.1845072 75.474586,24.1845072 77.8638976,26.5815587 C80.2532092,28.9752054 80.2532092,32.8533897 77.8638976,35.2470363 L63.5892052,49.5476281 C62.3894513,50.7427489 60.8260326,51.3420118 59.2592152,51.3420118 Z" id="Shape" stroke="#45413C" stroke-linecap="round" stroke-linejoin="round"></path>
                    </g>
                    <g transform="translate(0.000000, 0.007125)">
                        <path d="M90.1038976,43.9388369 C90.613708,45.7468402 89.5668972,47.6297515 87.7621683,48.1404869 L15.8211174,68.5767134 C14.0163884,69.0874489 12.1368873,68.0387388 11.6270768,66.2307354 L0.129151979,25.6068402 C-0.380658464,23.7988369 0.666152311,21.9159256 2.47088128,21.4051902 L74.4085334,0.972368555 C76.2132624,0.461633136 78.0927636,1.5103432 78.602574,3.31834658 L90.1038976,43.9388369 Z" id="Shape" fill="#6DD627" fill-rule="nonzero"></path>
                        <path d="M82.1304623,15.7666712 L3.65024277,38.0551648 L0.129151979,25.6068402 C-0.380658464,23.7988369 0.666152311,21.9159256 2.47088128,21.4051902 L74.4085334,0.972368555 C76.2132624,0.461633136 78.0927636,1.5103432 78.602574,3.31834658 L82.1304623,15.7666712 Z" id="Shape" fill="#9CEB60" fill-rule="nonzero"></path>
                        <path d="M78.731726,33.7173187 L74.2793814,17.9934776 C69.9459927,19.2260524 65.4358696,16.7030194 64.2055271,12.3617684 L17.1228334,25.7362265 C18.3497772,30.0774776 15.8313136,34.5991885 11.5013236,35.8283584 L15.9502694,51.5521995 C20.2836581,50.3196247 24.7937812,52.8426577 26.0241237,57.1839087 L73.1102162,43.8094505 C71.8764749,39.4681995 74.3983372,34.9498935 78.731726,33.7173187 Z" id="Shape" fill="#C8FFA1" fill-rule="nonzero"></path>
                        <path d="M64.2089258,12.3651733 L17.1228334,25.7362265 C18.3497772,30.0774776 15.8313136,34.5991885 11.5013236,35.8283584 L74.2827802,17.9968825 C69.9459927,19.2260524 65.4392684,16.7030194 64.2089258,12.3651733 Z" id="Shape" fill="#E4FFD1" fill-rule="nonzero"></path>
                        <ellipse id="Oval" fill="#9CEB60" fill-rule="nonzero" transform="translate(45.111950, 34.775087) rotate(-15.824982) translate(-45.111950, -34.775087) " cx="45.1119504" cy="34.7750868" rx="8.15697401" ry="8.17177364"></ellipse>
                        <ellipse id="Oval" stroke="#45413C" stroke-width="1.00000085" stroke-linecap="round" stroke-linejoin="round" transform="translate(45.111950, 34.775087) rotate(-15.824982) translate(-45.111950, -34.775087) " cx="45.1119504" cy="34.7750868" rx="8.15697401" ry="8.17177364"></ellipse>
                        <path d="M78.731726,33.7173187 L74.2793814,17.9934776 C69.9459927,19.2260524 65.4358696,16.7030194 64.2055271,12.3617684 L17.1228334,25.7362265 C18.3497772,30.0774776 15.8313136,34.5991885 11.5013236,35.8283584 L15.9502694,51.5521995 C20.2836581,50.3196247 24.7937812,52.8426577 26.0241237,57.1839087 L73.1102162,43.8094505 C71.8764749,39.4681995 74.3983372,34.9498935 78.731726,33.7173187 Z" id="Shape" stroke="#45413C" stroke-linecap="round" stroke-linejoin="round"></path>
                        <path d="M90.1038976,43.9388369 C90.613708,45.7468402 89.5668972,47.6297515 87.7621683,48.1404869 L15.8211174,68.5767134 C14.0163884,69.0874489 12.1368873,68.0387388 11.6270768,66.2307354 L0.129151979,25.6068402 C-0.380658464,23.7988369 0.666152311,21.9159256 2.47088128,21.4051902 L74.4085334,0.972368555 C76.2132624,0.461633136 78.0927636,1.5103432 78.602574,3.31834658 L90.1038976,43.9388369 Z" id="Shape" stroke="#45413C" stroke-linecap="round" stroke-linejoin="round"></path>
                    </g>
                    <g transform="translate(46.000000, 106.000000) rotate(-9.000000) translate(-46.000000, -106.000000) translate(28.000000, 88.000000)">
                        <circle id="Oval" fill="#FFE500" fill-rule="nonzero" cx="18" cy="18" r="18"></circle>
                        <path d="M18.1591858,0 C8.13077543,0 0,7.86849235 0,17.5734056 C0,22.4258622 2.03155891,26.8192136 5.31837153,30 L31,5.14681116 C27.7131874,1.96822142 23.1733909,0 18.1591858,0 Z" id="Shape" fill="#FFF48C" fill-rule="nonzero"></path>
                        <path d="M18.1591858,0 C8.13077543,0 0,7.86849235 0,17.5734056 C0,22.4258622 2.03155891,26.8192136 5.31837153,30 C5.92701672,26.1571655 7.60525649,25.4658205 10.3530908,27.925965 C14.5287362,23.8850179 20.4714431,18.1340112 28.1812116,10.6729449 C25.2790485,8.07330015 26.2186446,6.23125557 31,5.14681116 C27.7131874,1.96822142 23.1733909,0 18.1591858,0 Z" id="Shape" fill="#FFF48C" fill-rule="nonzero"></path>
                        <circle id="Oval" stroke="#45413C" cx="18" cy="18" r="18"></circle>
                        <circle id="Oval" stroke="#45413C" cx="17.6564345" cy="18.0431734" r="12.5"></circle>
                    </g>
                    <g transform="translate(117.594211, 23.915931) rotate(15.000000) translate(-117.594211, -23.915931) translate(99.594211, 5.915931)">
                        <circle id="Oval" fill="#FFE500" fill-rule="nonzero" cx="18" cy="18" r="18"></circle>
                        <path d="M18.1591858,0 C8.13077543,0 0,7.86849235 0,17.5734056 C0,22.4258622 2.03155891,26.8192136 5.31837153,30 L31,5.14681116 C27.7131874,1.96822142 23.1733909,0 18.1591858,0 Z" id="Shape" fill="#FFF48C" fill-rule="nonzero"></path>
                        <path d="M18.1591858,0 C8.13077543,0 0,7.86849235 0,17.5734056 C0,22.4258622 2.03155891,26.8192136 5.31837153,30 C5.92701672,26.1571655 7.60525649,25.4658205 10.3530908,27.925965 C14.5287362,23.8850179 20.4714431,18.1340112 28.1812116,10.6729449 C25.2790485,8.07330015 26.2186446,6.23125557 31,5.14681116 C27.7131874,1.96822142 23.1733909,0 18.1591858,0 Z" id="Shape" fill="#FFF48C" fill-rule="nonzero"></path>
                        <circle id="Oval" stroke="#45413C" cx="18" cy="18" r="18"></circle>
                        <circle id="Oval" stroke="#45413C" cx="17.6564345" cy="18.0431734" r="12.5"></circle>
                    </g>
                </g>
            </g>
        </g>
    </g>
</svg>