<?xml version="1.0" encoding="UTF-8"?>
<svg width="316px" height="316px" viewBox="0 0 316 316" version="1.1" xmlns="http://www.w3.org/2000/svg" xmlns:xlink="http://www.w3.org/1999/xlink">
    <!-- Generator: Sketch 46.2 (44496) - http://www.bohemiancoding.com/sketch -->
    <title>Energy Copy 2</title>
    <desc>Created with Sketch.</desc>
    <defs>
        <filter x="-10.2%" y="-10.2%" width="120.4%" height="120.4%" filterUnits="objectBoundingBox" id="filter-1">
            <feOffset dx="0" dy="0" in="SourceAlpha" result="shadowOffsetOuter1"></feOffset>
            <feGaussianBlur stdDeviation="7" in="shadowOffsetOuter1" result="shadowBlurOuter1"></feGaussianBlur>
            <feColorMatrix values="0 0 0 0 0   0 0 0 0 0   0 0 0 0 0  0 0 0 0.15 0" type="matrix" in="shadowBlurOuter1" result="shadowMatrixOuter1"></feColorMatrix>
            <feMerge>
                <feMergeNode in="shadowMatrixOuter1"></feMergeNode>
                <feMergeNode in="SourceGraphic"></feMergeNode>
            </feMerge>
        </filter>
    </defs>
    <g id="Page-1" stroke="none" stroke-width="1" fill="none" fill-rule="evenodd">
        <g id="Energy-Copy-2" filter="url(#filter-1)" transform="translate(21.000000, 21.000000)">
            <g id="shadow">
                <g id="path-1-link" transform="translate(8.000000, 8.000000)" fill-rule="nonzero" fill="#000000">
                    <path d="M129,258 C57.7572692,258 0,200.242731 0,129 C0,57.7572692 57.7572692,0 129,0 C200.242731,0 258,57.7572692 258,129 C258,200.242731 200.242731,258 129,258 Z" id="path-1"></path>
                </g>
                <g id="path-1-link" transform="translate(8.000000, 8.000000)" fill="#E3F2EF">
                    <path d="M129,258 C57.7572692,258 0,200.242731 0,129 C0,57.7572692 57.7572692,0 129,0 C200.242731,0 258,57.7572692 258,129 C258,200.242731 200.242731,258 129,258 Z" id="path-1"></path>
                </g>
                <path d="M137,273.5 C61.6151336,273.5 0.5,212.384866 0.5,137 C0.5,61.6151336 61.6151336,0.5 137,0.5 C212.384866,0.5 273.5,61.6151336 273.5,137 C273.5,212.384866 212.384866,273.5 137,273.5 Z" id="Shape" stroke="#FFFFFF" stroke-width="15"></path>
            </g>
            <g id="background" transform="translate(6.000000, 8.000000)" fill-rule="nonzero">
                <path d="M258.540478,128.828799 C258.540478,57.6508875 200.88959,0 129.711679,0 C58.5337674,0 0.882879894,57.6508875 0.882879894,128.828799 C0.882879894,147.831047 5.06981586,165.867079 12.4774718,181.970679 L247.267958,181.970679 C254.353542,165.867079 258.540478,147.831047 258.540478,128.828799 Z" id="top" fill="#BDFBFC"></path>
                <path d="M12.4774718,181.970679 C32.7680076,226.738686 77.5360153,257.657598 129.711679,257.657598 C181.887342,257.657598 226.977422,226.738686 246.945886,181.970679 L12.4774718,181.970679 Z" id="bottom" fill="#FFEF9E"></path>
                <path d="M241.14859,193.243198 C243.403094,189.700406 245.335526,185.835542 246.945886,181.970679 L12.1553998,181.970679 C13.7657598,185.835542 16.0202638,189.700406 17.9526958,193.243198 L241.14859,193.243198 Z" id="mid" fill="#FFFACF"></path>
            </g>
            <g id="Group" transform="translate(13.000000, 56.000000)">
                <ellipse id="Oval" fill="#45413C" fill-rule="nonzero" opacity="0.15" cx="72.7332044" cy="162.944783" rx="45.7332044" ry="4.88332465"></ellipse>
                <g id="Group-13" transform="translate(0.000000, 44.000000)">
                    <path d="M32,15.5047619 C32,7.04761905 24.7272727,0 16,0 C7.27272727,0 0,7.04761905 0,15.5047619 L0,33.4761905 C0,35.5904762 1.45454545,37 3.63636364,37 L32,37 L32,15.5047619 Z" id="Shape" stroke="#45413C" fill="#F7E5C6" fill-rule="nonzero" stroke-linejoin="round"></path>
                    <path d="M102,117 L102,117 C93.4710744,117 86.3636364,109.909091 86.3636364,101.4 L86.3636364,15.6 C86.3636364,7.09090909 79.2561983,0 70.7272727,0 L16,0 L16,0 C24.5289256,0 31.6363636,7.09090909 31.6363636,15.6 L31.6363636,101.4 C31.6363636,109.909091 38.7438017,117 47.2727273,117 L102,117 Z" id="Shape" fill="#FFF5E3" fill-rule="nonzero"></path>
                    <path d="M70.5433526,0 C76.8901734,0 82.5317919,3.92857143 85,10 L30.699422,10 C29.2890173,6.78571429 27.1734104,3.92857143 24,2.5 L20,0 L70.5433526,0 Z" id="Shape" fill="#FFFFFF" fill-rule="nonzero"></path>
                    <path d="M102,117 L102,117 C93.4710744,117 86.3636364,109.909091 86.3636364,101.4 L86.3636364,15.6 C86.3636364,7.09090909 79.2561983,0 70.7272727,0 L16,0 L16,0 C24.5289256,0 31.6363636,7.09090909 31.6363636,15.6 L31.6363636,101.4 C31.6363636,109.909091 38.7438017,117 47.2727273,117 L102,117 Z" id="Shape" stroke="#45413C" stroke-linejoin="round"></path>
                    <path d="M103.263211,117 C112.533169,117 119.663906,109.25 118.950832,100.090909 C118.237758,91.9886364 110.750484,86 102.550137,86 L58.6961053,86 C56.9134211,86 56.2003474,88.1136364 57.6264948,89.1704545 C61.5484001,91.9886364 63.6876211,96.5681818 63.6876211,101.5 C63.6876211,109.954545 56.5568842,117 48,117 L103.263211,117 Z" id="Shape" stroke="#45413C" fill="#FFFFFF" fill-rule="nonzero" stroke-linejoin="round"></path>
                    <path d="M75,23 L46,23" id="Shape" stroke="#45413C" stroke-linecap="round" stroke-linejoin="round"></path>
                    <path d="M75,35 L46,35" id="Shape" stroke="#45413C" stroke-linecap="round" stroke-linejoin="round"></path>
                    <path d="M70,47 L55,47" id="Shape" stroke="#45413C" stroke-linecap="round" stroke-linejoin="round"></path>
                    <path d="M71,59 L59,59" id="Shape" stroke="#45413C" stroke-linecap="round" stroke-linejoin="round"></path>
                </g>
                <g id="Group-14" transform="translate(66.000000, 0.000000)">
                    <polygon id="Shape" fill="#525252" fill-rule="nonzero" points="45.8524554 91.5900967 29.9129186 75.359426 43.4268737 56.7114214 64.9105973 78.1220934"></polygon>
                    <polygon id="Shape" fill="#656769" fill-rule="nonzero" points="43.4268737 56.7114214 29.9129186 75.359426 38.922222 84.6834284 55.2082705 68.4527577"></polygon>
                    <path d="M64.9105973,78.1220934 L43.4268737,56.7114214 L104.412928,3.18474153 C108.917579,-0.613926078 115.501301,-0.613926078 119.659441,3.53007495 C123.817581,7.67407597 123.817581,14.5807443 120.005953,18.7247454 L64.9105973,78.1220934 Z" id="Shape" fill="#525252" fill-rule="nonzero"></path>
                    <path d="M119.31293,3.53007495 C115.15479,-0.613926078 108.571068,-0.613926078 104.066416,3.18474153 L43.0803621,56.7114214 L55.2082705,68.7980911 L120.005953,4.22074178 C119.659441,3.87540837 119.659441,3.53007495 119.31293,3.53007495 Z" id="Shape" fill="#656769" fill-rule="nonzero"></path>
                    <path d="M26.4478019,112.655435 C24.3687319,115.072769 21.5966385,116.799436 18.1315218,116.799436 C12.9338467,116.799436 5.31058998,117.490103 0.112914928,120.943437 C3.57803163,115.763436 4.27105497,108.166101 4.27105497,102.9861 C4.27105497,99.8780988 6.00361333,96.770098 8.42919502,94.6980975 L25.7547785,81.920761 L39.2687337,95.3887643 L26.4478019,112.655435 Z" id="Shape" fill="#FFE500" fill-rule="nonzero"></path>
                    <path d="M25.7547785,81.920761 L8.42919502,94.6980975 C6.00361333,96.770098 4.27105497,99.5327654 4.27105497,102.9861 C4.27105497,108.166101 3.57803163,115.763436 0.112914928,120.943437 L32.3385003,88.8274294 L25.7547785,81.920761 Z" id="Shape" fill="#FFF48C" fill-rule="nonzero"></path>
                    <polygon id="Shape" stroke="#45413C" fill="#FFE500" fill-rule="nonzero" stroke-linejoin="round" points="39.2687337 95.3887643 25.7547785 81.920761 29.9129186 75.359426 45.8524554 91.5900967"></polygon>
                    <path d="M26.4478019,112.655435 C24.3687319,115.072769 21.5966385,116.799436 18.1315218,116.799436 C12.9338467,116.799436 5.31058998,117.490103 0.112914928,120.943437 C3.57803163,115.763436 4.27105497,108.166101 4.27105497,102.9861 C4.27105497,99.8780988 6.00361333,96.770098 8.42919502,94.6980975 L25.7547785,81.920761 L39.2687337,95.3887643 L26.4478019,112.655435 Z" id="Shape" stroke="#45413C" stroke-linejoin="round"></path>
                    <polygon id="Shape" stroke="#45413C" stroke-linejoin="round" points="45.8524554 91.5900967 29.9129186 75.359426 43.4268737 56.7114214 64.9105973 78.1220934"></polygon>
                    <ellipse id="Oval" stroke="#45413C" stroke-width="0.99999041" stroke-linejoin="round" transform="translate(17.847174, 103.510108) rotate(-45.000000) translate(-17.847174, -103.510108) " cx="17.8471743" cy="103.510108" rx="3.81159182" ry="3.79863118"></ellipse>
                    <path d="M15.0129168,106.0941 L1.49896161,119.562104" id="Shape" stroke="#45413C" stroke-linejoin="round"></path>
                    <path d="M115.15479,23.5594132 L117.580371,25.9767472 C120.352465,28.7394145 120.698976,33.5740824 117.926883,36.3367497 L94.7106009,61.8914227" id="Shape" stroke="#45413C" stroke-linecap="round" stroke-linejoin="round"></path>
                    <polygon id="Shape" stroke="#45413C" fill="#FFE500" fill-rule="nonzero" stroke-linejoin="round" points="48.9710605 51.5314202 43.4268737 56.7114214 64.9105973 78.1220934 70.1082724 72.5967587"></polygon>
                    <path d="M64.9105973,78.1220934 L43.4268737,56.7114214 L104.412928,3.18474153 C108.917579,-0.613926078 115.501301,-0.613926078 119.659441,3.53007495 C123.817581,7.67407597 123.817581,14.5807443 120.005953,18.7247454 L64.9105973,78.1220934 Z" id="Shape" stroke="#45413C" stroke-linejoin="round"></path>
                </g>
            </g>
        </g>
    </g>
</svg>