<?xml version="1.0" encoding="UTF-8"?>
<svg width="316px" height="316px" viewBox="0 0 316 316" version="1.1" xmlns="http://www.w3.org/2000/svg" xmlns:xlink="http://www.w3.org/1999/xlink">
    <!-- Generator: Sketch 46.2 (44496) - http://www.bohemiancoding.com/sketch -->
    <title>share</title>
    <desc>Created with Sketch.</desc>
    <defs>
        <filter x="-10.2%" y="-10.2%" width="120.4%" height="120.4%" filterUnits="objectBoundingBox" id="filter-1">
            <feOffset dx="0" dy="0" in="SourceAlpha" result="shadowOffsetOuter1"></feOffset>
            <feGaussianBlur stdDeviation="7" in="shadowOffsetOuter1" result="shadowBlurOuter1"></feGaussianBlur>
            <feColorMatrix values="0 0 0 0 0   0 0 0 0 0   0 0 0 0 0  0 0 0 0.15 0" type="matrix" in="shadowBlurOuter1" result="shadowMatrixOuter1"></feColorMatrix>
            <feMerge>
                <feMergeNode in="shadowMatrixOuter1"></feMergeNode>
                <feMergeNode in="SourceGraphic"></feMergeNode>
            </feMerge>
        </filter>
    </defs>
    <g id="Page-1" stroke="none" stroke-width="1" fill="none" fill-rule="evenodd">
        <g id="share" filter="url(#filter-1)" transform="translate(21.000000, 21.000000)">
            <g id="shadow">
                <g id="path-1-link" transform="translate(8.000000, 8.000000)" fill-rule="nonzero" fill="#000000">
                    <path d="M129,258 C57.7572692,258 0,200.242731 0,129 C0,57.7572692 57.7572692,0 129,0 C200.242731,0 258,57.7572692 258,129 C258,200.242731 200.242731,258 129,258 Z" id="path-1"></path>
                </g>
                <g id="path-1-link" transform="translate(8.000000, 8.000000)" fill="#E3F2EF">
                    <path d="M129,258 C57.7572692,258 0,200.242731 0,129 C0,57.7572692 57.7572692,0 129,0 C200.242731,0 258,57.7572692 258,129 C258,200.242731 200.242731,258 129,258 Z" id="path-1"></path>
                </g>
                <path d="M137,273.5 C61.6151336,273.5 0.5,212.384866 0.5,137 C0.5,61.6151336 61.6151336,0.5 137,0.5 C212.384866,0.5 273.5,61.6151336 273.5,137 C273.5,212.384866 212.384866,273.5 137,273.5 Z" id="Shape" stroke="#FFFFFF" stroke-width="15"></path>
            </g>
            <g id="background" transform="translate(6.000000, 8.000000)" fill-rule="nonzero">
                <path d="M258.540478,128.828799 C258.540478,57.6508875 200.88959,0 129.711679,0 C58.5337674,0 0.882879894,57.6508875 0.882879894,128.828799 C0.882879894,147.831047 5.06981586,165.867079 12.4774718,181.970679 L247.267958,181.970679 C254.353542,165.867079 258.540478,147.831047 258.540478,128.828799 Z" id="top" fill="#BDFBFC"></path>
                <path d="M12.4774718,181.970679 C32.7680076,226.738686 77.5360153,257.657598 129.711679,257.657598 C181.887342,257.657598 226.977422,226.738686 246.945886,181.970679 L12.4774718,181.970679 Z" id="bottom" fill="#FFEF9E"></path>
                <path d="M241.14859,193.243198 C243.403094,189.700406 245.335526,185.835542 246.945886,181.970679 L12.1553998,181.970679 C13.7657598,185.835542 16.0202638,189.700406 17.9526958,193.243198 L241.14859,193.243198 Z" id="mid" fill="#FFFACF"></path>
            </g>
            <g id="Group" transform="translate(71.000000, 120.000000)">
                <ellipse id="Oval" fill="#45413C" fill-rule="nonzero" opacity="0.15" cx="60.5" cy="81.5" rx="60.5" ry="5.5"></ellipse>
                <path d="M104.214286,80.6101695 L10.7857143,80.6101695 C6.48410714,80.6101695 3,77.1545765 3,72.8881739 L3,18.8406397 C3,14.5742371 6.48410714,11.1186441 10.7857143,11.1186441 L104.214286,11.1186441 C108.515893,11.1186441 112,14.5742371 112,18.8406397 L112,72.8881739 C112,77.1545765 108.515893,80.6101695 104.214286,80.6101695 Z" id="Shape" stroke="#45413C" fill="#E0E0E0" fill-rule="nonzero" stroke-linecap="round" stroke-linejoin="round"></path>
                <rect id="Rectangle-path" stroke="#45413C" fill="#656769" fill-rule="nonzero" stroke-linecap="round" stroke-linejoin="round" x="3" y="26.4067797" width="109" height="38.9152542"></rect>
                <path d="M71.4514011,0 L42.1446749,0 C39.1990797,0 36.5000321,1.67253968 35.1829487,4.3147619 L32.0167582,10.6730159 C30.3947344,13.9269841 29.5512821,17.5128571 29.5512821,21.1442857 L29.5512821,82 L84.0512821,82 L84.0512821,21.1442857 C84.0512821,17.5063492 83.2078297,13.9269841 81.5858059,10.6730159 L78.4196154,4.3147619 C77.096044,1.66603175 74.3969963,0 71.4514011,0 Z" id="Shape" stroke="#45413C" fill="#BDBEC0" fill-rule="nonzero" stroke-linecap="round" stroke-linejoin="round"></path>
                <ellipse id="Oval" stroke="#45413C" fill="#656769" fill-rule="nonzero" stroke-linecap="round" stroke-linejoin="round" cx="56.8012821" cy="46.559322" rx="27.25" ry="27.1016949"></ellipse>
                <ellipse id="Oval" fill="#00B8F0" fill-rule="nonzero" cx="57.5" cy="45.8644068" rx="15.3717949" ry="15.2881356"></ellipse>
                <path d="M46.68277,56.9830508 C40.6100169,50.9444535 40.6100169,41.14865 46.68277,35.1100526 C52.7555231,29.0650107 62.6067341,29.0650107 68.6794872,35.1100526 L46.68277,56.9830508 Z" id="Shape" fill="#4ACFFF" fill-rule="nonzero"></path>
                <ellipse id="Oval" stroke="#45413C" stroke-linecap="round" stroke-linejoin="round" cx="57.5" cy="45.8644068" rx="15.3717949" ry="15.2881356"></ellipse>
            </g>
            <g id="Group-3" transform="translate(37.000000, 140.000000)">
                <g id="Group-2">
                    <ellipse id="Oval" fill="#45413C" fill-rule="nonzero" opacity="0.15" cx="32.6408824" cy="78.9758343" rx="32.6117647" ry="2.88146853"></ellipse>
                    <path d="M57.0997059,72.6519713 C57.0997059,74.7727322 55.3604118,76.4939294 53.2173529,76.4939294 L12.0644118,76.4939294 C9.92135294,76.4939294 8.18205882,74.7727322 8.18205882,72.6519713 L8.18205882,4.26511818 C8.18205882,2.14435734 9.92135294,0.42316014 12.0644118,0.42316014 L53.2173529,0.42316014 C55.3604118,0.42316014 57.0997059,2.14435734 57.0997059,4.26511818 L57.0997059,72.6519713 L57.0997059,72.6519713 Z" id="Shape" fill="#E8F4FA" fill-rule="nonzero"></path>
                    <path d="M57.0997059,4.2631972 C57.0997059,2.14243636 55.3604118,0.421239161 53.2173529,0.421239161 L12.0644118,0.421239161 C9.92135294,0.421239161 8.18205882,2.14243636 8.18205882,4.2631972 L8.18205882,11.1787217 C8.18205882,9.05796084 9.92135294,7.33676364 12.0644118,7.33676364 L53.2173529,7.33676364 C55.3604118,7.33676364 57.0997059,9.05796084 57.0997059,11.1787217 L57.0997059,4.2631972 L57.0997059,4.2631972 Z" id="Shape" fill="#FFFFFF" fill-rule="nonzero"></path>
                    <ellipse id="Oval" fill="#C0DCEB" fill-rule="nonzero" cx="32.6408824" cy="58.8017126" rx="15.1411765" ry="14.9836364"></ellipse>
                    <ellipse id="Oval" fill="#FFFFFF" fill-rule="nonzero" cx="32.6408824" cy="54.5947685" rx="15.1411765" ry="14.9836364"></ellipse>
                    <ellipse id="Oval" fill="#E8F4FA" fill-rule="nonzero" cx="32.6408824" cy="54.5947685" rx="5.82352941" ry="5.76293706"></ellipse>
                    <path d="M57.0997059,72.6519713 C57.0997059,74.7727322 55.3604118,76.4939294 53.2173529,76.4939294 L12.0644118,76.4939294 C9.92135294,76.4939294 8.18205882,74.7727322 8.18205882,72.6519713 L8.18205882,4.26511818 C8.18205882,2.14435734 9.92135294,0.42316014 12.0644118,0.42316014 L53.2173529,0.42316014 C55.3604118,0.42316014 57.0997059,2.14435734 57.0997059,4.26511818 L57.0997059,72.6519713 L57.0997059,72.6519713 Z" id="Shape" stroke="#45413C" stroke-linecap="round" stroke-linejoin="round"></path>
                    <ellipse id="Oval" stroke="#45413C" stroke-linecap="round" stroke-linejoin="round" cx="32.6408824" cy="54.5947685" rx="15.1411765" ry="14.9836364"></ellipse>
                    <ellipse id="Oval" stroke="#45413C" stroke-linecap="round" stroke-linejoin="round" cx="32.6408824" cy="54.5947685" rx="5.82352941" ry="5.76293706"></ellipse>
                </g>
                <g id="Group" transform="translate(15.230769, 6.307692)">
                    <path d="M35.1800709,23.9868923 C35.1800709,25.0314462 34.3121842,25.8792 33.2428239,25.8792 L2.24687247,25.8792 C1.17751215,25.8792 0.309625506,25.0314462 0.309625506,23.9868923 L0.309625506,2.79304615 C0.309625506,1.74849231 1.17751215,0.900738462 2.24687247,0.900738462 L33.2428239,0.900738462 C34.3121842,0.900738462 35.1800709,1.74849231 35.1800709,2.79304615 L35.1800709,23.9868923 Z" id="Shape" fill="#4ACFFF" fill-rule="nonzero"></path>
                    <path d="M0.309625506,23.3208 L23.2601903,0.902630769 L2.24687247,0.902630769 C1.17751215,0.902630769 0.309625506,1.75038462 0.309625506,2.79493846 L0.309625506,23.3208 Z" id="Shape" fill="#80DDFF" fill-rule="nonzero"></path>
                    <path d="M16.0071377,7.75278462 C15.6468097,7.54652308 15.2031802,7.54652308 14.840915,7.74710769 C14.4786498,7.94958462 14.2558664,8.32426154 14.2558664,8.733 L14.2558664,18.3459231 C14.2558664,18.7584462 14.4844615,19.1369077 14.8525385,19.3374923 C15.2186781,19.5380769 15.6700567,19.5286154 16.0284474,19.3128923 L24.2288138,14.3834308 C24.5775182,14.1752769 24.7867409,13.8024923 24.7809291,13.4032154 C24.7770547,13.0039385 24.5581457,12.6368308 24.2055668,12.4362462 L16.0071377,7.75278462 Z" id="Shape" fill="#FFFFFF" fill-rule="nonzero"></path>
                    <path d="M35.1800709,23.9868923 C35.1800709,25.0314462 34.3121842,25.8792 33.2428239,25.8792 L2.24687247,25.8792 C1.17751215,25.8792 0.309625506,25.0314462 0.309625506,23.9868923 L0.309625506,2.79304615 C0.309625506,1.74849231 1.17751215,0.900738462 2.24687247,0.900738462 L33.2428239,0.900738462 C34.3121842,0.900738462 35.1800709,1.74849231 35.1800709,2.79304615 L35.1800709,23.9868923 Z" id="Shape" stroke="#45413C" stroke-linecap="round" stroke-linejoin="round"></path>
                    <path d="M16.0071377,7.75278462 C15.6468097,7.54652308 15.2031802,7.54652308 14.840915,7.74710769 C14.4786498,7.94958462 14.2558664,8.32426154 14.2558664,8.733 L14.2558664,18.3459231 C14.2558664,18.7584462 14.4844615,19.1369077 14.8525385,19.3374923 C15.2186781,19.5380769 15.6700567,19.5286154 16.0284474,19.3128923 L24.2288138,14.3834308 C24.5775182,14.1752769 24.7867409,13.8024923 24.7809291,13.4032154 C24.7770547,13.0039385 24.5581457,12.6368308 24.2055668,12.4362462 L16.0071377,7.75278462 Z" id="Shape" stroke="#45413C" stroke-linecap="round" stroke-linejoin="round"></path>
                </g>
            </g>
            <g id="Group-9" transform="translate(3.000000, 27.000000)">
                <g id="Group-7">
                    <circle id="Oval" fill="#DAEDF7" fill-rule="nonzero" cx="38.5" cy="38.5" r="38.5"></circle>
                    <path d="M38.5,7.30434783 C58.5,7.30434783 75,22.5770751 76.8333333,42 C77,40.8379447 77,39.5098814 77,38.3478261 C77,17.0988142 59.8333333,0 38.5,0 C17.1666667,0 0,17.0988142 0,38.3478261 C0,39.5098814 0,40.8379447 0.166666667,42 C2.16666667,22.5770751 18.5,7.30434783 38.5,7.30434783 Z" id="Shape" fill="#FFFFFF" fill-rule="nonzero"></path>
                    <circle id="Oval" stroke="#45413C" stroke-linecap="round" stroke-linejoin="round" cx="38.5" cy="38.5" r="38.5"></circle>
                    <circle id="Oval" fill="#00B8F0" fill-rule="nonzero" cx="38" cy="39" r="30"></circle>
                    <path d="M16.7534247,60 C5.08219178,48.3287671 5.08219178,29.4246575 16.7534247,17.7534247 C28.4246575,6.08219178 47.3287671,6.08219178 59,17.7534247 L16.7534247,60 Z" id="Shape" fill="#4ACFFF" fill-rule="nonzero"></path>
                    <circle id="Oval" stroke="#45413C" stroke-linecap="round" stroke-linejoin="round" cx="38" cy="39" r="30"></circle>
                </g>
                <g id="Group-8" transform="translate(38.000000, 39.000000) rotate(90.000000) translate(-38.000000, -39.000000) translate(36.000000, 10.000000)" fill="#45413C">
                    <circle id="Oval-2" transform="translate(2.000000, 2.000000) rotate(45.000000) translate(-2.000000, -2.000000) " cx="2" cy="2" r="1"></circle>
                    <circle id="Oval-2-Copy" transform="translate(2.000000, 56.000000) rotate(45.000000) translate(-2.000000, -56.000000) " cx="2" cy="56" r="1"></circle>
                </g>
                <circle id="Oval-2" fill="#45413C" cx="38" cy="12" r="1"></circle>
                <circle id="Oval-2-Copy" fill="#45413C" cx="38" cy="66" r="1"></circle>
                <path d="M31,21 L37.7548982,38.7586979" id="Line" stroke="#45413C" stroke-linecap="round" stroke-linejoin="round"></path>
                <path d="M38,39 L49.9812599,53.746166" id="Line-Copy" stroke="#45413C" stroke-linecap="round" stroke-linejoin="round"></path>
                <circle id="Oval-2-Copy-2" stroke="#45413C" fill="#4ACFFF" cx="37.5" cy="38.5" r="1.5"></circle>
            </g>
        </g>
    </g>
</svg>