<?xml version="1.0" encoding="UTF-8" standalone="no"?>
<svg width="100px" height="100px" viewBox="0 0 100 100" version="1.1" xmlns="http://www.w3.org/2000/svg" xmlns:xlink="http://www.w3.org/1999/xlink">
    <!-- Generator: Sketch 46.2 (44496) - http://www.bohemiancoding.com/sketch -->
    <title>no-image</title>
    <desc>Created with Sketch.</desc>
    <defs>
        <path d="M36.6666667,0 L50,0 L50,13.3333333 L36.6666667,13.3333333 L36.6666667,0 Z M0,0 L13.3333333,0 L13.3333333,13.3333333 L0,13.3333333 L0,0 Z M36.6666667,36.6666667 L50,36.6666667 L50,50 L36.6666667,50 L36.6666667,36.6666667 Z M0,36.6666667 L13.3333333,36.6666667 L13.3333333,50 L0,50 L0,36.6666667 Z" id="path-1"></path>
    </defs>
    <g id="Page-1" stroke="none" stroke-width="1" fill="none" fill-rule="evenodd">
        <g id="no-image">
            <g id="icon/default.picture" transform="translate(25.000000, 25.000000)">
                <g id="Group">
                    <mask id="mask-2" fill="white">
                        <use xlink:href="#path-1"></use>
                    </mask>
                    <g id="Combined-Shape"></g>
                </g>
                <g id="icon/picture.dark" opacity="0.1" transform="translate(5.555556, 5.555556)">
                    <g id="picture-3" transform="translate(0.000000, -0.000000)">
                        <g id="Filled_Icon" transform="translate(1.625000, 1.625000)" fill-rule="nonzero" fill="#000000">
                            <g id="Group">
                                <path d="M30.875,9.45425 L30.875,30.875 L7.90725,30.875 L7.644,32.60075 C7.574125,33.060625 7.904,33.488 8.373625,33.531875 L32.6495,35.745125 C33.096375,35.78575 33.49125,35.4575 33.531875,35.010625 L35.74675,10.736375 C35.787375,10.2895 35.459125,9.894625 35.01225,9.854 C31.46325,9.533875 32.160375,9.605375 30.875,9.45425 Z" id="Shape"></path>
                                <path d="M29.25,24.375 C22.90275,24.375 6.331,24.375 0,24.375 L0,28.4375 C0,28.886 0.364,29.25 0.8125,29.25 L28.4375,29.25 C28.886,29.25 29.25,28.886 29.25,28.4375 L29.25,24.375 Z" id="Shape"></path>
                                <path d="M9.865375,15.019875 C10.157875,14.5275 10.83875,14.499875 11.184875,14.915875 L14.418625,18.798 L17.9465,11.038625 C18.230875,10.408125 19.1685,10.39675 19.4415,11.07275 L24.11175,22.75 L29.25,22.75 L29.25,0.8125 C29.25,0.364 28.886,0 28.4375,0 L0.8125,0 C0.364,0 0,0.364 0,0.8125 L0,22.75 L5.227625,22.75 L9.865375,15.019875 Z M8.125,4.875 C9.91575,4.875 11.375,6.332625 11.375,8.125 C11.375,9.91575 9.91575,11.375 8.125,11.375 C6.332625,11.375 4.875,9.91575 4.875,8.125 C4.875,6.332625 6.332625,4.875 8.125,4.875 Z" id="Shape"></path>
                            </g>
                        </g>
                        <g id="Invisible_Shape">
                            <rect id="Rectangle-path" x="0" y="0" width="39" height="39"></rect>
                        </g>
                    </g>
                </g>
            </g>
        </g>
    </g>
</svg>